<svg width="156" height="150" viewBox="0 0 156 150" fill="none" xmlns="http://www.w3.org/2000/svg">
<path d="M101.054 57.4926L107.243 49.9138" stroke="#009042" stroke-width="0.48924" stroke-dasharray="1.47 1.47"/>
<path d="M77.1707 79.5165C73.6294 79.5165 71.8587 78.0232 71.8587 75.0365C71.8587 72.0925 73.6294 70.6205 77.1707 70.6205H89.2027C90.9947 70.6205 92.3174 71.0045 93.1707 71.7725C94.0667 72.5405 94.5147 73.6285 94.5147 75.0365C94.5147 76.4445 94.0667 77.5538 93.1707 78.3645C92.3174 79.1325 90.9947 79.5165 89.2027 79.5165H77.1707Z" fill="#D80000"/>
<path d="M118.204 110.965L121.56 106.758M121.965 110.36L117.758 107.003" stroke="#5C5C5C" stroke-width="0.48924"/>
<rect x="118.75" y="108.898" width="1.95696" height="1.95696" transform="rotate(-51.4155 118.75 108.898)" fill="white"/>
<path d="M56.2035 43.9649L59.5599 39.7581M59.9649 43.3596L55.7581 40.0032" stroke="#5C5C5C" stroke-width="0.48924"/>
<rect x="56.75" y="41.8975" width="1.95696" height="1.95696" transform="rotate(-51.4155 56.75 41.8975)" fill="white"/>
<path d="M23.6855 46.6799L1 36.4674" stroke="#D80000" stroke-width="1.24391" stroke-dasharray="3.73 3.73"/>
<path d="M155.349 124.728L132.664 114.516" stroke="#D80000" stroke-width="1.24391" stroke-dasharray="3.73 3.73"/>
<path d="M114.308 11.4461L101.768 5.97147M110.346 2.60693L104.872 15.1471" stroke="#5C5C5C" stroke-width="1.24391"/>
<rect x="108.872" y="11.4642" width="4.97566" height="4.97566" transform="rotate(-156.416 108.872 11.4642)" fill="white"/>
<path d="M35.0595 143.431L22.5194 137.957M31.0979 134.592L25.6233 147.132" stroke="#5C5C5C" stroke-width="1.24391"/>
<rect x="29.6226" y="143.449" width="4.97566" height="4.97566" transform="rotate(-156.416 29.6226 143.449)" fill="white"/>
<path fill-rule="evenodd" clip-rule="evenodd" d="M46 34C46 31.7909 47.7909 30 50 30H82.9631H82.9636H115.927C118.136 30 119.927 31.7909 119.927 34V87.6586C119.927 88.7631 120.822 89.6586 121.927 89.6586C123.031 89.6586 123.927 88.7631 123.927 87.6586V34C123.927 29.5817 120.345 26 115.927 26H82.9636H82.9631H50C45.5817 26 42 29.5817 42 34V87.6586V116.198C42 120.616 45.5817 124.198 50 124.198H82.9631H82.9636H119.492C120.596 124.198 121.492 123.302 121.492 122.198C121.492 121.093 120.596 120.198 119.492 120.198H82.9636H82.9631H50C47.7909 120.198 46 118.407 46 116.198V87.6586V34Z" fill="#D80000"/>
</svg>
