<svg width="156" height="175" viewBox="0 0 156 175" fill="none" xmlns="http://www.w3.org/2000/svg">
<path d="M101.054 57.4926L107.243 49.9139" stroke="#009042" stroke-width="0.48924" stroke-dasharray="1.47 1.47"/>
<path d="M94.3525 73.792C95.4192 73.792 96.3152 74.1547 97.0405 74.88C97.7658 75.6053 98.1285 76.5013 98.1285 77.568C98.1285 78.6347 97.7658 79.552 97.0405 80.32C96.3152 81.0453 95.4192 81.408 94.3525 81.408H86.2885V89.408C86.2885 90.4747 85.9258 91.3707 85.2005 92.096C84.5178 92.8213 83.6218 93.184 82.5125 93.184C81.4458 93.184 80.5498 92.8213 79.8245 92.096C79.0992 91.3707 78.7365 90.4747 78.7365 89.408V81.408H70.6725C69.6058 81.408 68.7098 81.0453 67.9845 80.32C67.2592 79.552 66.8965 78.6347 66.8965 77.568C66.8965 76.5013 67.2592 75.6053 67.9845 74.88C68.7098 74.1547 69.6058 73.792 70.6725 73.792H78.7365V65.728C78.7365 64.6613 79.0992 63.7653 79.8245 63.04C80.5498 62.3147 81.4458 61.952 82.5125 61.952C83.5792 61.952 84.4752 62.3147 85.2005 63.04C85.9258 63.7653 86.2885 64.6613 86.2885 65.728V73.792H94.3525Z" fill="#009042"/>
<path d="M118.204 110.965L121.56 106.758M121.965 110.36L117.758 107.003" stroke="#5C5C5C" stroke-width="0.48924"/>
<rect x="118.75" y="108.898" width="1.95696" height="1.95696" transform="rotate(-51.4155 118.75 108.898)" fill="white"/>
<path d="M56.2035 43.9648L59.5599 39.7581M59.9649 43.3596L55.7581 40.0032" stroke="#5C5C5C" stroke-width="0.48924"/>
<rect x="56.75" y="41.8975" width="1.95696" height="1.95696" transform="rotate(-51.4155 56.75 41.8975)" fill="white"/>
<path d="M23.6855 46.6799L1 36.4674" stroke="#009042" stroke-width="1.24391" stroke-dasharray="3.73 3.73"/>
<path d="M155.349 124.728L132.664 114.516" stroke="#009042" stroke-width="1.24391" stroke-dasharray="3.73 3.73"/>
<path d="M114.308 11.4461L101.768 5.9715M110.346 2.60697L104.872 15.1471" stroke="#5C5C5C" stroke-width="1.24391"/>
<rect x="108.872" y="11.4642" width="4.97566" height="4.97566" transform="rotate(-156.416 108.872 11.4642)" fill="white"/>
<path d="M35.0595 143.431L22.5194 137.957M31.0979 134.592L25.6233 147.132" stroke="#5C5C5C" stroke-width="1.24391"/>
<rect x="29.6226" y="143.449" width="4.97566" height="4.97566" transform="rotate(-156.416 29.6226 143.449)" fill="white"/>
<path fill-rule="evenodd" clip-rule="evenodd" d="M46 34C46 31.7909 47.7909 30 50 30H82.9631H82.9636H115.927C118.136 30 119.927 31.7909 119.927 34V87.6586C119.927 88.7631 120.822 89.6586 121.927 89.6586C123.031 89.6586 123.927 88.7631 123.927 87.6586V34C123.927 29.5817 120.345 26 115.927 26H82.9636H82.9631H50C45.5817 26 42 29.5817 42 34V87.6586V116.198C42 120.616 45.5817 124.198 50 124.198H82.9631H82.9636H119.492C120.596 124.198 121.492 123.302 121.492 122.198C121.492 121.093 120.596 120.198 119.492 120.198H82.9636H82.9631H50C47.7909 120.198 46 118.407 46 116.198V87.6586V34Z" fill="#009042"/>
</svg>
