<svg width="159" height="168" viewBox="0 0 159 168" fill="none" xmlns="http://www.w3.org/2000/svg">
<path d="M46.3896 114.145H74.676" stroke="#0A6DD7" stroke-width="4"/>
<path d="M46.3896 128.854H52.0469" stroke="#008290" stroke-width="4"/>
<path d="M56.5728 128.854H62.23" stroke="#008290" stroke-width="4"/>
<path d="M46.3896 105.699H85.9905" stroke="#0A6DD7" stroke-width="4"/>
<path d="M46.3896 97.2533H76.3896" stroke="#0A6DD7" stroke-width="4"/>
<path d="M137.728 161.984L126.949 155.761M135.045 153.591L128.822 164.37" stroke="#5C5C5C"/>
<rect x="132.812" y="161.447" width="4.52581" height="4.52581" transform="rotate(-150 132.812 161.447)" fill="white"/>
<path d="M3.24203 33.081L15.5469 31.2118M10.5775 37.9614L8.70832 25.6565" stroke="#5C5C5C"/>
<rect x="7.41724" y="30.4304" width="4.52581" height="4.52581" transform="rotate(-8.63748 7.41724 30.4304)" fill="white"/>
<path d="M145.805 40.9953L158.11 39.1261M153.14 45.8756L151.271 33.5708" stroke="#5C5C5C"/>
<rect x="149.98" y="38.3446" width="4.52581" height="4.52581" transform="rotate(-8.63748 149.98 38.3446)" fill="white"/>
<path d="M0.979086 148.483L13.2839 146.614M8.31455 153.364L6.44538 141.059" stroke="#5C5C5C"/>
<rect x="5.1543" y="145.833" width="4.52581" height="4.52581" transform="rotate(-8.63748 5.1543 145.833)" fill="white"/>
<path d="M123.72 160.281C111.261 162.723 98.9783 159.826 89.3849 153.174" stroke="#008290" stroke-dasharray="3 3"/>
<path d="M15.2469 25.664C23.454 15.9781 34.8571 10.5713 46.5041 9.77729" stroke="#008290" stroke-dasharray="3 3"/>
<path fill-rule="evenodd" clip-rule="evenodd" d="M88.6177 38.9282C90.486 36.9447 93.6025 36.8447 95.5889 38.7426L101.581 44.4676L106.665 39.61C108.251 38.0941 110.447 37.9101 112.151 38.7157C113.827 39.5079 115 41.2217 115 43.2454V127C115 129.533 113.009 132 110.058 132H39C36.2386 132 34 129.761 34 127V43.3386C34 38.9387 39.273 36.6839 42.4541 39.7235L47.4194 44.4676L53.3472 38.8037C55.3538 36.8864 58.538 36.9703 60.441 38.9905L65.3938 44.2487L70.7382 38.8735C72.6551 36.9455 75.7613 36.9026 77.7307 38.7769L83.5468 44.3117L88.6177 38.9282ZM92.3107 46.6752L87.2439 52.0544C85.3547 54.06 82.208 54.1299 80.2354 52.2041L74.3419 46.5954L68.8812 52.0875C66.889 54.0913 63.6333 54.0473 61.6959 51.9905L56.6893 46.6752L50.8735 52.232C48.9409 54.0785 45.8978 54.0785 43.9652 52.232L42 50.3543V124H107V50.3543L104.974 52.29C103.07 54.1095 100.091 54.1095 98.1872 52.29L92.3107 46.6752Z" fill="#0A6DD7"/>
<rect x="99" y="58" width="23" height="57" fill="white"/>
<path fill-rule="evenodd" clip-rule="evenodd" d="M106.458 67.1303C96.3845 67.1303 88.1304 75.5182 88.1304 85.9746C88.1304 96.431 96.3845 104.819 106.458 104.819C116.532 104.819 124.786 96.431 124.786 85.9746C124.786 75.5182 116.532 67.1303 106.458 67.1303Z" fill="white"/>
<path fill-rule="evenodd" clip-rule="evenodd" d="M106.542 67.1303C96.4676 67.1303 88.2135 75.5182 88.2135 85.9746C88.2135 96.431 96.4676 104.819 106.542 104.819C116.616 104.819 124.87 96.431 124.87 85.9746C124.87 75.5182 116.616 67.1303 106.542 67.1303ZM84.0833 85.9746C84.0833 73.3351 94.0898 63 106.542 63C118.993 63 129 73.3351 129 85.9746C129 98.6142 118.993 108.949 106.542 108.949C94.0898 108.949 84.0833 98.6142 84.0833 85.9746Z" fill="#0A6DD7"/>
<path d="M128.812 100.333C125.539 106.002 120.252 109.793 114.417 111.267" stroke="#008290" stroke-width="0.583333" stroke-dasharray="1.75 1.75"/>
<path fill-rule="evenodd" clip-rule="evenodd" d="M118 79.1934L104.013 97L96 86.8327L99.6296 83.6709L104.043 89.2716L114.396 76L118 79.1934Z" fill="#0A6DD7"/>
<path d="M81.9955 78.2973C81.9955 79.7995 81.4762 81.0698 80.4376 82.1084C79.4176 83.1284 78.036 83.7867 76.2927 84.0835V85.6691C76.2927 86.1698 76.1351 86.5685 75.8198 86.8653C75.5231 87.1805 75.1244 87.3382 74.6236 87.3382C74.1415 87.3382 73.7427 87.1805 73.4275 86.8653C73.1122 86.5685 72.9545 86.1698 72.9545 85.6691V84.1669C71.9345 84.0742 70.9424 83.8609 69.978 83.5271C69.0322 83.1933 68.1976 82.7667 67.4744 82.2475C67.1776 82.062 66.9644 81.858 66.8345 81.6355C66.7233 81.3944 66.6676 81.0976 66.6676 80.7453C66.6676 80.2816 66.8067 79.8736 67.0849 79.5213C67.3816 79.1689 67.7155 78.9927 68.0864 78.9927C68.4387 78.9927 68.8745 79.1411 69.3938 79.4378C70.2469 79.9385 71.0536 80.3095 71.814 80.5505C72.5929 80.7731 73.3996 80.8844 74.2342 80.8844C75.3469 80.8844 76.2 80.6804 76.7935 80.2724C77.3869 79.8458 77.6836 79.2524 77.6836 78.492C77.6836 78.0284 77.5075 77.6482 77.1551 77.3515C76.8213 77.0547 76.404 76.8229 75.9033 76.656C75.4025 76.4891 74.6793 76.2758 73.7335 76.0162C72.3611 75.6638 71.2298 75.3115 70.3396 74.9591C69.4495 74.6067 68.6798 74.0504 68.0307 73.29C67.4002 72.5296 67.0849 71.5096 67.0849 70.23C67.0849 68.7278 67.6135 67.4389 68.6705 66.3633C69.7462 65.2876 71.1464 64.6015 72.8711 64.3047V62.7191C72.8711 62.2184 73.0287 61.8196 73.344 61.5229C73.6593 61.2076 74.058 61.05 74.5402 61.05C75.0409 61.05 75.4396 61.2076 75.7364 61.5229C76.0516 61.8196 76.2093 62.2184 76.2093 62.7191V64.2491C77.8784 64.4716 79.4455 65.1022 80.9105 66.1407C81.1887 66.3262 81.3835 66.5395 81.4947 66.7805C81.6245 67.0216 81.6895 67.3091 81.6895 67.6429C81.6895 68.1065 81.5411 68.5145 81.2444 68.8669C80.9662 69.2193 80.6416 69.3955 80.2707 69.3955C80.0667 69.3955 79.872 69.3676 79.6865 69.312C79.5196 69.2564 79.2785 69.1358 78.9633 68.9504C78.2029 68.4682 77.5167 68.1065 76.9047 67.8655C76.3113 67.6244 75.5787 67.5038 74.7071 67.5038C73.7056 67.5038 72.8989 67.7264 72.2869 68.1715C71.6935 68.6165 71.3967 69.21 71.3967 69.9518C71.3967 70.4711 71.5729 70.8976 71.9253 71.2315C72.2776 71.5467 72.7227 71.7971 73.2605 71.9825C73.7984 72.168 74.5495 72.3813 75.5138 72.6224C76.8676 72.9562 77.9711 73.2993 78.8242 73.6516C79.6958 73.9855 80.4376 74.5325 81.0496 75.2929C81.6802 76.0347 81.9955 77.0362 81.9955 78.2973Z" fill="#0A6DD7"/>
</svg>
