<svg width="128" height="121" viewBox="0 0 128 121" fill="none" xmlns="http://www.w3.org/2000/svg">
<path fill-rule="evenodd" clip-rule="evenodd" d="M23.0805 70.3851C23.0805 52.4598 37.2304 38.0805 54.5 38.0805C60.3993 38.0805 65.9345 39.7584 70.6661 42.6825L75.3306 37.2539C69.335 33.2992 62.1895 31.0001 54.5 31.0001C33.1541 31.0001 16 48.7173 16 70.3851C16 92.0529 33.1541 109.77 54.5 109.77C75.8459 109.77 93 92.0529 93 70.3851C93 63.8326 91.4312 57.6413 88.6522 52.1921L83.5723 58.104C85.0844 61.8849 85.9195 66.0304 85.9195 70.3851C85.9195 88.3104 71.7696 102.69 54.5 102.69C37.2304 102.69 23.0805 88.3104 23.0805 70.3851Z" fill="#0A6DD7"/>
<path d="M9 68.3851C9 57.1647 13.6 47.0036 21 39.8136" stroke="#008290" stroke-dasharray="3 3"/>
<path d="M92.6781 95.0001C87.0679 104.717 78.0036 111.217 68 113.744" stroke="#008290" stroke-dasharray="3 3"/>
<path fill-rule="evenodd" clip-rule="evenodd" d="M89.6419 42.9875L52.6983 86.8272L36.1482 66.853L43.6448 60.6415L52.7614 71.6442L82.1971 36.7138L89.6419 42.9875Z" fill="#0A6DD7"/>
<path d="M102.619 97.9901L112.145 103.49M104.99 105.407L110.49 95.8811" stroke="#5C5C5C"/>
<rect x="106.964" y="98.4642" width="4" height="4" transform="rotate(30 106.964 98.4642)" fill="white"/>
<path d="M124.727 14.2805L115.201 8.78046M122.356 6.86318L116.856 16.3895" stroke="#5C5C5C"/>
<rect x="120.382" y="13.8063" width="4" height="4" transform="rotate(-150 120.382 13.8063)" fill="white"/>
<path d="M5.28771 81.9759L12.1481 73.3773M12.9758 80.7387L4.37721 73.8784" stroke="#5C5C5C"/>
<rect x="6.40515" y="77.7503" width="4" height="4" transform="rotate(-51.4155 6.40515 77.7503)" fill="white"/>
<path d="M112.346 12.776C101.335 14.9338 90.4788 12.3736 82 6.49439" stroke="#008290" stroke-dasharray="3 3"/>
</svg>
