<svg width="109" height="110" viewBox="0 0 109 110" fill="none" xmlns="http://www.w3.org/2000/svg">
<path fill-rule="evenodd" clip-rule="evenodd" d="M21.0805 58.3851C21.0805 40.4598 35.2304 26.0805 52.5 26.0805C58.3993 26.0805 63.9345 27.7584 68.6661 30.6824L73.3306 25.2538C67.335 21.2991 60.1895 19 52.5 19C31.1541 19 14 36.7173 14 58.3851C14 80.0529 31.1541 97.7701 52.5 97.7701C73.8459 97.7701 91 80.0529 91 58.3851C91 51.8325 89.4312 45.6413 86.6522 40.192L81.5723 46.104C83.0844 49.8848 83.9195 54.0303 83.9195 58.3851C83.9195 76.3104 69.7696 90.6897 52.5 90.6897C35.2304 90.6897 21.0805 76.3104 21.0805 58.3851Z" fill="#D80000"/>
<path d="M89 23.4909L101.65 8" stroke="#D80000" stroke-dasharray="3 3"/>
<path d="M1.00002 109.491L13.6504 94" stroke="#D80000" stroke-dasharray="3 3"/>
<path d="M67.0528 67.7329C67.7439 68.5182 68.0894 69.3821 68.0894 70.3246C68.0894 71.3926 67.6653 72.3351 66.8172 73.1518C66.0004 73.9372 65.0737 74.3298 64.037 74.3298C62.9375 74.3298 61.9794 73.8586 61.1626 72.9162L53.0578 63.2093L44.8116 72.9162C43.9948 73.8586 43.0524 74.3298 41.9843 74.3298C40.9477 74.3298 40.0052 73.9215 39.1571 73.1047C38.3403 72.2879 37.9319 71.3455 37.9319 70.2774C37.9319 69.3664 38.2618 68.5182 38.9215 67.7329L47.9687 57.272L39.1571 47.0467C38.466 46.2299 38.1204 45.3818 38.1204 44.5022C38.1204 43.4341 38.5288 42.5074 39.3455 41.722C40.1937 40.9053 41.1519 40.4969 42.2199 40.4969C43.3194 40.4969 44.2776 40.9681 45.0943 41.9105L53.0578 51.3347L60.9741 41.9105C61.7281 40.9681 62.6548 40.4969 63.7543 40.4969C64.8224 40.4969 65.7648 40.9053 66.5816 41.722C67.4297 42.5074 67.8538 43.4341 67.8538 44.5022C67.8538 45.4132 67.524 46.2614 66.8643 47.0467L58.0526 57.272L67.0528 67.7329Z" fill="#D80000"/>
<path d="M97.504 101.192L104.364 92.5935M105.192 99.9549L96.5935 93.0946" stroke="#5C5C5C"/>
<rect x="98.6215" y="96.9665" width="4" height="4" transform="rotate(-51.4155 98.6215 96.9665)" fill="white"/>
<path d="M11.504 12.1921L18.3644 3.5935M19.1921 10.9549L10.5935 4.09455" stroke="#5C5C5C"/>
<rect x="12.6215" y="7.96649" width="4" height="4" transform="rotate(-51.4155 12.6215 7.96649)" fill="white"/>
</svg>
