<svg width="44" height="44" viewBox="0 0 44 44" fill="none" xmlns="http://www.w3.org/2000/svg">
<circle cx="22" cy="22" r="22" fill="#0A6DD7"/>
<path d="M21.0625 33.5312C21.4844 34.1875 22.4688 34.1875 22.8906 33.5312C29.7344 23.6875 31 22.6562 31 19C31 14.0312 26.9688 10 22 10C16.9844 10 13 14.0312 13 19C13 22.6562 14.2188 23.6875 21.0625 33.5312ZM22 22.75C19.8906 22.75 18.25 21.1094 18.25 19C18.25 16.9375 19.8906 15.25 22 15.25C24.0625 15.25 25.75 16.9375 25.75 19C25.75 21.1094 24.0625 22.75 22 22.75Z" fill="white"/>
</svg>
