<svg width="252" height="193" viewBox="0 0 252 193" fill="none" xmlns="http://www.w3.org/2000/svg">
<path d="M220.812 111.815C199.54 118.889 172.27 118.888 135.181 50.33C95.2868 -23.4146 -7.73649 47.4655 0.462429 114.536C5.91662 159.153 41.9143 180.373 170.633 176.565C299.352 172.756 242.083 104.742 220.812 111.815Z" fill="#E2EDFC"/>
<path d="M42.6641 119.423C44.3555 119.635 47.8654 121.199 48.3728 125.766C48.3728 123.652 49.2609 119.423 52.813 119.423" stroke="#B6B6B6" stroke-width="2" stroke-linecap="round" stroke-linejoin="round"/>
<path d="M53.708 111.177C55.663 112.022 59.3355 115.069 58.3857 120.504C59.107 118.071 61.6138 113.522 65.8707 114.784" stroke="#B6B6B6" stroke-width="2" stroke-linecap="round" stroke-linejoin="round"/>
<path d="M63.6934 161.922H182.846" stroke="#0A6DD7" stroke-width="3" stroke-linecap="round" stroke-linejoin="round"/>
<path d="M50.9099 161.922V157.958M50.9099 146.064V153.993M50.9099 153.993L55.9843 149.87M50.9099 153.993V157.958M50.9099 157.958L46.4697 152.407" stroke="#0A6DD7" stroke-width="2" stroke-linecap="round" stroke-linejoin="round"/>
<path d="M146.944 160.653V148.284M146.944 111.177V135.915M146.944 135.915L163.182 123.052M146.944 135.915V148.284M146.944 148.284L132.735 130.968" stroke="#0A6DD7" stroke-width="2" stroke-linecap="round" stroke-linejoin="round"/>
<path d="M81.8987 78.5077V77.787C81.8987 76.8261 82.065 75.9761 82.3976 75.2369C82.7487 74.4793 83.1645 73.8695 83.6449 73.4075C84.1439 72.9456 84.6428 72.5021 85.1417 72.077C85.6407 71.652 86.0564 71.1716 86.389 70.6357C86.7401 70.0813 86.9157 69.4715 86.9157 68.8063C86.9157 67.9563 86.6016 67.2541 85.9733 66.6997C85.3635 66.1268 84.5134 65.8404 83.4232 65.8404C82.1851 65.8404 81.215 66.173 80.5128 66.8383C79.829 67.5035 79.4872 68.3813 79.4872 69.4715H77.2143C77.2143 67.7345 77.7779 66.3301 78.9051 65.2583C80.0323 64.1681 81.5383 63.623 83.4232 63.623C85.2526 63.623 86.6847 64.1219 87.7195 65.1197C88.7728 66.0991 89.2995 67.3465 89.2995 68.8617C89.2995 69.6009 89.1701 70.2754 88.9114 70.8852C88.6712 71.495 88.3663 71.9847 87.9967 72.3542C87.6271 72.7238 87.2206 73.1119 86.7771 73.5184C86.3521 73.9065 85.9548 74.276 85.5852 74.6271C85.2156 74.9782 84.9015 75.431 84.6428 75.9853C84.4026 76.5212 84.2825 77.1218 84.2825 77.787V78.5077H81.8987ZM84.3933 83.1921C84.0422 83.5617 83.5987 83.7465 83.0629 83.7465C82.527 83.7465 82.0742 83.5617 81.7047 83.1921C81.3351 82.804 81.1503 82.3605 81.1503 81.8616C81.1503 81.3627 81.3351 80.9284 81.7047 80.5588C82.0742 80.1708 82.527 79.9768 83.0629 79.9768C83.5987 79.9768 84.0422 80.1616 84.3933 80.5311C84.7629 80.9007 84.9477 81.3442 84.9477 81.8616C84.9477 82.3605 84.7629 82.804 84.3933 83.1921Z" fill="#0A6DD7"/>
<path d="M70.6701 45.4758H96.6767L111.9 60.6992V86.7058L96.6767 101.929H70.6701L55.4468 86.7058V60.6992L70.6701 45.4758Z" stroke="#0A6DD7" stroke-width="3"/>
<path d="M73.763 51.8191H94.2176L106.191 63.7925V84.2471L94.2176 96.2205H73.763L61.7896 84.2471V63.7925L73.763 51.8191Z" stroke="#0A6DD7" stroke-width="3"/>
<path d="M83.2594 40.635H84.528C85.4806 40.635 86.2805 41.2888 86.5034 42.1722H81.284C81.5069 41.2888 82.3068 40.635 83.2594 40.635Z" fill="#C4C4C4" stroke="#0A6DD7"/>
<path d="M80.7222 104.834V161.922" stroke="#0A6DD7" stroke-width="3" stroke-linecap="round" stroke-linejoin="round"/>
<path d="M85.7969 104.834V161.922" stroke="#0A6DD7" stroke-width="3" stroke-linecap="round" stroke-linejoin="round"/>
<path d="M26.8062 161.922H59.1558V156.848L62.3273 153.676" stroke="#0A6DD7" stroke-width="3" stroke-linecap="round" stroke-linejoin="round"/>
<path d="M91 160.75V121" stroke="#5C5C5C" stroke-dasharray="3 3"/>
<path d="M188 162H193" stroke="#0A6DD7" stroke-width="3" stroke-linecap="round"/>
<path d="M197 162H202" stroke="#0A6DD7" stroke-width="3" stroke-linecap="round"/>
<path d="M176.356 97.0262L186.981 94.1792M180.566 90.4753L183.413 101.101" stroke="#5C5C5C"/>
<rect width="4" height="4" transform="matrix(0.965926 -0.258819 -0.258819 -0.965926 180.676 97.6929)" fill="white"/>
<path d="M13.8653 34.3538L24.7406 32.7018M20.3486 38.6671L18.6966 27.7919" stroke="#5C5C5C"/>
<rect x="17.5552" y="32.0112" width="4" height="4" transform="rotate(-8.63748 17.5552 32.0112)" fill="white"/>
<path d="M191.865 140.349L202.741 138.697M198.349 144.662L196.697 133.787" stroke="#5C5C5C"/>
<rect x="195.555" y="138.006" width="4" height="4" transform="rotate(-8.63748 195.555 138.006)" fill="#E2EDFC"/>
<path d="M70.8653 187.349L81.7406 185.697M77.3486 191.662L75.6966 180.787" stroke="#5C5C5C"/>
<rect x="74.5552" y="185.006" width="4" height="4" transform="rotate(-8.63748 74.5552 185.006)" fill="white"/>
<path d="M188.704 88.1496C198.781 92.8102 209.93 93.1284 219.642 89.8371" stroke="#5C5C5C" stroke-dasharray="3 3"/>
<path d="M24.4754 21.1042C31.729 13.018 41.8073 8.50418 52.1012 7.84129" stroke="#5C5C5C" stroke-dasharray="3 3"/>
</svg>
