<svg width="38" height="40" viewBox="0 0 38 40" fill="none" xmlns="http://www.w3.org/2000/svg">
<path fill-rule="evenodd" clip-rule="evenodd" d="M4.72572 4.30307C4.13505 4.30307 3.65622 4.7819 3.65622 5.37257V14.0154C3.65622 18.6053 7.37709 22.3262 11.967 22.3262V25.3262C5.87673 25.3262 0.910688 20.5127 0.665693 14.4826H0.656219V14.0154V5.37257V5.13898H0.662811C0.779477 3.07745 2.43062 1.42631 4.49216 1.30966V1.30307H4.72572H7.99601V4.30307H4.72572Z" fill="#008290"/>
<circle cx="7.4996" cy="2.89068" r="2.89068" fill="#008290"/>
<path fill-rule="evenodd" clip-rule="evenodd" d="M21.8362 4.30307C22.4269 4.30307 22.9057 4.7819 22.9057 5.37257V14.0154C22.9057 18.6053 19.1848 22.3262 14.5949 22.3262V25.3262C20.6852 25.3262 25.6513 20.5127 25.8963 14.4826H25.9057V14.0154V5.37257V5.13898H25.8991C25.7825 3.07745 24.1313 1.42631 22.0698 1.30966V1.30307H21.8362H18.5659V4.30307H21.8362Z" fill="#008290"/>
<circle r="2.89068" transform="matrix(-1 0 0 1 19.0624 2.89068)" fill="#008290"/>
<path fill-rule="evenodd" clip-rule="evenodd" d="M15.0542 27.3301H15.1205V26.8045V24.1877C15.1205 24.184 15.1205 24.1803 15.1205 24.1766C15.1205 24.1729 15.1205 24.1692 15.1205 24.1655V23.6511H15.0543C14.8209 22.7443 13.9978 22.0743 13.0182 22.0743C12.0386 22.0743 11.2155 22.7443 10.9821 23.6511H10.9159V26.8045V27.3301H10.9821C11.2155 28.2369 12.0386 28.9068 13.0182 28.9068C13.9978 28.9068 14.8209 28.2369 15.0542 27.3301Z" fill="#008290"/>
<path fill-rule="evenodd" clip-rule="evenodd" d="M34.75 28.1184C34.6104 34.3406 29.5227 39.3416 23.267 39.3416C16.9235 39.3416 11.781 34.1992 11.781 27.8556H14.781C14.781 32.5423 18.5803 36.3416 23.267 36.3416C27.9537 36.3416 31.753 32.5423 31.753 27.8556H31.753V25.2278H34.753V28.1184H34.75Z" fill="#008290"/>
<circle cx="32.7274" cy="21.286" r="3.493" stroke="#008290" stroke-width="3"/>
</svg>
