<svg width="38" height="40" viewBox="0 0 38 40" fill="none" xmlns="http://www.w3.org/2000/svg">
<path fill-rule="evenodd" clip-rule="evenodd" d="M4.5695 4.30305C3.97883 4.30305 3.5 4.78188 3.5 5.37255V14.0154C3.5 18.6053 7.22087 22.3262 11.8108 22.3262V25.3262C5.72051 25.3262 0.754461 20.5127 0.509473 14.4826H0.5V14.0154V5.37255V5.13895H0.506593C0.623264 3.07743 2.2744 1.42631 4.33592 1.30965V1.30305H4.5695H7.83978V4.30305H4.5695Z" fill="#0A6DD7"/>
<circle cx="7.3434" cy="2.89068" r="2.89068" fill="#0A6DD7"/>
<path fill-rule="evenodd" clip-rule="evenodd" d="M21.68 4.30305C22.2707 4.30305 22.7495 4.78188 22.7495 5.37255V14.0154C22.7495 18.6053 19.0287 22.3262 14.4387 22.3262V25.3262C20.529 25.3262 25.4951 20.5127 25.7401 14.4826H25.7495V14.0154V5.37255V5.13895H25.7429C25.6263 3.07743 23.9751 1.42631 21.9136 1.30965V1.30305H21.68H18.4098V4.30305H21.68Z" fill="#0A6DD7"/>
<circle r="2.89068" transform="matrix(-1 0 0 1 18.9061 2.89068)" fill="#0A6DD7"/>
<path fill-rule="evenodd" clip-rule="evenodd" d="M14.8981 27.3301H14.9643V26.8045V23.6511H14.8981C14.6647 22.7443 13.8416 22.0743 12.862 22.0743C11.8824 22.0743 11.0593 22.7443 10.8259 23.6511H10.7597V24.1766V26.8045V27.3301H10.8259C11.0593 28.2368 11.8824 28.9068 12.862 28.9068C13.8416 28.9068 14.6647 28.2368 14.8981 27.3301Z" fill="#0A6DD7"/>
<path fill-rule="evenodd" clip-rule="evenodd" d="M34.5938 28.1184C34.4541 34.3406 29.3665 39.3416 23.1108 39.3416C16.7672 39.3416 11.6248 34.1992 11.6248 27.8556H14.6248C14.6248 32.5423 18.4241 36.3416 23.1108 36.3416C27.7955 36.3416 31.5936 32.5454 31.5968 27.8614C31.5968 27.8595 31.5968 27.8576 31.5968 27.8556L31.5968 25.2278H34.5968L34.5968 27.8556C34.5968 27.8579 34.5968 27.8601 34.5968 27.8623V28.1184H34.5938Z" fill="#0A6DD7"/>
<circle cx="32.5712" cy="21.2859" r="3.493" stroke="#0A6DD7" stroke-width="3"/>
</svg>
