<svg width="28" height="33" viewBox="0 0 28 33" fill="none" xmlns="http://www.w3.org/2000/svg">
<path d="M3.61125 18.5625H8.75875C10.1656 19.8309 11.985 20.625 14 20.625C16.015 20.625 17.8344 19.8309 19.2412 18.5625H24.3888C24.5593 18.5623 24.7269 18.5171 24.8757 18.4313C25.0245 18.3455 25.1496 18.2219 25.239 18.0721C25.3284 17.9224 25.3793 17.7516 25.3867 17.576C25.394 17.4003 25.3578 17.2256 25.2812 17.0685C24.3294 15.1446 23.3263 13.0576 22.6469 10.9106C22.1737 9.41596 22 7.83686 22 6.26484V3.09375L14 0L6 3.09375V6.26484C6 7.83686 5.82812 9.41596 5.35437 10.9106C4.67375 13.0576 3.67062 15.1465 2.71875 17.0685C2.64224 17.2256 2.60595 17.4003 2.61335 17.576C2.62074 17.7516 2.67157 17.9224 2.761 18.0721C2.85043 18.2219 2.9755 18.3455 3.12431 18.4313C3.27312 18.5171 3.44075 18.5623 3.61125 18.5625ZM11.5 4.61936C11.5 4.53389 11.5329 4.45192 11.5915 4.39148C11.6501 4.33104 11.7296 4.29709 11.8125 4.29709H13.1669V2.90039C13.1669 2.81492 13.1998 2.73295 13.2584 2.67251C13.317 2.61208 13.3965 2.57812 13.4794 2.57812H14.5206C14.6035 2.57812 14.683 2.61208 14.7416 2.67251C14.8002 2.73295 14.8331 2.81492 14.8331 2.90039V4.29709H16.1875C16.2704 4.29709 16.3499 4.33104 16.4085 4.39148C16.4671 4.45192 16.5 4.53389 16.5 4.61936V5.69314C16.5 5.77861 16.4671 5.86058 16.4085 5.92102C16.3499 5.98146 16.2704 6.01541 16.1875 6.01541H14.8331V7.41211C14.8331 7.49758 14.8002 7.57955 14.7416 7.63999C14.683 7.70042 14.6035 7.73438 14.5206 7.73438H13.4794C13.3965 7.73438 13.317 7.70042 13.2584 7.63999C13.1998 7.57955 13.1669 7.49758 13.1669 7.41211V6.01541H11.8125C11.7296 6.01541 11.6501 5.98146 11.5915 5.92102C11.5329 5.86058 11.5 5.77861 11.5 5.69314V4.61936ZM9 10.3125H19V12.375C19 13.7425 18.4732 15.054 17.5355 16.021C16.5979 16.988 15.3261 17.5312 14 17.5312C12.6739 17.5312 11.4021 16.988 10.4645 16.021C9.52678 15.054 9 13.7425 9 12.375V10.3125ZM19.9631 20.625L14 26.7732L8.03687 20.625C3.56875 20.8248 0 24.5953 0 29.2482C0 30.2432 0.383301 31.1975 1.06558 31.9011C1.74786 32.6047 2.67323 33 3.63812 33H24.3619C25.3268 33 26.2521 32.6047 26.9344 31.9011C27.6167 31.1975 28 30.2432 28 29.2482C28 24.5953 24.4312 20.8248 19.9631 20.625Z" fill="#0A6DD7"/>
</svg>
