<svg width="29" height="22" viewBox="0 0 29 22" fill="none" xmlns="http://www.w3.org/2000/svg">
<path d="M25.9375 17.1406C27.2031 15.875 28 14.2812 28 12.5C28 8.75 24.3906 5.65625 19.7031 5.14062C18.25 2.42188 14.7812 0.5 10.75 0.5C5.35938 0.5 1 3.875 1 8C1 9.73438 1.75 11.3281 3.0625 12.6406C2.3125 14.0469 1.28125 15.1719 1.28125 15.2188C1 15.5 0.90625 15.9688 1.04688 16.3906C1.23438 16.7656 1.60938 17.0469 2.07812 17.0469C4.5625 17.0469 6.57812 16.0625 7.9375 15.2188C8.35938 15.3125 8.82812 15.3594 9.25 15.4531C10.75 18.125 14.1719 20 18.25 20C19.1875 20 20.125 19.9062 21.0156 19.7188C22.375 20.5625 24.3906 21.5 26.9219 21.5C27.3438 21.5 27.7188 21.2656 27.9062 20.8438C28.0469 20.4688 28 20 27.6719 19.6719C27.6719 19.6719 26.6406 18.5469 25.9375 17.1406ZM7.51562 12.7812L6.71875 13.2969C6.0625 13.7656 5.35938 14.0938 4.70312 14.3281C4.79688 14.0938 4.9375 13.8594 5.07812 13.625L5.78125 12.1719L4.60938 11C4 10.3906 3.25 9.35938 3.25 8C3.25 5.1875 6.67188 2.75 10.75 2.75C14.7812 2.75 18.25 5.1875 18.25 8C18.25 10.8594 14.7812 13.25 10.75 13.25C9.95312 13.25 9.20312 13.2031 8.45312 13.0156L7.51562 12.7812ZM24.3438 15.5L23.1719 16.6719L23.9219 18.125C24.0156 18.3594 24.1562 18.5938 24.2969 18.8281C23.5938 18.5938 22.9375 18.2188 22.2812 17.7969L21.4375 17.2812L20.5469 17.5156C19.7969 17.7031 19 17.75 18.25 17.75C15.7188 17.75 13.4219 16.8125 12.0625 15.4531C16.8438 14.9375 20.5 11.7969 20.5 8C20.5 7.85938 20.4531 7.71875 20.4531 7.53125C23.4531 8.23438 25.75 10.2031 25.75 12.5C25.75 13.8594 24.9531 14.8906 24.3438 15.5Z" fill="white"/>
<path d="M25.9375 17.1406L25.7607 16.9638L25.6333 17.0913L25.7139 17.2524L25.9375 17.1406ZM19.7031 5.14062L19.4826 5.25847L19.5448 5.37471L19.6758 5.38913L19.7031 5.14062ZM3.0625 12.6406L3.28309 12.7583L3.37026 12.5948L3.23928 12.4638L3.0625 12.6406ZM1.28125 15.2188L1.45803 15.3955L1.53125 15.3223V15.2188H1.28125ZM1.04688 16.3906L0.809704 16.4697L0.815323 16.4865L0.823268 16.5024L1.04688 16.3906ZM7.9375 15.2188L7.99173 14.9747L7.89225 14.9526L7.80566 15.0063L7.9375 15.2188ZM9.25 15.4531L9.468 15.3307L9.4133 15.2333L9.30423 15.2091L9.25 15.4531ZM21.0156 19.7188L21.1475 19.5063L21.0623 19.4535L20.9641 19.4741L21.0156 19.7188ZM27.9062 20.8438L28.1347 20.9453L28.1377 20.9385L28.1403 20.9315L27.9062 20.8438ZM27.6719 19.6719L27.4874 19.841L27.4951 19.8487L27.6719 19.6719ZM7.51562 12.7812L7.57626 12.5387L7.47095 12.5124L7.37981 12.5714L7.51562 12.7812ZM6.71875 13.2969L6.58279 13.0868L6.57344 13.0934L6.71875 13.2969ZM4.70312 14.3281L4.47101 14.2353L4.26511 14.75L4.78721 14.5636L4.70312 14.3281ZM5.07812 13.625L5.2925 13.7536L5.29827 13.744L5.30316 13.7339L5.07812 13.625ZM5.78125 12.1719L6.00629 12.2808L6.0837 12.1208L5.95803 11.9951L5.78125 12.1719ZM23.1719 16.6719L22.9951 16.4951L22.866 16.6242L22.9497 16.7865L23.1719 16.6719ZM23.9219 18.125L24.154 18.0322L24.1495 18.021L24.144 18.0103L23.9219 18.125ZM24.2969 18.8281L24.2178 19.0653L24.859 19.279L24.5112 18.6995L24.2969 18.8281ZM22.2812 17.7969L22.4165 17.5865L22.4116 17.5836L22.2812 17.7969ZM21.4375 17.2812L21.5679 17.0679L21.4769 17.0124L21.3739 17.0395L21.4375 17.2812ZM20.5469 17.5156L20.6075 17.7582L20.6105 17.7574L20.5469 17.5156ZM12.0625 15.4531L12.0357 15.2046L11.5164 15.2606L11.8857 15.6299L12.0625 15.4531ZM20.4531 7.53125L20.5102 7.28785L20.2031 7.21588V7.53125H20.4531ZM26.1143 17.3174C27.4168 16.0148 28.25 14.3604 28.25 12.5H27.75C27.75 14.2021 26.9894 15.7352 25.7607 16.9638L26.1143 17.3174ZM28.25 12.5C28.25 8.57264 24.488 5.41546 19.7305 4.89212L19.6758 5.38913C24.2932 5.89704 27.75 8.92736 27.75 12.5H28.25ZM19.9236 5.02278C18.4176 2.20503 14.8516 0.25 10.75 0.25V0.75C14.7109 0.75 18.0824 2.63872 19.4826 5.25847L19.9236 5.02278ZM10.75 0.25C8.00406 0.25 5.51181 1.10933 3.7009 2.50512C1.88987 3.90099 0.75 5.8438 0.75 8H1.25C1.25 6.0312 2.28982 4.22401 4.00613 2.90113C5.72257 1.57817 8.10531 0.75 10.75 0.75V0.25ZM0.75 8C0.75 9.81147 1.53457 11.4662 2.88572 12.8174L3.23928 12.4638C1.96543 11.19 1.25 9.65728 1.25 8H0.75ZM2.84191 12.523C2.47558 13.2098 2.03889 13.8309 1.69154 14.2882C1.51815 14.5165 1.36777 14.7031 1.25972 14.8367C1.2064 14.9026 1.16133 14.9582 1.12997 14.9983C1.11458 15.0181 1.09953 15.0378 1.08757 15.0551C1.08191 15.0632 1.07362 15.0756 1.0658 15.0896C1.06196 15.0965 1.05563 15.1084 1.04964 15.1235C1.0458 15.1332 1.03125 15.1698 1.03125 15.2188H1.53125C1.53125 15.2662 1.5172 15.3009 1.51436 15.308C1.50936 15.3206 1.50453 15.3295 1.50267 15.3328C1.49879 15.3398 1.49639 15.343 1.49846 15.34C1.50198 15.3349 1.50981 15.3243 1.52408 15.306C1.55205 15.2702 1.59341 15.2192 1.64849 15.1511C1.75723 15.0166 1.91154 14.8253 2.08971 14.5907C2.44549 14.1222 2.89942 13.4777 3.28309 12.7583L2.84191 12.523ZM1.10447 15.042C0.746993 15.3995 0.643519 15.9711 0.809704 16.4697L1.28405 16.3116C1.16898 15.9664 1.25301 15.6005 1.45803 15.3955L1.10447 15.042ZM0.823268 16.5024C1.04692 16.9497 1.50157 17.2969 2.07812 17.2969V16.7969C1.71718 16.7969 1.42183 16.5815 1.27048 16.2788L0.823268 16.5024ZM2.07812 17.2969C4.62911 17.2969 6.69179 16.2862 8.06934 15.4312L7.80566 15.0063C6.46446 15.8388 4.49589 16.7969 2.07812 16.7969V17.2969ZM7.88327 15.4628C8.10312 15.5117 8.33363 15.548 8.55476 15.5829C8.77894 15.6183 8.99375 15.6523 9.19577 15.6972L9.30423 15.2091C9.08438 15.1602 8.85387 15.1239 8.63274 15.089C8.40856 15.0536 8.19375 15.0196 7.99173 14.9747L7.88327 15.4628ZM9.032 15.5755C10.5857 18.3431 14.1027 20.25 18.25 20.25V19.75C14.2411 19.75 10.9143 17.9069 9.468 15.3307L9.032 15.5755ZM18.25 20.25C19.2038 20.25 20.1587 20.1546 21.0671 19.9634L20.9641 19.4741C20.0913 19.6579 19.1712 19.75 18.25 19.75V20.25ZM20.8838 19.9312C22.2657 20.7889 24.3274 21.75 26.9219 21.75V21.25C24.4538 21.25 22.4843 20.3361 21.1475 19.5063L20.8838 19.9312ZM26.9219 21.75C27.444 21.75 27.9077 21.4561 28.1347 20.9453L27.6778 20.7422C27.5298 21.0752 27.2435 21.25 26.9219 21.25V21.75ZM28.1403 20.9315C28.3091 20.4814 28.2579 19.9043 27.8487 19.4951L27.4951 19.8487C27.7421 20.0957 27.7846 20.4561 27.6722 20.756L28.1403 20.9315ZM27.6719 19.6719C27.8562 19.5029 27.8562 19.503 27.8562 19.503L27.8562 19.503C27.8562 19.503 27.8562 19.503 27.8562 19.5029C27.8561 19.5029 27.856 19.5027 27.8558 19.5025C27.8554 19.5021 27.8548 19.5014 27.8539 19.5005C27.8522 19.4986 27.8495 19.4957 27.8459 19.4917C27.8387 19.4837 27.8279 19.4715 27.8136 19.4554C27.7852 19.4231 27.7433 19.375 27.6907 19.3128C27.5855 19.1882 27.4375 19.0072 27.2677 18.7828C26.9275 18.333 26.5035 17.7136 26.1611 17.0288L25.7139 17.2524C26.0746 17.9739 26.5178 18.6202 26.869 19.0844C27.0449 19.317 27.1987 19.5051 27.3088 19.6355C27.3639 19.7006 27.4081 19.7514 27.4387 19.7862C27.4541 19.8036 27.466 19.817 27.4743 19.8261C27.4784 19.8307 27.4816 19.8343 27.4839 19.8367C27.485 19.8379 27.4858 19.8389 27.4865 19.8396C27.4868 19.8399 27.487 19.8402 27.4872 19.8404C27.4873 19.8405 27.4874 19.8406 27.4874 19.8407C27.4875 19.8407 27.4875 19.8407 27.4875 19.8407C27.4876 19.8408 27.4876 19.8408 27.6719 19.6719ZM7.37981 12.5714L6.58294 13.087L6.85456 13.5068L7.65144 12.9911L7.37981 12.5714ZM6.57344 13.0934C5.94063 13.5455 5.25957 13.8639 4.61904 14.0927L4.78721 14.5636C5.45918 14.3236 6.18437 13.9858 6.86406 13.5003L6.57344 13.0934ZM4.93524 14.421C5.02017 14.2087 5.14952 13.9919 5.2925 13.7536L4.86375 13.4964C4.72548 13.7268 4.57358 13.9788 4.47101 14.2353L4.93524 14.421ZM5.30316 13.7339L6.00629 12.2808L5.55621 12.063L4.85309 13.5161L5.30316 13.7339ZM5.95803 11.9951L4.78615 10.8232L4.4326 11.1768L5.60447 12.3487L5.95803 11.9951ZM4.78615 10.8232C4.19843 10.2355 3.5 9.26434 3.5 8H3C3 9.45441 3.80157 10.5457 4.4326 11.1768L4.78615 10.8232ZM3.5 8C3.5 6.70073 4.29174 5.45586 5.6146 4.52475C6.93464 3.59562 8.75857 3 10.75 3V2.5C8.66331 2.5 6.73724 3.12313 5.32681 4.11588C3.9192 5.10664 3 6.48677 3 8H3.5ZM10.75 3C12.7176 3 14.5418 3.59539 15.8682 4.52504C17.1979 5.45694 18 6.70196 18 8H18.5C18.5 6.48554 17.5677 5.10556 16.1552 4.11559C14.7395 3.12336 12.8137 2.5 10.75 2.5V3ZM18 8C18 9.32216 17.1971 10.5668 15.8688 11.4921C14.5429 12.4157 12.7186 13 10.75 13V13.5C12.8126 13.5 14.7383 12.889 16.1546 11.9024C17.5685 10.9175 18.5 9.53721 18.5 8H18ZM10.75 13C9.96208 13 9.23524 12.9535 8.51376 12.7731L8.39249 13.2582C9.17101 13.4528 9.94417 13.5 10.75 13.5V13ZM8.51376 12.7731L7.57626 12.5387L7.45499 13.0238L8.39249 13.2582L8.51376 12.7731ZM24.167 15.3232L22.9951 16.4951L23.3487 16.8487L24.5205 15.6768L24.167 15.3232ZM22.9497 16.7865L23.6997 18.2397L24.144 18.0103L23.394 16.5572L22.9497 16.7865ZM23.6898 18.2178C23.7923 18.4743 23.9442 18.7263 24.0825 18.9567L24.5112 18.6995C24.3683 18.4612 24.2389 18.2445 24.154 18.0322L23.6898 18.2178ZM24.3759 18.591C23.7028 18.3666 23.0675 18.0051 22.4164 17.5866L22.1461 18.0072C22.8075 18.4324 23.4847 18.8209 24.2178 19.0653L24.3759 18.591ZM22.4116 17.5836L21.5679 17.0679L21.3071 17.4946L22.1509 18.0102L22.4116 17.5836ZM21.3739 17.0395L20.4833 17.2739L20.6105 17.7574L21.5011 17.523L21.3739 17.0395ZM20.4862 17.2731C19.7651 17.4534 18.9916 17.5 18.25 17.5V18C19.0084 18 19.8286 17.9529 20.6075 17.7582L20.4862 17.2731ZM18.25 17.5C15.7744 17.5 13.5448 16.5818 12.2393 15.2763L11.8857 15.6299C13.299 17.0432 15.6631 18 18.25 18V17.5ZM12.0893 15.7017C16.9408 15.1785 20.75 11.9745 20.75 8H20.25C20.25 11.6192 16.7467 14.6965 12.0357 15.2046L12.0893 15.7017ZM20.75 8C20.75 7.90628 20.7343 7.81443 20.7237 7.74519C20.7122 7.6704 20.7031 7.60451 20.7031 7.53125H20.2031C20.2031 7.64549 20.2175 7.74366 20.2295 7.82122C20.2423 7.90432 20.25 7.9531 20.25 8H20.75ZM20.3961 7.77465C21.8617 8.11815 23.1453 8.76879 24.0579 9.60254C24.9704 10.4361 25.5 11.4399 25.5 12.5H26C26 11.2632 25.3812 10.1342 24.3952 9.2334C23.4094 8.33277 22.0446 7.64747 20.5102 7.28785L20.3961 7.77465ZM25.5 12.5C25.5 13.7594 24.7604 14.7298 24.167 15.3232L24.5205 15.6768C25.1459 15.0514 26 13.9594 26 12.5H25.5Z" fill="#5C5286"/>
</svg>
