<svg width="32" height="35" viewBox="0 0 32 35" fill="none" xmlns="http://www.w3.org/2000/svg">
<path d="M16 17.5C20.8922 17.5 24.8571 13.583 24.8571 8.75C24.8571 3.91699 20.8922 0 16 0C11.1078 0 7.14286 3.91699 7.14286 8.75C7.14286 13.583 11.1078 17.5 16 17.5ZM7.69643 28.9844C7.69643 29.8936 8.43683 30.625 9.35714 30.625C10.2775 30.625 11.0179 29.8936 11.0179 28.9844C11.0179 28.0752 10.2775 27.3438 9.35714 27.3438C8.43683 27.3438 7.69643 28.0752 7.69643 28.9844ZM22.6429 19.7285V23.0781C25.1685 23.584 27.0714 25.7988 27.0714 28.4375V31.2881C27.0714 31.8076 26.6978 32.2588 26.1788 32.3613L23.9507 32.7988C23.6531 32.8604 23.3625 32.6689 23.3002 32.3682L23.0857 31.2949C23.0234 31.001 23.2172 30.707 23.5217 30.6523L24.8571 30.3857V28.4375C24.8571 24.1445 18.2143 23.9873 18.2143 28.5674V30.3926L19.5498 30.6592C19.8473 30.7207 20.0411 31.0078 19.9857 31.3018L19.7712 32.375C19.7089 32.6689 19.4183 32.8604 19.1208 32.8057L16.9618 32.5186C16.4152 32.4434 16.0069 31.9854 16.0069 31.4316V28.4375C16.0069 25.7988 17.9098 23.5908 20.4355 23.0781V19.9883C20.2833 20.0361 20.131 20.0635 19.9788 20.1182C18.7333 20.5488 17.3978 20.7881 16.0069 20.7881C14.6161 20.7881 13.2806 20.5488 12.035 20.1182C11.523 19.9404 11.004 19.8311 10.4712 19.7627V25.3408C12.0696 25.8125 13.2391 27.2617 13.2391 28.9912C13.2391 31.1035 11.5022 32.8193 9.36406 32.8193C7.22589 32.8193 5.48906 31.1035 5.48906 28.9912C5.48906 27.2617 6.65848 25.8125 8.25692 25.3408V19.8447C3.85603 20.5762 0.5 24.3223 0.5 28.875V31.9375C0.5 33.626 1.89085 35 3.6 35H28.4C30.1092 35 31.5 33.626 31.5 31.9375V28.875C31.5 23.9531 27.5696 19.9678 22.6429 19.7285Z" fill="#008290"/>
</svg>
