<svg width="30" height="39" viewBox="0 0 30 39" fill="none" xmlns="http://www.w3.org/2000/svg">
<path d="M25.875 4.875H19.8333C19.8333 2.18613 17.6659 0 15 0C12.3341 0 10.1667 2.18613 10.1667 4.875H4.125C2.1237 4.875 0.5 6.5127 0.5 8.53125V35.3438C0.5 37.3623 2.1237 39 4.125 39H25.875C27.8763 39 29.5 37.3623 29.5 35.3438V8.53125C29.5 6.5127 27.8763 4.875 25.875 4.875ZM7.75 32.2969C6.74557 32.2969 5.9375 31.4818 5.9375 30.4688C5.9375 29.4557 6.74557 28.6406 7.75 28.6406C8.75443 28.6406 9.5625 29.4557 9.5625 30.4688C9.5625 31.4818 8.75443 32.2969 7.75 32.2969ZM7.75 24.9844C6.74557 24.9844 5.9375 24.1693 5.9375 23.1562C5.9375 22.1432 6.74557 21.3281 7.75 21.3281C8.75443 21.3281 9.5625 22.1432 9.5625 23.1562C9.5625 24.1693 8.75443 24.9844 7.75 24.9844ZM7.75 17.6719C6.74557 17.6719 5.9375 16.8568 5.9375 15.8438C5.9375 14.8307 6.74557 14.0156 7.75 14.0156C8.75443 14.0156 9.5625 14.8307 9.5625 15.8438C9.5625 16.8568 8.75443 17.6719 7.75 17.6719ZM15 3.04688C16.0044 3.04688 16.8125 3.86191 16.8125 4.875C16.8125 5.88809 16.0044 6.70312 15 6.70312C13.9956 6.70312 13.1875 5.88809 13.1875 4.875C13.1875 3.86191 13.9956 3.04688 15 3.04688ZM24.6667 31.0781C24.6667 31.4133 24.3948 31.6875 24.0625 31.6875H13.1875C12.8552 31.6875 12.5833 31.4133 12.5833 31.0781V29.8594C12.5833 29.5242 12.8552 29.25 13.1875 29.25H24.0625C24.3948 29.25 24.6667 29.5242 24.6667 29.8594V31.0781ZM24.6667 23.7656C24.6667 24.1008 24.3948 24.375 24.0625 24.375H13.1875C12.8552 24.375 12.5833 24.1008 12.5833 23.7656V22.5469C12.5833 22.2117 12.8552 21.9375 13.1875 21.9375H24.0625C24.3948 21.9375 24.6667 22.2117 24.6667 22.5469V23.7656ZM24.6667 16.4531C24.6667 16.7883 24.3948 17.0625 24.0625 17.0625H13.1875C12.8552 17.0625 12.5833 16.7883 12.5833 16.4531V15.2344C12.5833 14.8992 12.8552 14.625 13.1875 14.625H24.0625C24.3948 14.625 24.6667 14.8992 24.6667 15.2344V16.4531Z" fill="#0A6DD7"/>
</svg>
