<svg width="30" height="39" viewBox="0 0 30 39" fill="none" xmlns="http://www.w3.org/2000/svg">
<path d="M26.3125 4.875H20.2708C20.2708 2.18613 18.1034 0 15.4375 0C12.7716 0 10.6041 2.18613 10.6041 4.875H4.56248C2.56118 4.875 0.937477 6.5127 0.937477 8.53125V35.3438C0.937477 37.3623 2.56118 39 4.56248 39H26.3125C28.3138 39 29.9375 37.3623 29.9375 35.3438V8.53125C29.9375 6.5127 28.3138 4.875 26.3125 4.875ZM8.18748 32.2969C7.18305 32.2969 6.37498 31.4818 6.37498 30.4688C6.37498 29.4557 7.18305 28.6406 8.18748 28.6406C9.1919 28.6406 9.99998 29.4557 9.99998 30.4688C9.99998 31.4818 9.1919 32.2969 8.18748 32.2969ZM8.18748 24.9844C7.18305 24.9844 6.37498 24.1693 6.37498 23.1562C6.37498 22.1432 7.18305 21.3281 8.18748 21.3281C9.1919 21.3281 9.99998 22.1432 9.99998 23.1562C9.99998 24.1693 9.1919 24.9844 8.18748 24.9844ZM8.18748 17.6719C7.18305 17.6719 6.37498 16.8568 6.37498 15.8438C6.37498 14.8307 7.18305 14.0156 8.18748 14.0156C9.1919 14.0156 9.99998 14.8307 9.99998 15.8438C9.99998 16.8568 9.1919 17.6719 8.18748 17.6719ZM15.4375 3.04688C16.4419 3.04688 17.25 3.86191 17.25 4.875C17.25 5.88809 16.4419 6.70312 15.4375 6.70312C14.4331 6.70312 13.625 5.88809 13.625 4.875C13.625 3.86191 14.4331 3.04688 15.4375 3.04688ZM25.1041 31.0781C25.1041 31.4133 24.8323 31.6875 24.5 31.6875H13.625C13.2927 31.6875 13.0208 31.4133 13.0208 31.0781V29.8594C13.0208 29.5242 13.2927 29.25 13.625 29.25H24.5C24.8323 29.25 25.1041 29.5242 25.1041 29.8594V31.0781ZM25.1041 23.7656C25.1041 24.1008 24.8323 24.375 24.5 24.375H13.625C13.2927 24.375 13.0208 24.1008 13.0208 23.7656V22.5469C13.0208 22.2117 13.2927 21.9375 13.625 21.9375H24.5C24.8323 21.9375 25.1041 22.2117 25.1041 22.5469V23.7656ZM25.1041 16.4531C25.1041 16.7883 24.8323 17.0625 24.5 17.0625H13.625C13.2927 17.0625 13.0208 16.7883 13.0208 16.4531V15.2344C13.0208 14.8992 13.2927 14.625 13.625 14.625H24.5C24.8323 14.625 25.1041 14.8992 25.1041 15.2344V16.4531Z" fill="#008290"/>
</svg>
