<svg width="30" height="29" viewBox="0 0 30 29" fill="none" xmlns="http://www.w3.org/2000/svg">
<path d="M28.5938 7.25H28.125V4.53125C28.125 1.99375 22.3125 0 15 0C7.6875 0 1.875 1.99375 1.875 4.53125V7.25H1.40625C0.629883 7.25 0 7.85832 0 8.60938V13.1406C0 13.8911 0.629883 14.5 1.40625 14.5H1.875V23.5625C1.875 24.5633 2.71465 25.375 3.75 25.375V27.1875C3.75 28.1883 4.58965 29 5.625 29H7.5C8.53535 29 9.375 28.1883 9.375 27.1875V25.375H20.625V27.1875C20.625 28.1883 21.4646 29 22.5 29H24.375C25.4104 29 26.25 28.1883 26.25 27.1875V25.375H26.625C27.5625 25.375 28.125 24.65 28.125 23.925V14.5H28.5938C29.3701 14.5 30 13.8911 30 13.1406V8.60938C30 7.85832 29.3701 7.25 28.5938 7.25ZM6.5625 22.6562C5.52715 22.6562 4.6875 21.8446 4.6875 20.8438C4.6875 19.8429 5.52715 19.0312 6.5625 19.0312C7.59785 19.0312 8.4375 19.8429 8.4375 20.8438C8.4375 21.8446 7.59785 22.6562 6.5625 22.6562ZM7.5 16.3125C6.46465 16.3125 5.625 15.5008 5.625 14.5V7.25C5.625 6.24916 6.46465 5.4375 7.5 5.4375H22.5C23.5354 5.4375 24.375 6.24916 24.375 7.25V14.5C24.375 15.5008 23.5354 16.3125 22.5 16.3125H7.5ZM23.4375 22.6562C22.4021 22.6562 21.5625 21.8446 21.5625 20.8438C21.5625 19.8429 22.4021 19.0312 23.4375 19.0312C24.4729 19.0312 25.3125 19.8429 25.3125 20.8438C25.3125 21.8446 24.4729 22.6562 23.4375 22.6562Z" fill="#0A6DD7"/>
</svg>
