<svg width="46" height="37" viewBox="0 0 46 37" fill="none" xmlns="http://www.w3.org/2000/svg">
<path d="M16.8125 16.1875H20.75V20.2344C20.75 20.3877 20.8093 20.5348 20.9148 20.6432C21.0202 20.7516 21.1633 20.8125 21.3125 20.8125H24.6875C24.8367 20.8125 24.9798 20.7516 25.0852 20.6432C25.1907 20.5348 25.25 20.3877 25.25 20.2344V16.1875H29.1875C29.3367 16.1875 29.4798 16.1266 29.5852 16.0182C29.6907 15.9098 29.75 15.7627 29.75 15.6094V12.1406C29.75 11.9873 29.6907 11.8402 29.5852 11.7318C29.4798 11.6234 29.3367 11.5625 29.1875 11.5625H25.25V7.51562C25.25 7.3623 25.1907 7.21525 25.0852 7.10683C24.9798 6.99841 24.8367 6.9375 24.6875 6.9375H21.3125C21.1633 6.9375 21.0202 6.99841 20.9148 7.10683C20.8093 7.21525 20.75 7.3623 20.75 7.51562V11.5625H16.8125C16.6633 11.5625 16.5202 11.6234 16.4148 11.7318C16.3093 11.8402 16.25 11.9873 16.25 12.1406V15.6094C16.25 15.7627 16.3093 15.9098 16.4148 16.0182C16.5202 16.1266 16.6633 16.1875 16.8125 16.1875ZM41 3.46875C40.9974 2.5496 40.641 1.66886 40.0086 1.01892C39.3762 0.368983 38.5193 0.00266919 37.625 0L8.375 0C7.48069 0.00266919 6.62376 0.368983 5.99138 1.01892C5.35901 1.66886 5.0026 2.5496 5 3.46875V27.75H41V3.46875ZM36.5 23.125H9.5V4.625H36.5V23.125ZM44.375 30.0625H27.327C27.275 31.4941 26.2927 32.375 25.025 32.375H20.75C19.4359 32.375 18.4297 31.1125 18.4459 30.0625H1.625C1.32663 30.0625 1.04048 30.1843 0.829505 30.4012C0.618526 30.618 0.5 30.9121 0.5 31.2188L0.5 32.375C0.503524 33.6005 0.978762 34.7748 1.82191 35.6414C2.66506 36.5079 3.80761 36.9964 5 37H41C42.1924 36.9964 43.3349 36.5079 44.1781 35.6414C45.0212 34.7748 45.4965 33.6005 45.5 32.375V31.2188C45.5 30.9121 45.3815 30.618 45.1705 30.4012C44.9595 30.1843 44.6734 30.0625 44.375 30.0625Z" fill="#0A6DD7"/>
</svg>
