<svg width="46" height="37" viewBox="0 0 46 37" fill="none" xmlns="http://www.w3.org/2000/svg">
<path d="M17.25 16.1875H21.1875V20.2344C21.1875 20.3877 21.2468 20.5347 21.3523 20.6432C21.4577 20.7516 21.6008 20.8125 21.75 20.8125H25.125C25.2742 20.8125 25.4173 20.7516 25.5227 20.6432C25.6282 20.5347 25.6875 20.3877 25.6875 20.2344V16.1875H29.625C29.7742 16.1875 29.9173 16.1266 30.0227 16.0182C30.1282 15.9097 30.1875 15.7627 30.1875 15.6094V12.1406C30.1875 11.9873 30.1282 11.8402 30.0227 11.7318C29.9173 11.6234 29.7742 11.5625 29.625 11.5625H25.6875V7.51562C25.6875 7.3623 25.6282 7.21525 25.5227 7.10683C25.4173 6.99841 25.2742 6.9375 25.125 6.9375H21.75C21.6008 6.9375 21.4577 6.99841 21.3523 7.10683C21.2468 7.21525 21.1875 7.3623 21.1875 7.51562V11.5625H17.25C17.1008 11.5625 16.9577 11.6234 16.8523 11.7318C16.7468 11.8402 16.6875 11.9873 16.6875 12.1406V15.6094C16.6875 15.7627 16.7468 15.9097 16.8523 16.0182C16.9577 16.1266 17.1008 16.1875 17.25 16.1875ZM41.4375 3.46875C41.4349 2.5496 41.0785 1.66886 40.4461 1.01892C39.8137 0.368983 38.9568 0.00266919 38.0625 0L8.8125 0C7.91819 0.00266919 7.06126 0.368983 6.42888 1.01892C5.79651 1.66886 5.4401 2.5496 5.4375 3.46875V27.75H41.4375V3.46875ZM36.9375 23.125H9.9375V4.625H36.9375V23.125ZM44.8125 30.0625H27.7645C27.7125 31.4941 26.7302 32.375 25.4625 32.375H21.1875C19.8734 32.375 18.8672 31.1125 18.8834 30.0625H2.0625C1.76413 30.0625 1.47798 30.1843 1.267 30.4012C1.05603 30.618 0.9375 30.9121 0.9375 31.2187L0.9375 32.375C0.941024 33.6005 1.41626 34.7748 2.25941 35.6414C3.10256 36.5079 4.24511 36.9964 5.4375 37H41.4375C42.6299 36.9964 43.7724 36.5079 44.6156 35.6414C45.4587 34.7748 45.934 33.6005 45.9375 32.375V31.2187C45.9375 30.9121 45.819 30.618 45.608 30.4012C45.397 30.1843 45.1109 30.0625 44.8125 30.0625Z" fill="#008290"/>
</svg>
