<svg xmlns="http://www.w3.org/2000/svg" width="3.61cm" height="3.68cm" viewBox="0 0 102.2 104.35"><title>TRAVEL_ACE_ASSISTANCE</title><path d="M381.63,256.37l0-5.68L401,246.93l.07,10.32,33.58,1.61v.78s-25-4.9-31,17l-2.87,0s-.06,9.28,1.11,12.46c0,0,3,25.78,27.79,24.27l-.1,1.07-19.15.94s-10.38.67-19.92-8a34.85,34.85,0,0,1-7.7-20.09l-.24-10.95h-6l0-20.17Z" transform="translate(-370.38 -246.93)" style="fill:#fff"/><path d="M427,258.2s-24.36-.7-25.06,27.85c0,0,.26,29.87,28.32,28.39,0,0,8.11-.55,13.68-4,0,0,2.27,2.61,13.67,2.61l.05-53.26Zm3,37.61c-8.92.17-9.42-9.28-9.42-9.28-.19-9.47,9.13-9.36,9.13-9.36l9.33.11.1,9.23C439.21,295.74,430,295.81,430,295.81Z" transform="translate(-370.38 -246.93)" style="fill:#fff"/><path d="M383.26,349.94a2.55,2.55,0,0,1-.9,1,3.1,3.1,0,0,1-1.65.37,3,3,0,0,1-2-.69,2.3,2.3,0,0,1-.79-1.83,2.68,2.68,0,0,1,1.34-2.42,7.85,7.85,0,0,1,4-.83v-.95a2.46,2.46,0,0,0-.29-1.29,1.14,1.14,0,0,0-1.06-.46,1.33,1.33,0,0,0-1.15.43,1.66,1.66,0,0,0-.33,1h-2.18a2.85,2.85,0,0,1,.92-2.23,4,4,0,0,1,2.73-.82q3.5,0,3.49,3v6.83h-2.13Zm-2-.24a1.6,1.6,0,0,0,1.49-.88,3.89,3.89,0,0,0,.51-2,5.51,5.51,0,0,0-2.23.42,1.39,1.39,0,0,0-1,1.31A1,1,0,0,0,381.26,349.7Z" transform="translate(-370.38 -246.93)" style="fill:#fff"/><path d="M392.7,343.48a12.22,12.22,0,0,0-1.18-.49,3.11,3.11,0,0,0-1-.15,2,2,0,0,0-1,.25.71.71,0,0,0-.46.64c0,.31.7.9,2.11,1.79s2.1,1.84,2.1,2.87a2.51,2.51,0,0,1-1,2.16,4.43,4.43,0,0,1-2.67.73,8.22,8.22,0,0,1-1.24-.09,7.35,7.35,0,0,1-1.31-.3V349a7.53,7.53,0,0,0,1.22.44,5,5,0,0,0,1.24.15,3.51,3.51,0,0,0,1.15-.18.7.7,0,0,0,.52-.69c0-.25-.69-.85-2.07-1.77s-2.06-1.88-2.06-2.85A2.49,2.49,0,0,1,388,342a3.88,3.88,0,0,1,2.5-.76,5.76,5.76,0,0,1,1.27.13l.91.24Z" transform="translate(-370.38 -246.93)" style="fill:#fff"/><path d="M400.39,343.48c-.47-.22-.87-.38-1.18-.49a3.2,3.2,0,0,0-1-.15,2.11,2.11,0,0,0-1,.25.72.72,0,0,0-.45.64c0,.31.7.9,2.11,1.79s2.1,1.84,2.1,2.87a2.54,2.54,0,0,1-1,2.16,4.45,4.45,0,0,1-2.67.73,8.45,8.45,0,0,1-1.25-.09,7.46,7.46,0,0,1-1.3-.3V349a7.21,7.21,0,0,0,1.22.44,5,5,0,0,0,1.24.15,3.51,3.51,0,0,0,1.15-.18.69.69,0,0,0,.51-.69c0-.25-.68-.85-2.06-1.77s-2.06-1.88-2.06-2.85a2.51,2.51,0,0,1,.93-2.06,3.91,3.91,0,0,1,2.51-.76,5.82,5.82,0,0,1,1.27.13l.91.24Z" transform="translate(-370.38 -246.93)" style="fill:#fff"/><path d="M402.69,338.12h2.24V340l-2.24.56Zm0,3.34h2.24v9.05l-2.24.54Z" transform="translate(-370.38 -246.93)" style="fill:#fff"/><path d="M412.55,343.48c-.47-.22-.86-.38-1.17-.49a3.2,3.2,0,0,0-1-.15,2.08,2.08,0,0,0-1,.25.72.72,0,0,0-.45.64c0,.31.7.9,2.1,1.79s2.11,1.84,2.11,2.87a2.54,2.54,0,0,1-1,2.16,4.45,4.45,0,0,1-2.67.73,8.45,8.45,0,0,1-1.25-.09,7.26,7.26,0,0,1-1.3-.3V349a7.44,7.44,0,0,0,1.21.44,5.1,5.1,0,0,0,1.25.15,3.41,3.41,0,0,0,1.14-.18.69.69,0,0,0,.52-.69c0-.25-.68-.85-2.06-1.77s-2.06-1.88-2.06-2.85a2.51,2.51,0,0,1,.93-2.06,3.91,3.91,0,0,1,2.51-.76,5.82,5.82,0,0,1,1.27.13l.9.24Z" transform="translate(-370.38 -246.93)" style="fill:#fff"/><path d="M420.63,351.11a10.84,10.84,0,0,1-1.83.17,3.08,3.08,0,0,1-2.34-.7,2.9,2.9,0,0,1-.6-1.95V343H414v-1.55h1.88v-2.31l2.24-.56v2.87h2.84V343H418.1v4.53a3.62,3.62,0,0,0,.29,1.61,1.25,1.25,0,0,0,1.22.55l.4,0a4.81,4.81,0,0,0,.62-.14Z" transform="translate(-370.38 -246.93)" style="fill:#fff"/><path d="M427.27,349.94a2.55,2.55,0,0,1-.9,1,3.09,3.09,0,0,1-1.64.37,3,3,0,0,1-2-.69,2.33,2.33,0,0,1-.79-1.83,2.68,2.68,0,0,1,1.34-2.42,7.85,7.85,0,0,1,4-.83v-.95a2.46,2.46,0,0,0-.29-1.29,1.13,1.13,0,0,0-1.06-.46,1.34,1.34,0,0,0-1.15.43,1.65,1.65,0,0,0-.32,1h-2.19a2.85,2.85,0,0,1,.92-2.23,4,4,0,0,1,2.73-.82q3.49,0,3.49,3v6.83h-2.13Zm-2-.24a1.6,1.6,0,0,0,1.49-.88,3.89,3.89,0,0,0,.51-2,5.51,5.51,0,0,0-2.23.42,1.39,1.39,0,0,0-1,1.31A1,1,0,0,0,425.27,349.7Z" transform="translate(-370.38 -246.93)" style="fill:#fff"/><path d="M431.47,342l2.24-.56v1.79a4.27,4.27,0,0,1,1.05-1.41,2.62,2.62,0,0,1,1.83-.61,2.43,2.43,0,0,1,1.87.79,3.37,3.37,0,0,1,.73,2.38v6.65H437v-5.48a5.6,5.6,0,0,0-.18-1.85.8.8,0,0,0-.81-.39,1.84,1.84,0,0,0-1.65,1.13,5.12,5.12,0,0,0-.6,2.44v4.15h-2.24Z" transform="translate(-370.38 -246.93)" style="fill:#fff"/><path d="M448.47,350.83c-.46.13-.91.24-1.36.32a8.2,8.2,0,0,1-1.44.13,5.2,5.2,0,0,1-3.73-1.34,5.35,5.35,0,0,1-1.42-4.11,4.94,4.94,0,0,1,1.08-3.31,4.09,4.09,0,0,1,3.32-1.29,3.49,3.49,0,0,1,2.82,1,3.81,3.81,0,0,1,.83,2.52h-2.38a2.78,2.78,0,0,0-.31-1.39,1.21,1.21,0,0,0-1.14-.54,1.53,1.53,0,0,0-1.35.74,3.35,3.35,0,0,0-.49,1.88,4.8,4.8,0,0,0,1,3,3.49,3.49,0,0,0,3,1.29,5,5,0,0,0,1.61-.24Z" transform="translate(-370.38 -246.93)" style="fill:#fff"/><path d="M457.35,350.89a8.74,8.74,0,0,1-2.68.39,4.51,4.51,0,0,1-3.59-1.44,6,6,0,0,1-1.25-4.09,5,5,0,0,1,1-3.32,3.83,3.83,0,0,1,3.11-1.2,3.45,3.45,0,0,1,2.72,1,4.16,4.16,0,0,1,.92,2.85v.55h-5.68a4.8,4.8,0,0,0,.9,2.67,3.06,3.06,0,0,0,2.71,1.35,3.9,3.9,0,0,0,.93-.1,8.9,8.9,0,0,0,.9-.26Zm-1.87-6.57a1.82,1.82,0,0,0-.39-1.12,1.48,1.48,0,0,0-1.31-.53,1.64,1.64,0,0,0-1.31.53,2.13,2.13,0,0,0-.5,1.12Z" transform="translate(-370.38 -246.93)" style="fill:#fff"/><path d="M386.51,338.5c-1,.15-7.62.81-8.53.81q-2.73,0-3.69-1.05a4.24,4.24,0,0,1-1-2.94V326h-3v-2.58l3,.13v-3.36l3.52-.86v4.38l4.48.2V326h-4.48v7.72a5.2,5.2,0,0,0,.46,2.42,2,2,0,0,0,1.93.84,5.53,5.53,0,0,0,.63,0c.17,0,6.15-.67,6.63-.79Z" transform="translate(-370.38 -246.93)" style="fill:#fff"/><path d="M383,323.94l3.52-.33v2.68a8.6,8.6,0,0,1,1.94-2.25,4.9,4.9,0,0,1,3-.76v3.54a5.31,5.31,0,0,0-3.81,1.12,5.24,5.24,0,0,0-1.15,3.81v6.37H383Z" transform="translate(-370.38 -246.93)" style="fill:#fff"/><path d="M399.31,336.44a3.87,3.87,0,0,1-1.42,1.45,5,5,0,0,1-2.59.55,4.85,4.85,0,0,1-3.21-1,3.45,3.45,0,0,1-1.23-2.77A4,4,0,0,1,393,331a12.77,12.77,0,0,1,6.34-1.24V328.3a3.61,3.61,0,0,0-.45-1.95,1.85,1.85,0,0,0-1.69-.7,2.19,2.19,0,0,0-1.81.65,2.51,2.51,0,0,0-.51,1.57h-3.43a4.18,4.18,0,0,1,1.45-3.36,6.5,6.5,0,0,1,4.31-1.23q5.51,0,5.5,4.51v10.33h-3.37Zm-3.15-.37a2.57,2.57,0,0,0,2.35-1.32,5.75,5.75,0,0,0,.8-3,8.92,8.92,0,0,0-3.52.64,2.09,2.09,0,0,0-1.5,2C394.29,335.49,394.91,336.07,396.16,336.07Z" transform="translate(-370.38 -246.93)" style="fill:#fff"/><path d="M401.35,323.61H405l3.37,9.95,3.47-9.95h3.68l-5.05,13.56-3.78.95Z" transform="translate(-370.38 -246.93)" style="fill:#fff"/><path d="M431,336.76a37.65,37.65,0,0,1-9.75,1.68,7.28,7.28,0,0,1-5.66-2.16,8.87,8.87,0,0,1-2-6.18,7.35,7.35,0,0,1,1.59-5,6.17,6.17,0,0,1,4.9-1.81,5.58,5.58,0,0,1,4.28,1.56,6.07,6.07,0,0,1,1.47,4.31V330h-9a7.09,7.09,0,0,0,1.43,4.06,4.88,4.88,0,0,0,4.26,2,6.94,6.94,0,0,0,1.48-.15c.46-.1,6.45-1.35,6.94-1.52Zm-8.47-8.83a2.76,2.76,0,0,0-.6-1.7,2.46,2.46,0,0,0-2.07-.78,2.56,2.56,0,0,0-2.06.8,3,3,0,0,0-.8,1.68Z" transform="translate(-370.38 -246.93)" style="fill:#fff"/><path d="M427.47,318l3.53-.87v18.39h-3.53Z" transform="translate(-370.38 -246.93)" style="fill:#fff"/><path d="M444.83,336.44a3.92,3.92,0,0,1-1.41,1.45,5,5,0,0,1-2.59.55,4.81,4.81,0,0,1-3.21-1,3.42,3.42,0,0,1-1.24-2.77,4,4,0,0,1,2.11-3.66,12.77,12.77,0,0,1,6.34-1.24V328.3a3.61,3.61,0,0,0-.45-1.95,1.83,1.83,0,0,0-1.68-.7,2.21,2.21,0,0,0-1.82.65,2.5,2.5,0,0,0-.5,1.57h-3.44a4.21,4.21,0,0,1,1.45-3.36,6.52,6.52,0,0,1,4.31-1.23q5.51,0,5.51,4.51v10.33h-3.38Zm-3.15-.37a2.56,2.56,0,0,0,2.35-1.32,5.75,5.75,0,0,0,.8-3,8.9,8.9,0,0,0-3.51.64,2.08,2.08,0,0,0-1.51,2C439.81,335.49,440.43,336.07,441.68,336.07Z" transform="translate(-370.38 -246.93)" style="fill:#fff"/><path d="M460.73,337.79c-.72.19-1.44.35-2.14.47a13.69,13.69,0,0,1-2.28.18,8.46,8.46,0,0,1-5.88-2q-2.22-2-2.22-6.21a7.28,7.28,0,0,1,1.7-5q1.69-1.93,5.23-1.93c2.09,0,3.58.49,4.45,1.49a5.6,5.6,0,0,1,1.3,3.82h-3.74a4.11,4.11,0,0,0-.5-2.12,1.92,1.92,0,0,0-1.8-.82,2.43,2.43,0,0,0-2.14,1.13,4.91,4.91,0,0,0-.76,2.83,7,7,0,0,0,1.54,4.51,5.62,5.62,0,0,0,4.7,1.95,8.24,8.24,0,0,0,2.54-.36Z" transform="translate(-370.38 -246.93)" style="fill:#fff"/><path d="M472.21,337.88a14.69,14.69,0,0,1-4.23.56,7.25,7.25,0,0,1-5.65-2.16,8.82,8.82,0,0,1-2-6.18,7.34,7.34,0,0,1,1.58-5,6.17,6.17,0,0,1,4.9-1.81,5.61,5.61,0,0,1,4.29,1.56,6.11,6.11,0,0,1,1.46,4.31V330h-9a7.09,7.09,0,0,0,1.43,4.06,4.88,4.88,0,0,0,4.26,2,6.94,6.94,0,0,0,1.48-.15,12.25,12.25,0,0,0,1.42-.4Zm-2.95-9.95a2.76,2.76,0,0,0-.6-1.7,2.46,2.46,0,0,0-2.07-.78,2.56,2.56,0,0,0-2.06.8,3,3,0,0,0-.8,1.68Z" transform="translate(-370.38 -246.93)" style="fill:#fff"/><path d="M427.46,335.18" transform="translate(-370.38 -246.93)" style="fill:#fff"/></svg>