<svg xmlns="http://www.w3.org/2000/svg" width="3.4cm" height="3.84cm" viewBox="0 0 96.5 108.98"><title>UNIVERSALASSISTANCE</title><path d="M421.59,331.7a2.6,2.6,0,0,0-.68-1.65,2.3,2.3,0,0,0-3.09,0,2.65,2.65,0,0,0-.69,1.68m7.13,5.14a6.33,6.33,0,0,1-2,1,8.91,8.91,0,0,1-2.55.33,6.26,6.26,0,0,1-4.32-1.44,4.92,4.92,0,0,1-1.63-3.86,5.21,5.21,0,0,1,1.53-3.87,5.29,5.29,0,0,1,3.88-1.5,5.07,5.07,0,0,1,3.82,1.56,6,6,0,0,1,1.49,4.3h-7.38a2.61,2.61,0,0,0,.93,2.13,3.72,3.72,0,0,0,2.46.77,5.26,5.26,0,0,0,1.82-.31,9.89,9.89,0,0,0,2-1.16Z" transform="translate(-373.48 -244.78)" style="fill:#fff;fill-rule:evenodd"/><path d="M431.26,348.49c-1.88.7-2.83,1.43-2.83,2.2a1.17,1.17,0,0,0,.29.79,1,1,0,0,0,.76.31,2.53,2.53,0,0,0,1.78-.82m5,1.8a7.61,7.61,0,0,1-1.53.67,5.08,5.08,0,0,1-1.5.27,1.62,1.62,0,0,1-1.8-1.16,7.59,7.59,0,0,1-1.72.88,5,5,0,0,1-1.67.28,2.89,2.89,0,0,1-2-.76,2.31,2.31,0,0,1-.82-1.76,2.65,2.65,0,0,1,1.59-2.68c1.06-.45,2.56-1,4.51-1.6a1.9,1.9,0,0,0-.39-1.26,1.77,1.77,0,0,0-1.39-.45,4.87,4.87,0,0,0-2,.46,6,6,0,0,0-1.79,1.25v-2.63a8.36,8.36,0,0,1,4.46-1.25,5.79,5.79,0,0,1,3.19.75,2.62,2.62,0,0,1,1.15,2.37v4.68q0,.72.54.72a1.37,1.37,0,0,0,.47-.11,5.34,5.34,0,0,0,.75-.47Z" transform="translate(-373.48 -244.78)" style="fill:#fff;fill-rule:evenodd"/><path d="M449.64,333.06c-1.89.69-2.83,1.42-2.83,2.19a1.15,1.15,0,0,0,.29.79,1,1,0,0,0,.76.31,2.53,2.53,0,0,0,1.78-.82m5,1.81a7.44,7.44,0,0,1-1.54.66,5,5,0,0,1-1.49.27c-1,0-1.6-.38-1.8-1.16a7.2,7.2,0,0,1-1.72.88,5.09,5.09,0,0,1-1.67.28,2.89,2.89,0,0,1-2.05-.76,2.32,2.32,0,0,1-.83-1.76,2.63,2.63,0,0,1,1.6-2.67,47.49,47.49,0,0,1,4.51-1.61,1.9,1.9,0,0,0-.39-1.26,1.77,1.77,0,0,0-1.39-.45,4.87,4.87,0,0,0-2,.46,5.88,5.88,0,0,0-1.79,1.25v-2.63a8.36,8.36,0,0,1,4.46-1.25,5.79,5.79,0,0,1,3.19.75,2.62,2.62,0,0,1,1.15,2.38v4.68c0,.47.18.71.54.71a1.37,1.37,0,0,0,.47-.11,5,5,0,0,0,.75-.47Z" transform="translate(-373.48 -244.78)" style="fill:#fff;fill-rule:evenodd"/><path d="M379.58,348.49c-1.88.7-2.83,1.43-2.83,2.2a1.17,1.17,0,0,0,.29.79,1,1,0,0,0,.76.31,2.53,2.53,0,0,0,1.78-.82m5,1.8a7.61,7.61,0,0,1-1.53.67,5.08,5.08,0,0,1-1.5.27,1.62,1.62,0,0,1-1.8-1.16,7.59,7.59,0,0,1-1.72.88,5,5,0,0,1-1.67.28,2.89,2.89,0,0,1-2.05-.76,2.31,2.31,0,0,1-.82-1.76,2.65,2.65,0,0,1,1.59-2.68c1.06-.45,2.57-1,4.51-1.6a1.9,1.9,0,0,0-.39-1.26,1.77,1.77,0,0,0-1.39-.45,4.83,4.83,0,0,0-2,.46,5.92,5.92,0,0,0-1.8,1.25v-2.63a8.36,8.36,0,0,1,4.46-1.25,5.83,5.83,0,0,1,3.2.75,2.63,2.63,0,0,1,1.14,2.37v4.68q0,.72.54.72a1.37,1.37,0,0,0,.47-.11,4.82,4.82,0,0,0,.75-.47Z" transform="translate(-373.48 -244.78)" style="fill:#fff;fill-rule:evenodd"/><path d="M467.13,347.25a2.6,2.6,0,0,0-.68-1.65,2.32,2.32,0,0,0-3.09,0,2.71,2.71,0,0,0-.69,1.67m7.13,5.15a6.51,6.51,0,0,1-2,1,8.85,8.85,0,0,1-2.55.34,6.27,6.27,0,0,1-4.32-1.45,4.9,4.9,0,0,1-1.63-3.86,5.21,5.21,0,0,1,1.53-3.87,5.32,5.32,0,0,1,3.89-1.5,5.06,5.06,0,0,1,3.81,1.56,6,6,0,0,1,1.49,4.3H462.6a2.61,2.61,0,0,0,.93,2.13,3.75,3.75,0,0,0,2.46.77,5.26,5.26,0,0,0,1.82-.31,9.63,9.63,0,0,0,2-1.16Z" transform="translate(-373.48 -244.78)" style="fill:#fff;fill-rule:evenodd"/><polyline points="85.11 78.03 81.94 78.03 81.94 93.22 85.11 93.22 85.11 78.03" style="fill:#fff;fill-rule:evenodd"/><path d="M429.24,327.77h-3.19V338h3.19v-4.38c.81-2,1.59-3,2.65-3a3.26,3.26,0,0,1,1.95.78h0l.81-3a3,3,0,0,0-2-.77c-1.21,0-2.39,1-3.42,3h0v-2.83" transform="translate(-373.48 -244.78)" style="fill:#fff;fill-rule:evenodd"/><path d="M442.41,328.4a5.7,5.7,0,0,0-3.39-.77c-2.39,0-4.19,1.17-4.19,3.16,0,3.24,5.19,3,5.19,4.41,0,.59-.59.81-1.58.81a10.15,10.15,0,0,1-3.39-.81h0v2.17a8.42,8.42,0,0,0,3.79,1c2.61,0,4-1.37,4-3.57,0-3.42-5-3.42-5-4.64,0-.55.77-.73,1.17-.73a8.41,8.41,0,0,1,3.39,1.17h0v-2.2" transform="translate(-373.48 -244.78)" style="fill:#fff;fill-rule:evenodd"/><path d="M381,338h3.16V327.77H381v6.44a2.72,2.72,0,0,1-2.24,1.8c-.81,0-1.66-.44-1.66-2h0v-6.26H374v6.59c0,2.64,1.58,4,3.56,4a4.28,4.28,0,0,0,3.46-1.73h0V338" transform="translate(-373.48 -244.78)" style="fill:#fff;fill-rule:evenodd"/><path d="M389.54,327.77h-3.2V338h3.2v-6.62c.77-1.22,1.36-1.58,2.17-1.58,1,0,1.58.59,1.58,2h0V338h3.23v-6.62a3.5,3.5,0,0,0-3.79-3.75,3.71,3.71,0,0,0-3.19,1.58h0v-1.44" transform="translate(-373.48 -244.78)" style="fill:#fff;fill-rule:evenodd"/><polyline points="28.41 83 25.21 83 25.21 93.22 28.41 93.22 28.41 83" style="fill:#fff;fill-rule:evenodd"/><path d="M400.27,322.59a1.78,1.78,0,0,0-1.76,1.84,1.81,1.81,0,0,0,1.76,1.84,1.85,1.85,0,0,0,1.84-1.84,1.82,1.82,0,0,0-1.84-1.84h0" transform="translate(-373.48 -244.78)" style="fill:#fff;fill-rule:evenodd"/><polyline points="34 93.59 35.8 93.59 40.44 83 36.98 83 34.81 88.62 32.6 83 29.22 83 34 93.59" style="fill:#fff;fill-rule:evenodd"/><path d="M440.2,343.26H437v10.25h3.23V346.9c.77-1.29,1.47-1.66,2.21-1.66.95,0,1.61.59,1.61,2h0v6.25h3.2V347a3.58,3.58,0,0,0-3.71-3.93,4.1,4.1,0,0,0-3.31,1.69h0v-1.47" transform="translate(-373.48 -244.78)" style="fill:#fff;fill-rule:evenodd"/><path d="M458.25,350.68a7.68,7.68,0,0,1-2.87.74,3,3,0,1,1,.08-6,5.71,5.71,0,0,1,2.65.7h0v-2.39a10.42,10.42,0,0,0-3.42-.69c-3.42,0-5.81,2.27-5.81,5.36s2.31,5.3,5.92,5.3a9.89,9.89,0,0,0,3.45-.7h0v-2.32" transform="translate(-373.48 -244.78)" style="fill:#fff;fill-rule:evenodd"/><path d="M392.29,343.84a6.17,6.17,0,0,0-3.3-.8c-2.5,0-4.2,1.25-4.2,3.19,0,3.35,5.08,3,5.08,4.56,0,.44-.63.77-1.55.77a8.07,8.07,0,0,1-3.31-.88h0v2.25a8.81,8.81,0,0,0,3.64.77c2.65,0,4.2-1.18,4.2-3.35,0-3.42-5.11-3.45-5.11-4.59,0-.7.73-.81,1.17-.81a7.23,7.23,0,0,1,3.38,1.14h0v-2.25" transform="translate(-373.48 -244.78)" style="fill:#fff;fill-rule:evenodd"/><path d="M401.23,343.84a6.54,6.54,0,0,0-3.35-.8c-2.5,0-4.19,1.25-4.19,3.19,0,3.35,5,3,5,4.56,0,.44-.59.77-1.55.77a8,8,0,0,1-3.27-.88h0v2.25a9,9,0,0,0,3.68.77c2.65,0,4.12-1.18,4.12-3.35,0-3.42-5.11-3.45-5.11-4.59,0-.7.73-.81,1.21-.81a7.77,7.77,0,0,1,3.42,1.14h0v-2.25" transform="translate(-373.48 -244.78)" style="fill:#fff;fill-rule:evenodd"/><polyline points="32.83 98.48 29.66 98.48 29.66 108.73 32.83 108.73 32.83 98.48" style="fill:#fff;fill-rule:evenodd"/><path d="M404.72,338.18a1.75,1.75,0,1,0,0,3.49,1.75,1.75,0,1,0,0-3.49h0" transform="translate(-373.48 -244.78)" style="fill:#fff;fill-rule:evenodd"/><path d="M415.46,343.84a6.16,6.16,0,0,0-3.31-.8c-2.5,0-4.19,1.25-4.19,3.19,0,3.35,5.07,3,5.07,4.56,0,.44-.59.77-1.51.77a8,8,0,0,1-3.34-.88h0v2.25a8.89,8.89,0,0,0,3.64.77c2.64,0,4.23-1.18,4.23-3.35,0-3.42-5.12-3.45-5.12-4.59,0-.7.7-.81,1.14-.81a6.94,6.94,0,0,1,3.39,1.14h0v-2.25" transform="translate(-373.48 -244.78)" style="fill:#fff;fill-rule:evenodd"/><path d="M424.69,343.26H421V340h-.4l-4.27,4.78v.62h1.47v4.45c0,2.87,1.8,3.83,4,3.83a7,7,0,0,0,2.95-.63h0v-2.39a3.75,3.75,0,0,1-2.14.63,1.46,1.46,0,0,1-1.58-1.62h0v-4.27h3.72v-2.16" transform="translate(-373.48 -244.78)" style="fill:#fff;fill-rule:evenodd"/><polyline points="0.29 0 30.25 0 30.22 18.77 0.25 45.9 0.29 0" style="fill:#fff;fill-rule:evenodd"/><path d="M427.7,292c-4.26,2.87-8.31,4.78-12.5,5.48a19.11,19.11,0,0,1-3.53.29c-5.4,0-9-3.64-9-9.08,0-6.32,4.33-10,12.57-14.16,3.49-1.76,7.65-3.6,12.5-5.77h0V292m30-4.49V244.91h-30v9.3c-4.48,1.5-8.64,2.83-12.5,4.08-29.08,9.48-41.47,13.86-41.47,33.75,0,12.64,10.81,25.66,25.26,25.66a37.07,37.07,0,0,0,16.21-4A111.7,111.7,0,0,0,429.76,305c1.84,7.29,7.24,12.58,16.29,12.69,5.66.07,14.74-.44,20.66-3.05h0l3-18.09c-6,0-12-3-12-9Z" transform="translate(-373.48 -244.78)" style="fill:#fff;fill-rule:evenodd"/></svg>