<svg xmlns="http://www.w3.org/2000/svg" width="468.33" height="324.42" viewBox="0 0 468.33 324.42"><title>Recurso 9test2</title><g style="isolation:isolate"><path d="M52.1,205.07c19.33,28.5,17.37,39,12.78,52.71,0,0,27.23,28.89,96.83,15.63,0,0-.22-21.28,20.76-23.89C199,247.47,52.1,205.07,52.1,205.07Z" style="fill:#edc4b0"/><path d="M41.88,188.33c2.31,4,8.67,13.85,13.91,22.36,16.89,27.44,11.43,38.83,11.43,38.83s3.43-14.57,23.45-9.2c29.46,7.91,50.52,9.2,50.52,9.2L66.53,177Z" style="fill:#edc4b0"/><path d="M51.78,198.84c14.67,5,46,32,50.73,35.14s12.88-10.7,9.83-17.57-5.56-26.16-18.14-26S51.78,198.84,51.78,198.84Z" style="fill:#edc4b0"/><path d="M70.8,206.71c0,6.53-6.14,20.72-6.14,20.72S57.83,211.07,28,177.54C16.83,165,39.38,177,39.38,177Z" style="fill:#251f12"/><path d="M208.05,184.51a15.75,15.75,0,0,0,1.43,5.24c2,4.29,4.62,9.73-2.39,15.44,0,0,4.69,7.88.37,11.69s-6.11,5.35-3.1,10.68-25.56,10.57-25.56,10.57l-67.39-38.69-28.5-50.23,20.64-30.84.39-55,58.48,5.08,28.28-.3s19.5,44.18,17.57,53.48-7.25,12.6-5.64,18.67,12.05,22.35,16.07,27.59S227.1,180.19,208.05,184.51Z" style="fill:#edc4b0"/><path d="M.48,94.39c-.17,9.2,1.68,20.61,5.75,32.86,4.32.21,8.64.63,13,1,11.2,1,22.51.9,33.74,1.56,12.88.76,6.54-.54,19.25,1.75,5.23.94-9.28-18.24-4.1-17,1.12.25,19.28,1.86,20.43,2.2,4.37-8.74,19.29,1.53,25.8-3.85,10.65-8.82-.84-40.92,1-40.69,2.37.31,55.93,19.74,77.58.42,0,0,22.4-39.89-23.34-61.74s-78.78,3.49-110.34,11S6.18,56.32,9.91,68.12c0,0-9.1,9.08-9.43,26.27" style="fill:#251f12"/><path d="M104.44,164.9a2,2,0,0,1,1.08,0C106.16,165.14,105.37,165,104.44,164.9Z" style="fill:#251f12"/><path d="M189,67.94s.29-1.86.52-5.29a97.71,97.71,0,0,0-.17-14.13A71.13,71.13,0,0,0,185,29.12a45.82,45.82,0,0,0-5.19-9.91,38,38,0,0,0-7.8-8.47,41.25,41.25,0,0,0-9.93-5.94,52.2,52.2,0,0,0-10.88-3.06A71.61,71.61,0,0,0,140.6.8a92,92,0,0,0-9.55.47c-3,.21-5.64.68-8,1.08s-4.45.78-6.13,1.19l-5.32,1.21,5.28-1.35c1.68-.46,3.73-.95,6.12-1.36a80.23,80.23,0,0,1,8-1.3A89.67,89.67,0,0,1,140.6,0a73,73,0,0,1,10.76.66,53.76,53.76,0,0,1,11.23,2.83,43.06,43.06,0,0,1,10.48,5.89,39.59,39.59,0,0,1,8.4,8.65,48.15,48.15,0,0,1,5.71,10.2,73.51,73.51,0,0,1,5.06,20,99.6,99.6,0,0,1,.57,14.59c-.13,3.51-.39,5.58-.39,5.58Z" style="fill:#251f12"/><path d="M207.47,199.5c-16.83,2.26-27,6.67-25,7.19s3.6,2.52,7.61,4,12.69,8.14,18.2,5.23c2-2.93.46-7.28-.54-9.43a14.78,14.78,0,0,0-.92-1.3c.33-.19.61-.38.91-.57,2.73-2.45,3.77-4.84,3.9-7.1C209.74,198.4,207.47,199.5,207.47,199.5Z" style="fill:#d9a191;opacity:0.5"/><path d="M181.91,71.94l.32-.18c-.1,0-.3.2-.26.18s.08-.1.13-.29a11.6,11.6,0,0,0,.51-3.82,62.82,62.82,0,0,0-2.22-15.39,93.88,93.88,0,0,0-8-20.76,66.1,66.1,0,0,0-15.82-19.85,47.71,47.71,0,0,0-11-6.8,45.33,45.33,0,0,0-12.08-3.41A58,58,0,0,0,111.2,3.17a90.27,90.27,0,0,0-15,5.37c-3.52,1.59-5.47,2.63-5.47,2.63s1.92-1.09,5.4-2.77a91.81,91.81,0,0,1,15-5.75A58.69,58.69,0,0,1,133.61.54a46.33,46.33,0,0,1,12.49,3.2,49,49,0,0,1,11.52,6.74,68,68,0,0,1,16.81,20.06,95.33,95.33,0,0,1,8.77,21.15,65.57,65.57,0,0,1,2.71,16.15,14.28,14.28,0,0,1-.62,5,5.08,5.08,0,0,1-.45.94,3.63,3.63,0,0,1-.9.93l-.38.23Z" style="fill:#251f12"/><path d="M102.3,62.83s.17-.42.33-1.06c0-.25,0-.43,0-.87a15.66,15.66,0,0,0-.11-1.66,40.5,40.5,0,0,0-3.25-10.72,66.77,66.77,0,0,0-8.22-13.93A53.19,53.19,0,0,0,85,27.82a41.09,41.09,0,0,0-7.54-5.6,31.42,31.42,0,0,0-8.72-3.4,29.27,29.27,0,0,0-9.07-.46c-1.46.22-2.91.47-4.3.82a41.45,41.45,0,0,0-4,1.33A49.51,49.51,0,0,0,44.43,24a64.45,64.45,0,0,0-5.32,3.86c-1.5,1.26-2.87,2.3-3.85,3.32l-3.2,3.07,3.1-3.18C36.1,30,37.44,29,38.9,27.63s3.31-2.58,5.24-4.07A50.49,50.49,0,0,1,51,19.77c1.25-.63,2.66-1,4-1.51s2.91-.71,4.42-1a30.6,30.6,0,0,1,9.49.16,33,33,0,0,1,9.26,3.27,41.77,41.77,0,0,1,8.08,5.58,53.73,53.73,0,0,1,6.61,6.83,69,69,0,0,1,9,14.19,43.31,43.31,0,0,1,3.87,11.48,16.83,16.83,0,0,1,.21,2.08,13.33,13.33,0,0,1-.14,1.91,11,11,0,0,1-.33,1.16Z" style="fill:#251f12"/><path d="M84,49.07l.66-2.8a27.79,27.79,0,0,0,.36-3,30,30,0,0,0,0-4,37.34,37.34,0,0,0-.69-4.79,28.93,28.93,0,0,0-1.61-5.17,12.71,12.71,0,0,0-1.21-2.59A15.66,15.66,0,0,0,80,24.13c-.6-.78-1.16-1.61-1.8-2.36L76,19.7a17.78,17.78,0,0,0-5.16-2.9l-1.38-.53c-.48-.1-1-.15-1.45-.23a20.08,20.08,0,0,0-2.86-.34c-1.89.17-3.78.05-5.47.64A22.23,22.23,0,0,0,55,17.86c-1.41.64-2.76,1.14-3.87,1.75l-2.8,1.71-2.45,1.5L48.2,21.2l2.72-1.87c1.09-.67,2.42-1.24,3.82-2a22.11,22.11,0,0,1,4.77-1.79c1.7-.7,3.67-.69,5.66-1a21.11,21.11,0,0,1,3,.2c.52.06,1,.09,1.57.17l1.51.49a19.06,19.06,0,0,1,5.78,2.87l2.48,2.13c.74.78,1.4,1.64,2.09,2.45a18.94,18.94,0,0,1,1.76,2.64,14.63,14.63,0,0,1,1.45,2.73,32.09,32.09,0,0,1,2,5.48,42.25,42.25,0,0,1,1,5.16,35.93,35.93,0,0,1,.21,4.5A28.37,28.37,0,0,1,87.86,47c-.32,1.8-.51,2.82-.51,2.82Z" style="fill:#251f12"/><path d="M144.34,44.44,142,40.61l-1.24-2-1.61-2.19a53.79,53.79,0,0,0-4-5.12,56.66,56.66,0,0,0-5.35-5.65A70.89,70.89,0,0,0,123.12,20c-1.15-1-2.52-1.7-3.79-2.59a31.45,31.45,0,0,0-4-2.41c-1.41-.71-2.81-1.5-4.27-2.16l-4.5-1.72a43.75,43.75,0,0,0-4.65-1.27c-.78-.18-1.55-.42-2.33-.54L97.17,9a44.5,44.5,0,0,0-9.29-.12c-3,.62-5.9,1-8.46,2.11a26.35,26.35,0,0,0-3.76,1.52l-3.31,1.86-1.57.87-1.35,1-2.49,2a25.29,25.29,0,0,0-3.77,3.5c-2,2.07-3.11,3.25-3.11,3.25l3-3.35A25.13,25.13,0,0,1,66.73,18l2.45-2,1.33-1.1L72.06,14l3.3-2a27.68,27.68,0,0,1,3.78-1.67C81.71,9,84.7,8.56,87.73,7.84a45.57,45.57,0,0,1,9.58-.2l2.46.19c.81.1,1.61.32,2.43.48A44.78,44.78,0,0,1,107,9.46l4.72,1.63c1.53.63,3,1.39,4.48,2.08a33.76,33.76,0,0,1,4.26,2.35c1.34.87,2.78,1.58,4,2.56a71.68,71.68,0,0,1,7,5.6,60.33,60.33,0,0,1,5.73,5.66,59.3,59.3,0,0,1,4.43,5.25,39.17,39.17,0,0,1,3.08,4.24l2.48,3.75Z" style="fill:#251f12"/><path d="M55.93,44.47a31.17,31.17,0,0,0-4-5.1,30.65,30.65,0,0,0-5.09-4.32,27.13,27.13,0,0,0-3.26-1.87,20.18,20.18,0,0,0-3.67-1.28c-.63-.13-1.26-.34-1.91-.42l-1.94-.15a18.42,18.42,0,0,0-3.8.19,28,28,0,0,0-3.5.85,18,18,0,0,0-3,1.23,14.32,14.32,0,0,0-2.45,1.27L21.52,36l-1.57,1,1.48-1.14c.48-.36,1.05-.81,1.72-1.31a14.15,14.15,0,0,1,2.38-1.49,18.3,18.3,0,0,1,3-1.5,27.16,27.16,0,0,1,3.57-1.17,19.48,19.48,0,0,1,4-.52h2.1c.7,0,1.4.2,2.1.29a22.1,22.1,0,0,1,4.1,1.08A30.09,30.09,0,0,1,48.1,33,33.67,33.67,0,0,1,54,37.28,42.34,42.34,0,0,1,57.57,41c.4.47.72.89.94,1.17l.3.4Z" style="fill:#251f12"/><path d="M55.46,27.45l-2.24.37c-1.37.23-3.34.6-5.67,1.13a80.81,80.81,0,0,0-16.61,5.58c-5.76,2.69-11,6.79-13.15,11.11a13.65,13.65,0,0,0-1.23,3A14.54,14.54,0,0,0,16,51.13c-.12,1.4-.12,2.22-.12,2.22s-.06-.81,0-2.23a14.49,14.49,0,0,1,.36-2.55,13.88,13.88,0,0,1,1.06-3.17c2-4.61,7.08-9.24,12.83-12.4A83.18,83.18,0,0,1,46.8,26.13c2.36-.7,4.35-1.21,5.75-1.55l2.13-.5Z" style="fill:#251f12"/><path d="M105.68,22.57l-2.18-1.44-2.44-1.24c-1-.41-2.19-.94-3.5-1.39a59.25,59.25,0,0,0-9.21-2.39c-1.72-.36-3.53-.52-5.35-.76-1.84-.09-3.71-.33-5.58-.26a45.12,45.12,0,0,0-5.59.25,52.9,52.9,0,0,0-5.35.82,36.13,36.13,0,0,0-4.84,1.49l-2.19.88c-.68.33-1.3.73-1.92,1.07a15.1,15.1,0,0,0-3.16,2.18,10.87,10.87,0,0,0-2.18,2l-1.73,2,1.61-2.06a10.71,10.71,0,0,1,2.09-2.17,15.84,15.84,0,0,1,3.09-2.4c.61-.38,1.22-.83,1.9-1.21l2.18-1a37.21,37.21,0,0,1,4.88-1.81c1.75-.41,3.56-.91,5.44-1.16a49.42,49.42,0,0,1,5.73-.58c1.92-.17,3.85,0,5.76-.06,1.89.15,3.77.2,5.56.47a62.34,62.34,0,0,1,9.75,2c1.42.39,2.68.89,3.82,1.27l3,1.33,2.27,1.31Z" style="fill:#251f12"/><path d="M26.5,53.33a7.76,7.76,0,0,1-1.28,0c-.56,0-.82-.12-1.34-.19l-1.52-.25a17.65,17.65,0,0,0-7.85.31,12.2,12.2,0,0,0-2,.85,8.71,8.71,0,0,0-1.76,1.14,12.79,12.79,0,0,0-2.65,2.73A14.14,14.14,0,0,0,6.65,60.2l-.52.92.38-1a15,15,0,0,1,1.17-2.55,13.7,13.7,0,0,1,2.37-3.25,9.86,9.86,0,0,1,1.75-1.51,13.93,13.93,0,0,1,2.07-1.26A19.77,19.77,0,0,1,22.58,50l1.61,0c.4,0,.94,0,1.06,0a5.75,5.75,0,0,0,.82-.09Z" style="fill:#251f12"/><path d="M192.87,72.59a5.18,5.18,0,0,0-1.79,3.33s-.74-1.29-1.33-.37-2.21,1.4-2.54,1.78a.76.76,0,0,0,0,.86s-2.26-.21-3,.44-.48,1.18-.48,1.18-.16-.59-1.24-.38-.22,1-.22,1-1.4-.85-2.1-.63a.82.82,0,0,0-.54,1s-1.75-1.37-3.19-.27a1.59,1.59,0,0,0-.64,1,5.13,5.13,0,0,0-2.55-.88c-1,.13.33-2.2.66-2.47s-1.08-1.18,3.45-1.61S192.87,72.59,192.87,72.59Z" style="fill:#251f12"/><path d="M117.32,72.74c12.79,3.7,16.4,7.7,16.4,7.7s2.2-2.91,4.59-.76,5.85-.43,8.16,1,3.74,2.45,3.74,2.45a1.57,1.57,0,0,1,2.47-.72s0-2.45,2.71-.14c0,0,2.27-2,6.1-.15s5.41-.72,7.14.43c0,0,1.44-1.87,3.45.58,0,0-2-2.49,1.2-2.59S172.8,75,169.06,75s-20,1.51-21.81,2S117.32,72.74,117.32,72.74Z" style="fill:#251f12"/><path d="M115.77,74.1c7.31,4.74,7.84,10.3,9.45,11.88,4.49,4.41,2.95,8.32,5.29,13.16S135,113.73,131.67,118c-2.51,3.26-15.2-1.55-15.2-1.55l-6.8-23.19Z" style="fill:#251f12"/><path d="M92.78,200c-5.93,24.34,5.75,36,31.35,44.43s68,18.53,79.44,10.32,12.69-20.74.79-27.18c0,0-15.56,7.77-46.22-4.8-27.68-11.34-45.36-31-52.62-57.83-.09.07-1,.23-1.08,0-.7-1.82-6.16,1.66-7.52,1.21s-1.63,1.83-1.63,1.83-2.7-1.38-4.62,3.16h0C93.8,178.16,95.78,187.67,92.78,200Z" style="fill:#251f12"/><path d="M.48,94.39c-2.22,30.36,3.1,46.57,19.47,73,4.54,7.31,13.41,15.77,19.43,22.14,6.41,6.8,17.35,13.11,28.69,15.59,0,0-27.34-43.23-14.42-50.25s28.18,2.32,28.18,2.32c1.66,2.52,5.79,7.08,8.84,14h0c1.92-4.54,4.62-3.16,4.62-3.16s1.28-2.12,5-2c1.43,0,5.5,0,5.27-1-6.48-28.25,14-36.14,24.6-44.95,10.25-8.49-14.66-45.13-14.9-47.66-14.36-7.09-34-8.54-56.41-8.93-34.55-.62-48.9,4.73-48.9,4.73S1.74,77.24.48,94.39" style="fill:#251f12"/><path d="M122.22,78.84s-.18-.23-.47-.54a17.84,17.84,0,0,0-1.62-1.44,37.79,37.79,0,0,0-6.91-4A75.51,75.51,0,0,0,102.39,69a132.22,132.22,0,0,0-12.94-2.81c-4.47-.68-9-1.29-13.17-1.64S68.1,64,64.71,63.72c-6.78-.24-11.31-.33-11.31-.33s4.53,0,11.32.06c3.39.18,7.37.17,11.6.55s8.76.76,13.26,1.33,9,1.47,13.11,2.52a78.92,78.92,0,0,1,11.12,3.64,38.36,38.36,0,0,1,7.32,4.06A16.16,16.16,0,0,1,123,77.12c.44.46.61.68.61.68Z" style="fill:#edc4b0"/><path d="M191,69.45l1.1-2.3c.27-.7.58-1.56.94-2.55s.65-2.23,1-3.54.61-2.76.78-4.31.42-3.19.53-4.89.14-3.47.18-5.27-.07-3.63-.29-5.45-.42-3.63-.71-5.41-.75-3.5-1.18-5.16a44.21,44.21,0,0,0-1.62-4.68c-.31-.72-.61-1.43-.9-2.12l-1-1.88a19.59,19.59,0,0,0-2-3.18A14,14,0,0,0,186,16.44l-1.74-1.85,1.84,1.76A14.72,14.72,0,0,1,188,18.54a21.74,21.74,0,0,1,2.19,3.1l1.13,1.87,1,2.1a46.06,46.06,0,0,1,1.9,4.68c.52,1.66,1.06,3.4,1.46,5.19a55.32,55.32,0,0,1,1,5.49c.32,1.85.41,3.72.58,5.56s.17,3.66.1,5.42-.11,3.46-.29,5.08-.39,3.13-.59,4.53-.56,2.68-.82,3.82-.68,2.15-.94,3c-.62,1.5-1,2.35-1,2.35Z" style="fill:#251f12"/><path d="M191.57,42.48s0-1,.1-2.7c0-.82-.15-1.74-.23-2.85s-.43-2.41-.79-3.78a37.86,37.86,0,0,0-1.49-4.38,42.75,42.75,0,0,0-2.2-4.7,47.35,47.35,0,0,0-3-4.71l-1.72-2.3-1.93-2.16a43.59,43.59,0,0,0-4.21-4,37,37,0,0,0-4.6-3.21,31.45,31.45,0,0,0-4.69-2.39,38.27,38.27,0,0,0-4.47-1.53c-1.4-.42-2.76-.54-3.93-.79a17.53,17.53,0,0,0-3.08-.28l-2.71-.12h2.72a16.5,16.5,0,0,1,3.11.14,39,39,0,0,1,4,.6,37.09,37.09,0,0,1,4.62,1.34A32,32,0,0,1,172,6.9,37.7,37.7,0,0,1,176.88,10a46,46,0,0,1,4.53,3.88L183.52,16l1.9,2.3A51.72,51.72,0,0,1,188.75,23a42.59,42.59,0,0,1,2.55,4.83,38.13,38.13,0,0,1,1.8,4.57c.46,1.46.77,2.83,1.05,4.06s.35,2.44.42,3.34c0,1.72,0,2.71,0,2.71Z" style="fill:#251f12"/><path d="M167.05,53.35s-.17-.81-.45-2.22-.74-3.4-1.24-5.77l-1-3.77c-.49-1.3-.88-2.7-1.47-4.09-.27-.69-.56-1.4-.84-2.11s-.68-1.39-1-2.1a33.41,33.41,0,0,0-2.37-4.09,33.11,33.11,0,0,0-2.83-3.77,33.8,33.8,0,0,0-3.24-3.21c-1.09-1-2.28-1.8-3.38-2.64a36,36,0,0,0-3.35-1.93,39.7,39.7,0,0,0-5.38-2.32l-2.13-.74,2.24.31a24.56,24.56,0,0,1,2.55.55,20.29,20.29,0,0,1,3.24,1A37.63,37.63,0,0,1,150,18.16a27.68,27.68,0,0,1,3.79,2.52,27,27,0,0,1,3.6,3.29,34.47,34.47,0,0,1,3.1,4A36.3,36.3,0,0,1,163,32.33a33.54,33.54,0,0,1,1.77,4.5,39.37,39.37,0,0,1,1.18,4.35c.25,1.39.49,2.72.7,3.94a54.89,54.89,0,0,1,.43,6C167,52.52,167.05,53.35,167.05,53.35Z" style="fill:#453f34"/><path d="M97.56,18.5l.79.35a9,9,0,0,1,2.09,1.32A25.77,25.77,0,0,1,106,27c1.87,3.13,3.83,6.88,5.8,10.92s4.12,8.32,6.58,12.38a70.23,70.23,0,0,0,7.94,11.39c1.46,1.67,2.93,3.22,4.4,4.63A52.64,52.64,0,0,0,135.12,70c1.45,1,2.8,2,4,2.69s2.38,1.31,3.3,1.83l3,1.41s-1.16-.34-3.17-1c-1-.42-2.2-.84-3.52-1.49a37.37,37.37,0,0,1-4.37-2.38,54.48,54.48,0,0,1-4.78-3.48A44.15,44.15,0,0,1,124.84,63a71.88,71.88,0,0,1-8.43-11.55c-2.43-4.21-4.5-8.59-6.4-12.68s-3.46-8-5.13-11.15a28.43,28.43,0,0,0-4.73-7.13A11.12,11.12,0,0,0,98.3,19Z" style="fill:#453f34"/><path d="M127.9,18.5a51.64,51.64,0,0,1,8.93,4.55c1.23.87,2.64,1.71,4,2.79a46.18,46.18,0,0,1,4.24,3.45c1.45,1.23,2.77,2.69,4.17,4.11,1.25,1.55,2.66,3,3.81,4.71a48.48,48.48,0,0,1,3.25,5.12l1.43,2.61,1.13,2.67c.35.89.77,1.73,1,2.6s.5,1.75.73,2.59.47,1.64.69,2.43.28,1.59.41,2.34c.24,1.49.49,2.86.58,4.08s.06,2.29.08,3.17c0,1.75,0,2.75,0,2.75L162,65.76c-.13-.86-.3-1.9-.48-3.09s-.67-2.49-1-3.93c-.19-.71-.34-1.47-.57-2.23s-.56-1.52-.85-2.31a38.94,38.94,0,0,0-2-4.88l-1.19-2.53-1.44-2.47a47.35,47.35,0,0,0-3.19-4.87c-1.07-1.64-2.42-3.08-3.6-4.59-1.36-1.37-2.54-2.88-3.91-4.11s-2.6-2.53-3.9-3.62-2.55-2.09-3.7-3-2.27-1.72-3.28-2.39S131,20.42,130.22,20Z" style="fill:#453f34"/><path d="M141.71,22.54a29.05,29.05,0,0,1,5.58,3.29,39.43,39.43,0,0,1,5,4.37,43.44,43.44,0,0,1,4.86,5.93c.77,1.06,1.38,2.22,2.05,3.32s1.13,2.29,1.68,3.38a34.15,34.15,0,0,1,1.29,3.28,22.88,22.88,0,0,1,.89,3,29.66,29.66,0,0,1,.86,4.62c.15,1.12.21,1.76.21,1.76s-.25-.6-.64-1.66c-.18-.53-.41-1.16-.67-1.9s-.66-1.52-1-2.4-.73-1.84-1.23-2.8-.92-2-1.51-3a60.58,60.58,0,0,0-3.81-6.29,61.32,61.32,0,0,0-4.46-5.86c-1.53-1.79-3-3.4-4.4-4.73A54.13,54.13,0,0,0,141.71,22.54Z" style="fill:#453f34"/><path d="M178,72.92l.6-.86a15.88,15.88,0,0,0,1.13-2.7,29.76,29.76,0,0,0,.92-4.47,58.4,58.4,0,0,0,.43-5.9,65.13,65.13,0,0,0-1.55-14.68,54,54,0,0,0-2.33-8,48.69,48.69,0,0,0-3.67-7.68,42.07,42.07,0,0,0-5-6.85,34.32,34.32,0,0,0-6.2-5.36,37.2,37.2,0,0,0-6.75-3.67,37.59,37.59,0,0,0-6.62-2.1,24,24,0,0,0-3-.59c-1-.14-1.9-.34-2.78-.42-1.76-.12-3.31-.32-4.58-.32l-4-.06,4-.38c1.29-.11,2.85-.05,4.65-.09a42.19,42.19,0,0,1,6,.6,39.47,39.47,0,0,1,7,1.81,32.11,32.11,0,0,1,7.25,3.58,36.22,36.22,0,0,1,6.66,5.56,42.92,42.92,0,0,1,5.39,7.13,51.37,51.37,0,0,1,3.71,8.11,55.31,55.31,0,0,1,2.26,8.29,58.73,58.73,0,0,1,.9,15.13,36.4,36.4,0,0,1-2.2,10.46,12.88,12.88,0,0,1-1.46,2.64Z" style="fill:#453f34"/><path d="M170.21,18.5a19.08,19.08,0,0,1,1.51,1.21,27.54,27.54,0,0,1,3.5,3.76,29.19,29.19,0,0,1,1.92,2.87,31.17,31.17,0,0,1,1.79,3.41,42.89,42.89,0,0,1,2.69,7.92c.27,1.39.63,2.77.78,4.16s.41,2.74.45,4.07a53.41,53.41,0,0,1,.06,7.23c0,2.1-.41,3.85-.51,5.06s-.28,1.91-.28,1.91-.06-.7-.16-1.92-.13-3-.36-5c-.08-1-.18-2.15-.28-3.34s-.3-2.41-.46-3.69-.45-2.58-.62-3.92-.55-2.66-.83-4a56.57,56.57,0,0,0-2.32-7.66c-.47-1.19-.92-2.34-1.44-3.39s-1-2-1.51-2.95A35.79,35.79,0,0,0,171.4,20Z" style="fill:#453f34"/><path d="M101.58,13.27l3.46.3a73.07,73.07,0,0,1,9,1.72c1.82.54,3.83,1,5.88,1.8a58.67,58.67,0,0,1,6.41,2.5c2.18,1,4.39,2.09,6.58,3.33l3.28,1.92c1.07.68,2.11,1.42,3.17,2.14a69.17,69.17,0,0,1,5.94,4.8,62.33,62.33,0,0,1,5.13,5.32c.76.94,1.6,1.78,2.25,2.73s1.27,1.91,1.88,2.82a48.56,48.56,0,0,1,3,5.4,38.54,38.54,0,0,1,2,4.82,24.34,24.34,0,0,1,1.12,3.85c.5,2.15.78,3.38.78,3.38s-.44-1.18-1.2-3.25a22.94,22.94,0,0,0-1.49-3.66c-.72-1.35-1.32-3-2.31-4.55a48,48,0,0,0-3.26-5A56,56,0,0,0,149,38.41a62,62,0,0,0-5.07-5,72.42,72.42,0,0,0-5.85-4.54c-1-.71-2-1.46-3-2.14l-3.15-1.93c-2.1-1.24-4.24-2.37-6.34-3.38s-4.16-2-6.17-2.74-3.9-1.47-5.67-2.12L108.81,15,105,14Z" style="fill:#453f34"/><path d="M86.88,22.54s.82.37,2.18,1.13c.6.49,1.42,1.06,2.24,1.82a24.34,24.34,0,0,1,2.49,2.73A73.1,73.1,0,0,1,99,35.79c1.75,2.86,3.49,6,5.28,9s3.58,6.1,5.38,8.86c.94,1.35,1.77,2.72,2.7,3.9a30.24,30.24,0,0,0,2.66,3.31,30.33,30.33,0,0,0,2.46,2.61,14.89,14.89,0,0,0,2.08,1.86l1.92,1.52-2.17-1.16A14.59,14.59,0,0,1,117,64.15a19.37,19.37,0,0,1-2.84-2.37,31.79,31.79,0,0,1-3-3.16,43,43,0,0,1-3.06-3.8A100.61,100.61,0,0,1,102.36,46c-1.78-3.11-3.47-6.23-5-9.16-.83-1.43-1.53-2.89-2.32-4.18S93.51,30.07,92.77,29s-1.47-2-2.09-2.92-1.33-1.44-1.85-2Z" style="fill:#453f34"/><path d="M84.93,29.91l2.32,4.89c1.39,2.93,3.31,6.79,5.37,10.55,1,1.89,2.12,3.72,3.18,5.42a53.49,53.49,0,0,0,3.14,4.49c.49.64,1,1.17,1.4,1.68a12.15,12.15,0,0,0,1.16,1.24c.68.67,1.06,1.06,1.06,1.06l-1.25-.84a12,12,0,0,1-1.36-1,20,20,0,0,1-1.65-1.52,40.11,40.11,0,0,1-3.61-4.31c-.56-.85-1.22-1.7-1.75-2.63S91.81,47,91.29,46.08a72.19,72.19,0,0,1-4.82-10.95C85.41,32,84.93,29.91,84.93,29.91Z" style="fill:#453f34"/><path d="M117.32,34a9.94,9.94,0,0,1,1.75.81,44.69,44.69,0,0,1,4.3,2.75A60.67,60.67,0,0,1,134.6,48.16,54,54,0,0,1,139.31,55a44,44,0,0,1,3,6.59c.32,1,.58,2,.81,2.78s.3,1.59.43,2.18c.21,1.22.29,1.91.29,1.91l-.71-1.79c-.24-.56-.43-1.27-.82-2s-.79-1.61-1.21-2.55-1-1.88-1.59-2.91-1.29-2-1.94-3.15a79.22,79.22,0,0,0-4.77-6.46c-1.7-2.14-3.54-4.18-5.31-6.06s-3.48-3.57-5-5-2.78-2.61-3.71-3.39S117.32,34,117.32,34Z" style="fill:#453f34"/><path d="M130.6,42.62a4.26,4.26,0,0,1,.81.25,11,11,0,0,1,2,1.06,18.4,18.4,0,0,1,4.7,4.83,23.19,23.19,0,0,1,2.93,6,19.59,19.59,0,0,1,.54,2.14c.11.53.14.84.14.84s-.21-.23-.54-.65l-1.3-1.75c-1-1.46-2.34-3.4-3.64-5.3s-2.62-3.78-3.71-5.15A23.21,23.21,0,0,0,130.6,42.62Z" style="fill:#453f34"/><path d="M117.32,25.77A55.36,55.36,0,0,1,123.57,30c1.76,1.43,3.85,3.08,5.89,5.06a72.22,72.22,0,0,1,6.1,6.52c1,1.17,1.85,2.42,2.76,3.61s1.65,2.48,2.4,3.7a51.86,51.86,0,0,1,3.4,7.05c.38,1.08.68,2.09.94,3a19.6,19.6,0,0,1,.51,2.35c.22,1.3.34,2.05.34,2.05l-.77-1.93a18.15,18.15,0,0,0-.88-2.19c-.41-.81-.86-1.73-1.31-2.74l-1.75-3.13c-.65-1.1-1.45-2.18-2.16-3.37-1.59-2.27-3.33-4.67-5.24-6.94S130,38.51,128,36.48s-3.7-3.94-5.31-5.5-2.92-2.91-3.91-3.79Z" style="fill:#453f34"/><path d="M46.21,35.18a8.49,8.49,0,0,1,1.43.29,30.92,30.92,0,0,1,3.64,1.24,47,47,0,0,1,10.19,5.7,38.86,38.86,0,0,1,4.74,4.11,35.28,35.28,0,0,1,3.47,4.23,23.34,23.34,0,0,1,1.89,3.37l.58,1.33-.84-1.18a37.37,37.37,0,0,0-2.31-3,49.79,49.79,0,0,0-3.71-3.8,60.07,60.07,0,0,0-4.72-3.85c-1.65-1.24-3.39-2.39-5-3.43s-3.22-2-4.61-2.71-2.54-1.35-3.38-1.74S46.21,35.18,46.21,35.18Z" style="fill:#453f34"/><path d="M57.56,39a6.53,6.53,0,0,1,2.27.49,14.43,14.43,0,0,1,4.32,2.67A18.39,18.39,0,0,1,67.44,46a14,14,0,0,1,1.11,2s-.75-.56-1.75-1.46l-3.65-3.22c-1.31-1.15-2.64-2.29-3.72-3.06A18.64,18.64,0,0,0,57.56,39Z" style="fill:#453f34"/><path d="M50.39,33.7a31.68,31.68,0,0,1,4.3,1.51c1.24.56,2.71,1.2,4.21,2a43.35,43.35,0,0,1,4.53,2.88,37.41,37.41,0,0,1,4.11,3.5,33,33,0,0,1,3,3.62,17.24,17.24,0,0,1,1.62,2.91l.5,1.15s-.28-.36-.75-1-1.2-1.48-2-2.52-2-2.06-3.26-3.18S64,42.39,62.54,41.36s-2.91-2.06-4.33-3-2.73-1.76-3.9-2.43Z" style="fill:#453f34"/><path d="M69.06,35.43a32.29,32.29,0,0,1,3.64,2.74c1,.92,2.22,2,3.39,3.23a43.26,43.26,0,0,1,3.44,4.13,37.51,37.51,0,0,1,2.85,4.58,31.57,31.57,0,0,1,1.77,4.37,18.46,18.46,0,0,1,.67,3.26c.07.79.12,1.25.12,1.25l-.41-1.19c-.19-.77-.69-1.78-1.17-3s-1.31-2.59-2.15-4-1.83-2.91-2.9-4.34-2.15-2.85-3.22-4.14-2.08-2.5-3-3.5Z" style="fill:#453f34"/><path d="M41.7,42a9.32,9.32,0,0,1,2.89,0,15.88,15.88,0,0,1,6,2.27,17.47,17.47,0,0,1,2.69,2.12,18.42,18.42,0,0,1,1.93,2.27,11.73,11.73,0,0,1,1.09,1.78c.24.44.36.7.36.7s-.23-.18-.59-.52-.88-.84-1.5-1.39a33.55,33.55,0,0,0-4.79-3.68A27.05,27.05,0,0,0,47,44a24.62,24.62,0,0,0-2.57-1.15A23.89,23.89,0,0,0,41.7,42Z" style="fill:#453f34"/><path d="M29.13,48a15.55,15.55,0,0,1,3.33-1.61,20.87,20.87,0,0,1,3.7-1,18.36,18.36,0,0,1,4.41-.17,15.38,15.38,0,0,1,4.33,1,8.67,8.67,0,0,1,1.84.87,9.45,9.45,0,0,1,1.54,1,11.13,11.13,0,0,1,2,1.8l.67.75-.86-.53a17.18,17.18,0,0,0-2.27-1.29,15.39,15.39,0,0,0-3.36-1.31,18.67,18.67,0,0,0-4-.75,24.8,24.8,0,0,0-4.13,0,31.26,31.26,0,0,0-3.63.45C30.56,47.59,29.13,48,29.13,48Z" style="fill:#453f34"/><path d="M139.13,36.4a43.37,43.37,0,0,1,5.23,4.7,51.33,51.33,0,0,1,4.6,5.58,52.89,52.89,0,0,1,4.31,7.13c.55,1.31,1.17,2.6,1.65,3.92a34.08,34.08,0,0,1,1.19,4,25.87,25.87,0,0,1,.69,3.8,24.88,24.88,0,0,1,.22,3.45c0,1.07-.09,2-.15,2.9s-.29,1.6-.4,2.2c-.24,1.21-.41,1.89-.41,1.89s0-.7,0-1.93c0-.61.05-1.34,0-2.18s-.22-1.78-.3-2.8-.41-2.1-.6-3.24a36.27,36.27,0,0,0-.94-3.56c-.28-1.24-.91-2.42-1.31-3.69s-1.1-2.47-1.64-3.72-1.21-2.45-1.9-3.61-1.3-2.33-2-3.4c-1.34-2.2-2.75-4.16-3.94-5.86C140.94,38.56,139.13,36.4,139.13,36.4Z" style="fill:#453f34"/><path d="M191.59,36.4a6.9,6.9,0,0,1,.47,1.62,36.34,36.34,0,0,1,.66,4.38,58,58,0,0,1,.22,6.28,54.66,54.66,0,0,1-.64,7.18c-.25,1.21-.41,2.43-.73,3.6a33,33,0,0,1-1,3.42A25.77,25.77,0,0,1,189.43,66c-.45,1-.78,1.9-1.26,2.7a25.33,25.33,0,0,1-2.34,3.77l-1,1.36.74-1.51.86-1.7c.28-.69.59-1.46,1-2.28s.64-1.76,1-2.73.6-2,.93-3.1.53-2.22.82-3.37.43-2.34.66-3.51a89.68,89.68,0,0,0,1.06-13.18c0-1.81,0-3.33-.1-4.38A9.87,9.87,0,0,0,191.59,36.4Z" style="fill:#453f34"/><path d="M98.54,31.3s.21.45.61,1.18l1.66,3.05c1.37,2.52,3.15,5.87,5,9.15s3.78,6.54,5.28,9c.76,1.21,1.35,2.26,1.84,2.94s.69,1.15.69,1.15-.39-.3-1-.86a29.31,29.31,0,0,1-2.53-2.44,46.61,46.61,0,0,1-6.23-8.65A52.25,52.25,0,0,1,99.61,36c-.44-1.39-.69-2.58-.87-3.41A7.4,7.4,0,0,1,98.54,31.3Z" style="fill:#453f34"/><path d="M107.52,24.81s1.31,3,3.39,7.47c1,2.23,2.32,4.79,3.7,7.52s2.91,5.62,4.6,8.42c.78,1.43,1.66,2.8,2.49,4.17s1.77,2.64,2.61,3.91l2.61,3.55c.86,1.09,1.74,2.08,2.53,3s1.63,1.67,2.3,2.4A16.39,16.39,0,0,0,133.66,67l1.71,1.47-1.89-1.23a15.9,15.9,0,0,1-2.1-1.55c-.76-.66-1.68-1.35-2.55-2.23a59,59,0,0,1-5.58-6.38c-.88-1.28-1.87-2.55-2.73-3.93s-1.81-2.74-2.62-4.18c-1.65-2.86-3.14-5.81-4.47-8.59s-2.38-5.48-3.3-7.77C108.37,28,107.52,24.81,107.52,24.81Z" style="fill:#453f34"/><path d="M70.55,27.42a17,17,0,0,1,4.23,2.09,32.2,32.2,0,0,1,3.84,3,39.14,39.14,0,0,1,3.8,4.08,42.26,42.26,0,0,1,5.44,8.84c.66,1.25,1,2.4,1.32,3.15s.43,1.21.43,1.21l-.7-1.08c-.43-.7-1-1.69-1.79-2.87s-1.65-2.53-2.64-4c-.46-.73-1-1.41-1.56-2.16s-1.12-1.45-1.68-2.18a54.17,54.17,0,0,0-7-7.33A28.71,28.71,0,0,0,70.55,27.42Z" style="fill:#453f34"/><path d="M108.57,174.24c1.56,3.73,7.67,11.09,7.67,11.52s1.41,5.79,2.85,7.68,6.5,5.28,6.5,5.28.13,2.61,1.14,3.61a16.21,16.21,0,0,0,3.47,2.14s-.3.91.84,1.9,2.57,2.15,2.57,2.15l2.2.87a21,21,0,0,0,3.38,3.27c1.52,1,5.55,3.06,5.55,3.06a34.55,34.55,0,0,0,4,2.69c1.61.82,6.75.88,8.06,2.62s5.47,2.3,5.9,2.3,1.08,1.67,3.86,2.52a27.13,27.13,0,0,0,6.21.93l3.17,1.58L159.42,234S117.25,221,117,220.16s-10.08-28.78-10.51-30.37S108.57,174.24,108.57,174.24Z" style="fill:#251f12"/><path d="M204.36,227.56a5.28,5.28,0,0,1-2.79,0s.43,1-1.31,1.32-2-.66-2-.66-.62,1.17-1.25,1.25a4.24,4.24,0,0,1-1.78-.5,2.78,2.78,0,0,1-1.7.86,3.72,3.72,0,0,1-2-.78s.36.74-1.87.78-5.34-1.76-5.34-1.76-.33,1.15-3.46,1.15-3.93-1.66-3.93-1.66a2.42,2.42,0,0,1-2.54,0c-1.56-.78-2.84,2.31-2.84,2.31s13.3,10,15.62,10.41,16.12-2.59,16.47-4S204.36,227.56,204.36,227.56Z" style="fill:#251f12"/><path d="M179.18,215.72c.53-1.18,3.73-7.27,7-8.54,2.24-.86,5.85-4.45,7.07-4.82s1.56-4.65,1.56-4.65l-7.84,2.4s-6,7.39-6.16,7.82S179.18,215.72,179.18,215.72Z" style="fill:#251f12"/><path d="M196.47,189.48a46.22,46.22,0,0,0-11.68,6.32c-1.62,1.3-8.16,10-6.74,14.25s16.34-14.57,16.34-14.57Z" style="fill:#251f12"/><path d="M121.52,126.27c-5.78,3.17-15.78,18.72-15.12,21.5s-1.8,3.76-1.3,5.07.42,12.09.42,12.09L89.06,147s14.39-32.89,15.38-33.38S121.52,126.27,121.52,126.27Z" style="fill:#251f12"/><path d="M90.67,171.1c-3-6.88-7.18-11.44-8.84-14-5.3-6.67-20-17.71-33.09-9.94s-2.67,27.66,6,36.56C59,188.2,60.86,193.82,64,199.62c6.21,11.45,19.7,9.62,27.79,5.45,0,0-.27,2-.25,2a54.05,54.05,0,0,1,1.23-7.1C95.78,187.67,93.8,178.16,90.67,171.1Z" style="fill:#edc4b0"/><path d="M190.85,192.62c-8.13,4.57-15.74,13-11.67,23.1,0,0,4-10.79,15.35-13.72s15.84-2,17.1-4.19c.27-2.94-1-5.68-2.15-8.06a16,16,0,0,1-1.43-5.24C201.66,186.55,199.9,187.52,190.85,192.62Z" style="fill:#251f12"/><path d="M189.17,206.71c3,.59,17.67-1.52,17.67-1.52l.92,1.3S202.17,208.5,189.17,206.71Z" style="fill:#d9a191;opacity:0.5"/><path d="M184,144.45c.81-4.23,1.55-3.61,3.52-5.21s1.47-5.17,3.07-6,3.93-4.36,2.09-7.18-8.39-6.76-22.08-4.43-11.12,3.07-6,2.42c7.43-.94-.3,6.84-2.65,8.62-3.63,2.75-6.89,5.74.06,7.12S184,144.45,184,144.45Z" style="fill:#b89584;opacity:0.30000000000000004;mix-blend-mode:multiply"/><path d="M183.15,133.27c-2.13-5-3.47-5.45-5.68-5-2.81.52-23.17,12.4-14.28,11.73S183.15,133.27,183.15,133.27Z" style="fill:#b89584;opacity:0.30000000000000004;mix-blend-mode:multiply"/><path d="M210.59,181.33c-3.81-1.49-12.74-.68-14,1.84s3.89.75,5.82.32S212.41,181.81,210.59,181.33Z" style="fill:#b89584;opacity:0.5;mix-blend-mode:multiply"/><path d="M210.59,181.33c-3.81-1.49-12.74-.68-14,1.84s3.89.75,5.82.32S212.41,181.81,210.59,181.33Z" style="fill:#b89584;opacity:0.5;mix-blend-mode:multiply"/><path d="M221.73,177.29c-4,4-11.14,4-11.14,4,1.82.48-6.28,1.72-8.22,2.16-1.63.36-5.55,1.65-6,.53-1.27,1.36-.95,3-3.23,1.08-3.26-2.79-1.94-10.64.1-11.63-3.62,1.38-6.12,7.13-3.86,10.56s5.14,5.1,10.59,3.11c1.56-.57,4.79-.91,8.17-1.4a4.9,4.9,0,0,1-.14-1.23C216.78,182.53,220.56,180,221.73,177.29Z" style="fill:#b89584;opacity:0.30000000000000004;mix-blend-mode:multiply"/><path d="M198,119.61c-.23,4.8-.5,8.13-5.07,7.69s-14.5-4.18-29.07-2.67c-7.36.76-20,6.55-20.22,5s6.31-9.37,17-12S198.16,116.81,198,119.61Z" style="fill:#251f12"/><path d="M188.06,131.05c.21.7,3.38,1.82-4.91,2.22s.3,6.16.3,6.16,1.53,3.71.58,5-12.23,1.5-19.25-1.89c-4.45-2.15-6.06-3.2-1.77-5.09s7-3.77,15.11-5.89C186.71,129.33,187.83,129.61,188.06,131.05Z" style="fill:#0a0a0a"/><path d="M163.19,140c-1-1.32,7.43-6.09,20-6.7,0,0,2.08,1,1.78,5.38s-1.59,5.69-8.73,5.47S165.1,142.56,163.19,140Z" style="fill:#e8e1d8"/><path d="M183.15,133.27c-1,0-2,.14-3,.24a4.78,4.78,0,0,0-3.74,4.29c-.41,2.72,1.39,5.81,4.44,6.1,3.1-.54,3.87-2.09,4.08-5.25C185.23,134.29,183.15,133.27,183.15,133.27Z" style="fill:#1c6691"/><path d="M181.34,143.7a5.1,5.1,0,0,1-4.28-5.87,4.6,4.6,0,0,1,3.6-4.13c.9-.1,1.82-.18,2.78-.22a2.46,2.46,0,0,0-.29-.21c-1,0-2,.14-3,.24a4.78,4.78,0,0,0-3.74,4.29c-.41,2.72,1.39,5.81,4.44,6.1a6.24,6.24,0,0,0,2-.64A6.65,6.65,0,0,1,181.34,143.7Z" style="fill:#1c6691;opacity:0.5;mix-blend-mode:multiply"/><path d="M169.62,135.79c-4.51,1.58-8.13,3.29-7.58,4,1.46,2,5.33,3.4,9.76,4C163.86,142.56,166.62,137.24,169.62,135.79Z" style="fill:#5e4e46"/><path d="M171.06,143.69a2.21,2.21,0,0,0-.43-.08Z" style="fill:#5e4e46"/><path d="M181.23,138.13a2.57,2.57,0,0,0,3.44,2.53,14.82,14.82,0,0,0,.26-2,10.62,10.62,0,0,0-.19-3.08,2.5,2.5,0,0,0-.82-.17A2.68,2.68,0,0,0,181.23,138.13Z" style="fill:#0a0a0a"/><path d="M183.14,135.33c.36.58-.06,1.5-.95,2.06s-1.9.55-2.26,0,.06-1.5.94-2.06S182.78,134.76,183.14,135.33Z" style="fill:#fff"/><path d="M183.24,140.94c-.09.37-.63.55-1.19.4s-.94-.57-.84-.94.63-.53,1.19-.39S183.34,140.58,183.24,140.94Z" style="fill:#fff"/><path d="M468.08,194.89a27.13,27.13,0,0,0-.82-11.19c-1.75-5.82-4.31-22.82-4.31-22.82l-3.5-11.65S453,106.72,446.4,97.28c0,0-5.36-.93-3.61,4.89s1.28,8.51,1.28,8.51-3.14,2.21-3.61,4.89,2.1,19.68,2.1,19.68l-2.68-.46s-2.68-.47-3.61,4.89,3.5,11.65,3.5,11.65l5.71,14.79,2.21,3.14-.11,16.54.81,11.19L422,206.19l-.13-46.94s-4.43-6.29-7.57-4.07a101.75,101.75,0,0,0-1,21.89c.81,11.19.35,13.86.35,13.86l4.66,36.69s1.28,8.51.82,11.19a18.18,18.18,0,0,1-2.63,5.79l30.24,10,21.42-59.75" style="fill:#fcb8a4"/><path d="M446.6,59l2.51.44s.22-1.26.83,2.73,1.82,131.28,1.82,131.28l-.44,2.52s-.12,2.57-4.27,3.15" style="fill:#e1e1d8"/><path d="M420.24,195.75l.42-121.81s-.6-4,1.09-6.29l23.59-8.87,1.26.22s.22-1.26,1,1.48L449,194.27a5.69,5.69,0,0,1-3.61,5.86c-4.22,1.86-19.37,7-19.37,7s-4,.6-4.6-3.4Z" style="fill:#fff"/><polygon points="421.7 75.42 421.72 194.72 446.78 184.81 445.29 66.55 421.7 75.42" style="fill:#465a65"/><path d="M429.52,67.7a1.26,1.26,0,0,0,1,1.48,4.47,4.47,0,0,0,2.74-.82s2.74-.82.44-2.52Z" style="fill:#465a65"/><path d="M468.08,194.89a27.13,27.13,0,0,0-.82-11.19c-1.75-5.82-4.31-22.82-4.31-22.82l-3.5-11.65S453,106.72,446.4,97.28c0,0-5.36-.93-3.61,4.89s1.28,8.51,1.28,8.51-3.14,2.21-3.61,4.89,2.1,19.68,2.1,19.68l-2.68-.46s-2.68-.47-3.61,4.89,3.5,11.65,3.5,11.65l5.71,14.79,2.21,3.14-.11,16.54.81,11.19-27.94,33.78-.47,2.68-.93,5.36-3.61,4.89,31.22,10.94,21.42-59.75" style="fill:#fecbba"/><polygon points="393.31 275.73 448.76 274.33 454.69 256.04 413.23 240.55 393.31 275.73 393.31 275.73" style="fill:#42a5f5"/><path d="M339.68,274.77s2.38-21.74,7.85-37.35,23.17-53.93,23.17-53.93a11.89,11.89,0,0,1,9.9-9.32c8.5-1.29,20.62-7.46,20.62-7.46l24.22-12.35s4.89,3.61,8,1.4a8.47,8.47,0,0,0,3.61-4.9s1.75,5.83-1.4,8-13,11.53-22,15.49l-9,4s-5.82,1.74-6.29,4.42,12.93,5,12.93,5,4.9,3.61,7.11,6.75,5.71,14.8,5.71,14.8,5.36.93,4.43,6.29a28.19,28.19,0,0,1-4.54,10.25s-1.87,10.71-6.76,7.1l-8-1.39L404.37,228s-16.77,33-20.38,37.85l-2.28,18.54Z" style="fill:#fecbba"/><polygon points="361.98 281.33 401.81 210.97 409.84 212.37 404.37 227.98 383.99 265.83 380.74 284.59 361.98 281.33" style="fill:#fcb8a4"/><path d="M425.09,154.15s.42,3.8,5.64,2.44,5.73-3.71,5.73-3.71l1-4.72Z" style="fill:#e19876"/><line x1="418.84" y1="71.99" x2="418.68" y2="154.78" style="fill:none;stroke:#e1e1d8;stroke-miterlimit:10"/><polygon points="338.34 274.46 332.4 292.75 387.61 324.42 388.77 285.98 338.34 274.46" style="fill:#42a5f5"/></g></svg>