<svg xmlns="http://www.w3.org/2000/svg" width="471.86" height="428.96" viewBox="0 0 471.86 428.96"><title>Recurso 8test</title><g style="isolation:isolate"><path d="M302.66,183S287.54,62.49,189.06,63.22L177.59,23.4s145.85,2.42,142.59,181.3Z" style="fill:#42a5f5"/><polygon points="182.68 82.68 151.23 0 131.93 49.14 182.68 82.68" style="fill:#42a5f5"/><path d="M91,336.37c27.67,20.5,5.33,51.87,5.55,66.36,0,0,56.7,32.53,118-3,0,0-4.75-55.13,14.18-64.53C243.6,327.82,91,336.37,91,336.37Z" style="fill:#edc4b0"/><path d="M75.81,324c3.48,3,12.76,10.2,20.52,16.5,25,20.31,23.63,32.87,23.63,32.87s-1.58-14.89,19.09-16.44c30.41-2.28,50.72-8,50.72-8L95.31,305.07Z" style="fill:#edc4b0"/><path d="M88.63,330.59c15.49-.15,54,15,59.5,16.39s8.61-14.36,3.46-19.83-13.89-22.86-25.73-18.58S88.63,330.59,88.63,330.59Z" style="fill:#edc4b0"/><path d="M109.18,331.73c2.16,6.16,1.06,21.59,1.06,21.59s-11.86-13.18-51.1-35c-14.69-8.15,10.55-4.31,10.55-4.31Z" style="fill:#251f12"/><path d="M231.37,265.38a15.46,15.46,0,0,0,3.08,4.48c3.33,3.38,7.58,7.65,2.85,15.36,0,0,7,5.89,4.21,10.91s-4,7.07.61,11.1-20.63,18.43-20.63,18.43L145.1,311.44l-43.51-38,9.28-35.93-17.82-52L149.92,171l26.59-9.64s33,35.24,34.27,44.66-2.67,14.29.85,19.49,18.77,17.1,24.29,20.72S247.92,255,231.37,265.38Z" style="fill:#edc4b0"/><path d="M5.67,249c2.88,8.74,8.4,18.89,16.29,29.11,4.15-1.23,8.37-2.26,12.55-3.34,10.9-2.79,21.54-6.59,32.36-9.69,12.41-3.54,6-2.67,18.75-4.71,5.24-.84-14.79-14.15-9.51-14.74,1.14-.13,18.82-4.62,20-4.68,1.23-9.69,18.71-4.93,23.07-12.17,7.14-11.84-14.32-38.34-12.52-38.72,2.34-.5,59.31.13,73.36-25.27,0,0,7.93-45-42.45-50.54S64.38,143.59,37.1,161.16s-38.64,50-31.22,59.92c0,0-5.59,11.58-.21,27.91" style="fill:#251f12"/><path d="M127.1,281.15a2,2,0,0,1,1-.33C128.81,280.81,128,280.9,127.1,281.15Z" style="fill:#251f12"/><path d="M174.83,161.68s-.35-1.86-1.27-5.16a97.23,97.23,0,0,0-4.83-13.28,71.33,71.33,0,0,0-10.52-16.88,45.76,45.76,0,0,0-8.18-7.62,37.46,37.46,0,0,0-10.16-5.42A41.33,41.33,0,0,0,128.54,111a52.57,52.57,0,0,0-11.28.72A71.93,71.93,0,0,0,107,114.32a89.77,89.77,0,0,0-8.85,3.61,80.22,80.22,0,0,0-7.22,3.67c-2.15,1.11-3.95,2.21-5.4,3.15l-4.62,2.9,4.54-3c1.43-1,3.2-2.13,5.32-3.31s4.44-2.62,7.14-3.88a88.73,88.73,0,0,1,8.83-3.87,71.89,71.89,0,0,1,10.37-2.94,54.53,54.53,0,0,1,11.54-1,43,43,0,0,1,11.83,2.09,39.52,39.52,0,0,1,10.79,5.39A48,48,0,0,1,160,124.8,74,74,0,0,1,171.37,142a100.7,100.7,0,0,1,5.37,13.58c1,3.36,1.47,5.4,1.47,5.4Z" style="fill:#251f12"/><path d="M235.77,279.72c-15.13,7.71-23.3,15.24-21.19,15s4.23,1.19,8.5,1.26,14.67,3.49,18.9-1.08c.93-3.44-2-7-3.62-8.72a15.68,15.68,0,0,0-1.3-.93c.25-.29.45-.56.67-.84,1.77-3.21,2-5.81,1.33-8C237.56,277.93,235.77,279.72,235.77,279.72Z" style="fill:#d9a191;opacity:0.5"/><path d="M169.47,167.79l.24-.27c-.11,0-.21.29-.19.26a1.69,1.69,0,0,0,0-.32,11.55,11.55,0,0,0-.79-3.77,62.58,62.58,0,0,0-7.18-13.79A92.67,92.67,0,0,0,147.14,133a65.89,65.89,0,0,0-21.49-13.5A47.8,47.8,0,0,0,113,116.68a44.9,44.9,0,0,0-12.52.78A57.91,57.91,0,0,0,80,126.28a90.09,90.09,0,0,0-12.4,10c-2.79,2.66-4.29,4.29-4.29,4.29s1.45-1.66,4.18-4.4a91.94,91.94,0,0,1,12.21-10.38,58.66,58.66,0,0,1,20.58-9.44,45.83,45.83,0,0,1,12.84-1.11,49.11,49.11,0,0,1,13.11,2.55,68.08,68.08,0,0,1,22.49,13.36A95.65,95.65,0,0,1,164,148.25a65.16,65.16,0,0,1,7.9,14.35,14.65,14.65,0,0,1,1.09,5,5,5,0,0,1-.12,1,3.73,3.73,0,0,1-.54,1.18l-.29.34Z" style="fill:#251f12"/><path d="M91.33,185.53s0-.45,0-1.11a7.47,7.47,0,0,1-.25-.83c-.21-.45-.34-1-.66-1.54a41,41,0,0,0-6.61-9A67,67,0,0,0,71.4,162.58a52.64,52.64,0,0,0-8-4.35,40.42,40.42,0,0,0-9-2.79,31.26,31.26,0,0,0-9.35-.33,29.32,29.32,0,0,0-8.72,2.56c-1.31.69-2.59,1.41-3.79,2.2s-2.33,1.62-3.32,2.57a50.55,50.55,0,0,0-5.36,5.6,65.43,65.43,0,0,0-3.74,5.4c-1,1.69-1.95,3.12-2.54,4.41l-2,4,1.87-4c.54-1.31,1.45-2.77,2.39-4.5a64.06,64.06,0,0,1,3.6-5.57,51.19,51.19,0,0,1,5.24-5.86c1-1,2.2-1.81,3.32-2.76s2.51-1.64,3.84-2.39a30.52,30.52,0,0,1,9-3,32.72,32.72,0,0,1,9.83,0,42.27,42.27,0,0,1,9.47,2.6,56.19,56.19,0,0,1,8.5,4.25A69.82,69.82,0,0,1,85.87,171a43.6,43.6,0,0,1,7.45,9.56,15.63,15.63,0,0,1,.88,1.9,12.87,12.87,0,0,1,.5,1.84,10.28,10.28,0,0,1,.08,1.2Z" style="fill:#251f12"/><path d="M69.47,178.6l-.3-2.86a26.5,26.5,0,0,0-.66-3A32.5,32.5,0,0,0,67.19,169,39.56,39.56,0,0,0,65,164.66a29.82,29.82,0,0,0-3.23-4.35,13.84,13.84,0,0,0-2-2.05,17,17,0,0,0-2.25-1.88c-.82-.53-1.63-1.13-2.48-1.63l-2.73-1.23a17.74,17.74,0,0,0-5.84-1L45,152.44c-.49.07-1,.18-1.44.27a20.21,20.21,0,0,0-2.82.62c-1.72.79-3.55,1.3-4.94,2.42a21.74,21.74,0,0,0-4,3c-1.12,1.08-2.22,2-3.07,2.94l-2.08,2.54-1.81,2.23,1.7-2.32,1.95-2.66c.8-1,1.87-2,2.95-3.12a21.91,21.91,0,0,1,3.91-3.27c1.38-1.23,3.23-1.86,5-2.78a21,21,0,0,1,3-.82c.51-.12,1-.26,1.53-.35l1.6,0a19.17,19.17,0,0,1,6.4.79l3,1.19c1,.5,1.86,1.09,2.79,1.63a19,19,0,0,1,2.53,1.9,15.15,15.15,0,0,1,2.27,2.1,32,32,0,0,1,3.73,4.5,40.65,40.65,0,0,1,2.66,4.54,31.75,31.75,0,0,1,1.69,4.17,28.58,28.58,0,0,1,.92,3.41c.29,1.8.46,2.83.46,2.83Z" style="fill:#251f12"/><path d="M124.91,154.27l-3.49-2.84-1.84-1.49-2.24-1.53a55.41,55.41,0,0,0-5.51-3.5,59.63,59.63,0,0,0-6.93-3.56,69.69,69.69,0,0,0-8.1-3.14c-1.41-.54-2.94-.77-4.43-1.19a32.19,32.19,0,0,0-4.61-.94c-1.57-.2-3.15-.48-4.74-.62l-4.82-.14a42.85,42.85,0,0,0-4.8.34c-.8.09-1.61.11-2.39.26l-2.32.54a44.53,44.53,0,0,0-8.81,3c-2.59,1.55-5.25,2.85-7.28,4.78a27.56,27.56,0,0,0-3.05,2.68L47,149.74l-1.19,1.34c-.31.49-.62,1-.93,1.43l-1.7,2.67a25.09,25.09,0,0,0-2.4,4.55c-1.18,2.61-1.86,4.09-1.86,4.09l1.73-4.15A25.2,25.2,0,0,1,42.94,155l1.63-2.74.9-1.48,1.15-1.4,2.45-3a29.09,29.09,0,0,1,3-2.82c2-2,4.69-3.46,7.3-5.15a45.4,45.4,0,0,1,9-3.35l2.38-.64c.8-.18,1.63-.23,2.45-.35a45.81,45.81,0,0,1,5-.52l5,0c1.65.09,3.29.33,4.92.48a33.18,33.18,0,0,1,4.8.82c1.55.37,3.15.57,4.62,1.08a71.56,71.56,0,0,1,8.49,3,61.79,61.79,0,0,1,7.28,3.44,57.43,57.43,0,0,1,5.91,3.49,38,38,0,0,1,4.31,3l3.59,2.72Z" style="fill:#251f12"/><path d="M41.49,183.54a31.66,31.66,0,0,0-5.44-3.5,31.05,31.05,0,0,0-6.23-2.4,28.83,28.83,0,0,0-3.7-.68,20.12,20.12,0,0,0-3.88,0c-.65.08-1.31.09-1.95.23l-1.88.5a18.83,18.83,0,0,0-3.52,1.44,25.73,25.73,0,0,0-3,2,16.76,16.76,0,0,0-2.44,2.16,13.9,13.9,0,0,0-1.89,2L6.23,187l-1.15,1.49,1-1.57,1.18-1.81A14,14,0,0,1,9,182.89a18.51,18.51,0,0,1,2.31-2.41,26.65,26.65,0,0,1,3-2.28A18.78,18.78,0,0,1,18,176.38l2-.71c.68-.19,1.39-.27,2.08-.41a22.3,22.3,0,0,1,4.23-.35,30,30,0,0,1,4.08.43,33.58,33.58,0,0,1,7,2.06,38.64,38.64,0,0,1,4.6,2.31c.54.3,1,.59,1.27.78l.42.29Z" style="fill:#251f12"/><path d="M35.41,167.63l-2,1.09c-1.21.68-2.94,1.67-5,2.95a79.45,79.45,0,0,0-13.83,10.76c-4.54,4.44-8.09,10-8.74,14.82a14.29,14.29,0,0,0-.17,3.26A15.68,15.68,0,0,0,6,203c.35,1.36.62,2.13.62,2.13s-.32-.75-.76-2.1a14.73,14.73,0,0,1-.5-2.52,14.12,14.12,0,0,1-.05-3.34c.33-5,3.63-11.06,8-15.94a82.85,82.85,0,0,1,13.45-12c2-1.44,3.7-2.58,4.91-3.36l1.84-1.18Z" style="fill:#251f12"/><path d="M81.19,146.42l-2.53-.64L76,145.41c-1.12,0-2.37-.16-3.76-.15a60.25,60.25,0,0,0-9.49.79c-1.74.23-3.49.68-5.3,1-1.76.52-3.6.92-5.35,1.6a48,48,0,0,0-5.19,2.08,54.08,54.08,0,0,0-4.78,2.56,35.26,35.26,0,0,0-4.08,3l-1.77,1.55c-.53.54-1,1.12-1.45,1.64a16.08,16.08,0,0,0-2.27,3.11,10.73,10.73,0,0,0-1.39,2.63c-.62,1.55-1,2.42-1,2.42s.31-.9.84-2.47a10.93,10.93,0,0,1,1.25-2.74,16,16,0,0,1,2.13-3.29c.44-.56.88-1.18,1.39-1.76l1.72-1.69a37.64,37.64,0,0,1,4-3.32,55,55,0,0,1,4.75-2.89,47.59,47.59,0,0,1,5.21-2.44c1.76-.81,3.62-1.32,5.42-2,1.83-.49,3.62-1.06,5.4-1.4a62.38,62.38,0,0,1,9.85-1.38c1.47-.1,2.83,0,4-.07l3.25.27,2.57.5Z" style="fill:#251f12"/><path d="M16.64,201.64a9.41,9.41,0,0,1-1.21.39c-.54.15-.82.16-1.33.26l-1.52.27a17.55,17.55,0,0,0-7.3,2.89A11.42,11.42,0,0,0,3.7,206.9a8.52,8.52,0,0,0-1.29,1.66A12.58,12.58,0,0,0,.82,212a14.84,14.84,0,0,0-.64,2.67c-.12.66-.18,1-.18,1s0-.38,0-1.05a14.48,14.48,0,0,1,.25-2.79A13.81,13.81,0,0,1,1.46,208a9.45,9.45,0,0,1,1.15-2,13.53,13.53,0,0,1,1.54-1.87,19.78,19.78,0,0,1,7.68-4.4l1.53-.51c.38-.13.9-.28,1-.34a4.83,4.83,0,0,0,.74-.35Z" style="fill:#251f12"/><path d="M180,164.78a5.13,5.13,0,0,0-.59,3.74s-1.13-1-1.38.09-1.63,2.06-1.81,2.52a.75.75,0,0,0,.29.81s-2.21.55-2.66,1.39-.06,1.28-.06,1.28-.35-.5-1.3.06.1,1,.1,1-1.6-.34-2.19.1a.81.81,0,0,0-.18,1.09s-2.11-.71-3.1.8a1.64,1.64,0,0,0-.29,1.14,5,5,0,0,0-2.69,0c-.93.46-.41-2.19-.2-2.55s-1.41-.76,2.73-2.67S180,164.78,180,164.78Z" style="fill:#251f12"/><path d="M108.77,189.91c13.29-.73,18,1.85,18,1.85s1.11-3.48,4.08-2.24,5.38-2.34,8-1.74,4.34,1.07,4.34,1.07a1.57,1.57,0,0,1,2.09-1.5s-.83-2.3,2.51-1c0,0,1.48-2.65,5.72-2.15s4.86-2.47,6.88-2c0,0,.74-2.24,3.44-.59,0,0-2.7-1.7.28-2.84s-2.28-5.07-5.83-3.87S140,183,138.44,184,108.77,189.91,108.77,189.91Z" style="fill:#251f12"/><path d="M107.76,191.71c8.46,2.06,10.8,7.13,12.85,8.09,5.7,2.67,5.54,6.87,9.35,10.67s9,12.29,7.33,17.43c-1.29,3.9-14.85,3.56-14.85,3.56l-14.09-19.63Z" style="fill:#251f12"/><path d="M127.7,318.11c2.45,24.94,17.34,32.11,44.28,31.57s70.33-5,78.38-16.54,5.12-23.77-8.24-25.91c0,0-12.11,12.48-45.21,10.76-29.87-1.55-53.07-14.3-68.78-37.17-.07.1-.85.54-1,.33-1.26-1.49-5.27,3.6-6.7,3.62s-.93,2.28-.93,2.28-3-.42-3.31,4.5h0C121.44,297.18,126.46,305.49,127.7,318.11Z" style="fill:#251f12"/><path d="M5.67,249c7.94,29.38,18.32,42.92,42.5,62.4,6.7,5.4,17.87,10.45,25.66,14.47,8.3,4.29,20.71,6.63,32.23,5.22,0,0-40.1-31.75-30.23-42.65s27.36-7.13,27.36-7.13c2.4,1.83,7.81,4.76,13,10.25h0c.31-4.92,3.31-4.5,3.31-4.5s.51-2.43,4-3.54c1.36-.43,5.18-1.83,4.64-2.69-15.46-24.52,1.21-38.72,8.34-50.56,6.87-11.4-28.75-37.74-29.82-40-15.89-1.95-34.89,3.17-56.19,10.22-32.8,10.85-44.58,20.64-44.58,20.64S1.19,232.39,5.67,249" style="fill:#251f12"/><path d="M115.42,194.05l-.62-.35a16.65,16.65,0,0,0-2-.83,37.33,37.33,0,0,0-7.86-1.52,76.75,76.75,0,0,0-11.49,0c-4.21.27-8.68.89-13.13,1.63s-8.87,1.74-13,2.8-7.91,2.18-11.19,3.05c-6.48,2-10.78,3.43-10.78,3.43s4.27-1.51,10.7-3.69c3.26-.95,7-2.28,11.13-3.32s8.51-2.18,13-3.12,8.95-1.59,13.2-2a78.25,78.25,0,0,1,11.7-.25,38.9,38.9,0,0,1,8.25,1.41,19.48,19.48,0,0,1,2.27.87c.56.29.79.44.79.44Z" style="fill:#edc4b0"/><path d="M177.22,162.44s.1-.92.28-2.53c0-.76,0-1.67,0-2.72s-.12-2.32-.27-3.66-.33-2.81-.68-4.33-.67-3.14-1.12-4.79-1-3.32-1.58-5-1.26-3.4-2.07-5-1.59-3.29-2.46-4.88-1.86-3.05-2.82-4.48a42.89,42.89,0,0,0-3.08-3.87l-1.54-1.71L160.33,118a19.33,19.33,0,0,0-3-2.33,13.87,13.87,0,0,0-2.46-1.55l-2.25-1.17L155,114a14.14,14.14,0,0,1,2.56,1.42,20.19,20.19,0,0,1,3.09,2.21l1.69,1.38q.81.8,1.65,1.65a44.91,44.91,0,0,1,3.34,3.78c1.05,1.4,2.13,2.86,3.11,4.42s1.94,3.16,2.76,4.84,1.62,3.38,2.38,5.06,1.38,3.4,1.89,5.08,1.05,3.31,1.41,4.89.66,3.09.94,4.48.36,2.71.49,3.87.07,2.25.1,3.12c-.1,1.61-.15,2.54-.15,2.54Z" style="fill:#251f12"/><path d="M168.84,136.8l-.8-2.58c-.3-.77-.72-1.6-1.17-2.61s-1.19-2.13-2-3.31a37.22,37.22,0,0,0-2.85-3.64A42,42,0,0,0,158.4,121a46.51,46.51,0,0,0-4.37-3.46l-2.39-1.6-2.53-1.4a42.85,42.85,0,0,0-5.29-2.35,36.61,36.61,0,0,0-5.4-1.5,31.43,31.43,0,0,0-5.21-.71,39,39,0,0,0-4.73,0c-1.46.07-2.78.41-4,.56a17.12,17.12,0,0,0-3,.75l-2.59.78,2.55-.9a17.52,17.52,0,0,1,3-.9c1.19-.21,2.51-.62,4-.76a40.19,40.19,0,0,1,4.8-.26,33.56,33.56,0,0,1,5.36.46,39.22,39.22,0,0,1,5.63,1.28,46.6,46.6,0,0,1,5.56,2.16l2.69,1.33L155,116a48.83,48.83,0,0,1,4.72,3.38,43.52,43.52,0,0,1,4,3.71,40.46,40.46,0,0,1,3.21,3.72c.91,1.22,1.66,2.42,2.33,3.49s1.14,2.18,1.5,3l.93,2.55Z" style="fill:#251f12"/><path d="M149.29,155.16l-1.16-1.94c-.65-1.28-1.82-3-3.07-5-.69-1-1.44-2.07-2.24-3.21s-1.72-2.27-2.73-3.38l-1.5-1.72-1.65-1.64a35.3,35.3,0,0,0-3.59-3.08,31.4,31.4,0,0,0-3.92-2.61,33.39,33.39,0,0,0-4.11-2c-1.37-.59-2.76-1-4.07-1.38a35.22,35.22,0,0,0-3.8-.71,39.94,39.94,0,0,0-5.84-.41h-2.26l2.22-.44a21.24,21.24,0,0,1,2.59-.32,19.5,19.5,0,0,1,3.4-.11,38.43,38.43,0,0,1,4,.37,30.75,30.75,0,0,1,8.9,3,34.71,34.71,0,0,1,4.24,2.73,38.57,38.57,0,0,1,3.75,3.33,33.35,33.35,0,0,1,3.16,3.66,43.29,43.29,0,0,1,2.55,3.71l2,3.5a51.92,51.92,0,0,1,2.37,5.49C149,154.39,149.29,155.16,149.29,155.16Z" style="fill:#453f34"/><path d="M72.19,145.26l.86.07a9.11,9.11,0,0,1,2.41.56A25.75,25.75,0,0,1,83,150.5c2.79,2.34,5.88,5.23,9.08,8.39s6.64,6.49,10.3,9.51a70.72,70.72,0,0,0,11.27,8.13c1.93,1.09,3.83,2.06,5.68,2.91a56.3,56.3,0,0,0,5.37,2c1.71.48,3.29.91,4.72,1.2s2.68.45,3.71.64l3.29.34s-1.2.06-3.32.1c-1.05-.08-2.35-.06-3.81-.24a38.15,38.15,0,0,1-4.92-.8,55.24,55.24,0,0,1-5.66-1.7,45.4,45.4,0,0,1-6-2.72,71.92,71.92,0,0,1-11.77-8.12c-3.69-3.17-7.09-6.62-10.24-9.85s-5.91-6.4-8.53-8.82a28,28,0,0,0-6.82-5.16,10.16,10.16,0,0,0-2.26-.85Z" style="fill:#453f34"/><path d="M100.82,135.23a51.6,51.6,0,0,1,9.93,1.34c1.45.41,3.06.74,4.7,1.31a45,45,0,0,1,5.14,1.85c1.78.68,3.5,1.63,5.3,2.5,1.69,1.05,3.51,2,5.15,3.19a47.31,47.31,0,0,1,4.76,3.75l2.21,2,2,2.15c.63.72,1.3,1.37,1.85,2.11l1.54,2.2,1.46,2.07c.42.7.78,1.4,1.15,2.06.73,1.34,1.41,2.54,1.9,3.67s.81,2.14,1.13,3l.93,2.59-1.34-2.41-1.47-2.76c-.63-1-1.45-2.12-2.23-3.37-.42-.61-.82-1.27-1.28-1.92L142,158.62a37.56,37.56,0,0,0-3.53-3.94l-1.95-2c-.72-.61-1.45-1.22-2.18-1.85a46.33,46.33,0,0,0-4.62-3.55c-1.56-1.18-3.31-2.09-4.92-3.14-1.74-.84-3.35-1.87-5-2.58s-3.29-1.52-4.87-2.12-3.1-1.13-4.5-1.64-2.71-.87-3.88-1.17-2.19-.6-3-.79Z" style="fill:#453f34"/><path d="M115.19,134.47a29.37,29.37,0,0,1,6.35,1.26,39.54,39.54,0,0,1,6.2,2.46,43.74,43.74,0,0,1,6.55,4c1.08.75,2,1.65,3,2.46s1.83,1.79,2.71,2.63a34.25,34.25,0,0,1,2.3,2.68,22.79,22.79,0,0,1,1.84,2.55,31.47,31.47,0,0,1,2.34,4.07c.51,1,.78,1.6.78,1.6s-.44-.49-1.15-1.36l-1.26-1.57c-.48-.61-1.13-1.21-1.74-1.94s-1.3-1.49-2.09-2.23-1.54-1.6-2.43-2.38a62.35,62.35,0,0,0-5.68-4.68A64.26,64.26,0,0,0,126.8,140c-2-1.18-4-2.21-5.72-3A55.85,55.85,0,0,0,115.19,134.47Z" style="fill:#453f34"/><path d="M166.09,170s.09-.35.28-1a17,17,0,0,0,.18-2.93,30.37,30.37,0,0,0-.61-4.52c-.34-1.73-.93-3.64-1.56-5.71a64.39,64.39,0,0,0-6.31-13.34,53.53,53.53,0,0,0-4.83-6.74,49,49,0,0,0-6-6,42.08,42.08,0,0,0-7-4.81,34.09,34.09,0,0,0-7.62-3,37.63,37.63,0,0,0-7.59-1.24,38.37,38.37,0,0,0-6.94.21,25.69,25.69,0,0,0-3.07.46c-1,.19-1.91.3-2.76.52-1.71.47-3.23.79-4.43,1.21L104,124.36l3.67-1.69c1.17-.53,2.66-1,4.35-1.62a43.19,43.19,0,0,1,13.06-2,31.86,31.86,0,0,1,8,1,36.72,36.72,0,0,1,8.12,3,43.5,43.5,0,0,1,7.46,5,51.26,51.26,0,0,1,6.18,6.42,56.17,56.17,0,0,1,4.87,7.08,58.92,58.92,0,0,1,5.85,14,36.32,36.32,0,0,1,1.39,10.6,13.1,13.1,0,0,1-.51,3C166.22,169.68,166.09,170,166.09,170Z" style="fill:#453f34"/><path d="M140.75,121.23s.68.19,1.83.65a25.85,25.85,0,0,1,4.54,2.39,27.55,27.55,0,0,1,2.76,2.07A31.11,31.11,0,0,1,152.7,129a42.44,42.44,0,0,1,5.15,6.58c.72,1.23,1.52,2.41,2.12,3.67s1.29,2.45,1.77,3.69a52.7,52.7,0,0,1,2.44,6.8c.68,2,.89,3.77,1.2,4.95s.36,1.89.36,1.89l-.78-1.76c-.5-1.12-1.1-2.75-2-4.63-.43-.95-.89-2-1.37-3.06l-1.66-3.34c-.52-1.18-1.28-2.28-1.88-3.49s-1.4-2.33-2.11-3.5a58.38,58.38,0,0,0-4.72-6.46c-.84-1-1.65-1.9-2.48-2.73s-1.65-1.58-2.4-2.28a34,34,0,0,0-4-3Z" style="fill:#453f34"/><path d="M74.25,139l3.36-.87a73.3,73.3,0,0,1,9.09-1.36c1.9-.09,4-.29,6.15-.25a62.4,62.4,0,0,1,6.88.24c2.38.22,4.83.53,7.31,1l3.72.73c1.24.28,2.47.64,3.71,1a73,73,0,0,1,7.19,2.56,62.79,62.79,0,0,1,6.61,3.33c1,.63,2.09,1.15,3,1.83l2.71,2a49.27,49.27,0,0,1,4.64,4.09,38.38,38.38,0,0,1,3.45,3.9,24.82,24.82,0,0,1,2.34,3.26c1.17,1.87,1.85,2.94,1.85,2.94l-2.21-2.68a23.64,23.64,0,0,0-2.61-3c-1.13-1-2.23-2.36-3.69-3.53a47.74,47.74,0,0,0-4.75-3.68A54.3,54.3,0,0,0,127.3,147a60.06,60.06,0,0,0-6.45-3.09c-2.3-.81-4.6-1.76-7-2.35-1.2-.33-2.38-.71-3.58-1l-3.61-.78c-2.4-.48-4.8-.83-7.11-1.09s-4.58-.48-6.72-.55-4.18-.1-6.06-.13l-5.12.19-4,.33Z" style="fill:#453f34"/><path d="M63.44,152.61s.9.07,2.43.34c.74.27,1.7.53,2.72,1a24.61,24.61,0,0,1,3.26,1.75,73.83,73.83,0,0,1,7.45,5.41c2.6,2.11,5.27,4.48,8,6.77s5.4,4.58,8,6.59c1.33,1,2.57,2,3.84,2.79a31.16,31.16,0,0,0,3.6,2.24,32.81,32.81,0,0,0,3.19,1.65,14.65,14.65,0,0,0,2.57,1.06l2.32.81-2.44-.38a15.86,15.86,0,0,1-2.75-.7,18.45,18.45,0,0,1-3.46-1.3,31.74,31.74,0,0,1-3.9-2,43.86,43.86,0,0,1-4.15-2.58,101.24,101.24,0,0,1-8.31-6.49c-2.7-2.35-5.33-4.73-7.79-7-1.26-1.07-2.4-2.21-3.57-3.17s-2.24-1.91-3.3-2.7-2.06-1.42-2.93-2.06-1.74-.92-2.42-1.29Z" style="fill:#453f34"/><path d="M64,160.21l3.81,3.84c2.28,2.31,5.37,5.31,8.55,8.18,1.58,1.45,3.24,2.81,4.8,4.07s3.08,2.35,4.44,3.2c.68.44,1.33.77,1.89,1.12a9.93,9.93,0,0,0,1.5.78l1.35.65-1.45-.37a11.67,11.67,0,0,1-1.64-.55,19.52,19.52,0,0,1-2.06-.88,41,41,0,0,1-4.83-2.88c-.81-.62-1.71-1.2-2.52-1.9s-1.68-1.37-2.49-2.11a72.87,72.87,0,0,1-8.17-8.74C65.2,162.06,64,160.21,64,160.21Z" style="fill:#453f34"/><path d="M96,153.32a10.84,10.84,0,0,1,1.92.19,44.59,44.59,0,0,1,5,1.17A61,61,0,0,1,117,161a54.42,54.42,0,0,1,6.71,4.91,42.49,42.49,0,0,1,5,5.22c.64.85,1.19,1.65,1.68,2.36a21.56,21.56,0,0,1,1.14,1.91c.59,1.08.9,1.7.9,1.7l-1.27-1.45a21.54,21.54,0,0,0-1.43-1.64c-.61-.59-1.28-1.26-2-2l-2.46-2.23c-.88-.77-1.9-1.5-2.87-2.32-2.06-1.53-4.29-3.11-6.64-4.52s-4.73-2.78-7-4-4.46-2.23-6.36-3.08-3.48-1.54-4.62-2S96,153.32,96,153.32Z" style="fill:#453f34"/><path d="M111.34,157.1a4.2,4.2,0,0,1,.86,0,11.85,11.85,0,0,1,2.22.35,18.27,18.27,0,0,1,6,3,23.41,23.41,0,0,1,4.74,4.69,21.5,21.5,0,0,1,1.23,1.85,7.84,7.84,0,0,1,.4.74s-.28-.15-.72-.44-1.07-.71-1.81-1.22c-1.46-1-3.33-2.43-5.19-3.79s-3.72-2.7-5.2-3.64A23.38,23.38,0,0,0,111.34,157.1Z" style="fill:#453f34"/><path d="M93.23,145.58a56.3,56.3,0,0,1,7.31,1.95c2.14.77,4.66,1.63,7.24,2.83a75,75,0,0,1,7.91,4.13c1.3.79,2.55,1.68,3.8,2.5s2.38,1.8,3.49,2.69a54.47,54.47,0,0,1,5.54,5.53c.71.9,1.33,1.75,1.87,2.51a19.21,19.21,0,0,1,1.25,2c.64,1.16,1,1.83,1,1.83s-.49-.58-1.36-1.57a18.08,18.08,0,0,0-1.55-1.77c-.66-.64-1.39-1.35-2.15-2.16l-2.69-2.38c-1-.81-2.09-1.57-3.15-2.45-2.25-1.63-4.68-3.31-7.23-4.83s-5.13-3-7.61-4.28-4.8-2.49-6.83-3.44-3.72-1.78-4.94-2.28Z" style="fill:#453f34"/><path d="M29.24,178a8.42,8.42,0,0,1,1.45-.21,33.51,33.51,0,0,1,3.85,0,46.89,46.89,0,0,1,11.5,2,39.76,39.76,0,0,1,5.83,2.31,35.47,35.47,0,0,1,4.67,2.85,22.36,22.36,0,0,1,2.9,2.55l1,1.07-1.19-.84c-.7-.59-1.86-1.23-3.16-2.07a50.67,50.67,0,0,0-4.77-2.35,59,59,0,0,0-5.72-2.08c-2-.63-4-1.14-5.89-1.57s-3.7-.81-5.25-1-2.85-.44-3.76-.53A13.77,13.77,0,0,0,29.24,178Z" style="fill:#453f34"/><path d="M41.23,177.86a6.44,6.44,0,0,1,2.3-.29,14.21,14.21,0,0,1,5,1.09,18.62,18.62,0,0,1,4.36,2.5,14.62,14.62,0,0,1,1.72,1.53s-.89-.28-2.14-.79l-4.51-1.84c-1.62-.65-3.25-1.28-4.52-1.65A17.21,17.21,0,0,0,41.23,177.86Z" style="fill:#453f34"/><path d="M32.7,175.21a32.54,32.54,0,0,1,4.56,0c1.35.12,3,.23,4.64.53A46.89,46.89,0,0,1,47.14,177a38.06,38.06,0,0,1,5,1.95,31.86,31.86,0,0,1,4,2.41,18.93,18.93,0,0,1,2.49,2.21l.84.92-1-.7c-.61-.5-1.63-1-2.76-1.71s-2.59-1.27-4.13-1.91-3.22-1.22-4.93-1.72-3.43-1-5.06-1.36-3.17-.75-4.49-1Z" style="fill:#453f34"/><path d="M50.89,170.66a33.52,33.52,0,0,1,4.34,1.39c1.26.53,2.75,1.12,4.27,1.93a42.08,42.08,0,0,1,4.61,2.75,36.7,36.7,0,0,1,4.2,3.38,30.85,30.85,0,0,1,3.13,3.54,18.54,18.54,0,0,1,1.7,2.86l.52,1.13-.77-1a32.3,32.3,0,0,0-2.11-2.47c-.93-1-2.08-2-3.35-3.08S64.73,179,63.25,178s-3-2-4.41-2.84-2.78-1.68-4-2.32Z" style="fill:#453f34"/><path d="M27.23,185.87A9,9,0,0,1,30,185a15.79,15.79,0,0,1,6.38.17,17.9,17.9,0,0,1,3.24,1.11,19.21,19.21,0,0,1,2.57,1.5,13.5,13.5,0,0,1,1.62,1.32c.37.34.57.55.57.55s-.28-.1-.74-.3-1.09-.5-1.87-.82A33.2,33.2,0,0,0,36,186.61a24.48,24.48,0,0,0-3.16-.57,23,23,0,0,0-2.81-.23A22.1,22.1,0,0,0,27.23,185.87Z" style="fill:#453f34"/><path d="M17.36,195.73A16.3,16.3,0,0,1,20,193.11,21.78,21.78,0,0,1,23.14,191a18.6,18.6,0,0,1,4.11-1.61,15.36,15.36,0,0,1,4.42-.5,9.5,9.5,0,0,1,2,.21,10,10,0,0,1,1.77.42,11.24,11.24,0,0,1,2.49,1c.56.32.89.49.89.49l-1-.21a17.07,17.07,0,0,0-2.56-.47,15.63,15.63,0,0,0-3.61-.12,18.11,18.11,0,0,0-4.05.63,23.38,23.38,0,0,0-3.91,1.34,30.16,30.16,0,0,0-3.27,1.63C18.58,194.88,17.36,195.73,17.36,195.73Z" style="fill:#453f34"/><path d="M117.34,148.41a42.22,42.22,0,0,1,6.49,2.7,52.79,52.79,0,0,1,12.61,9c1,1.05,2,2.06,2.85,3.16a32.42,32.42,0,0,1,2.43,3.33,24.93,24.93,0,0,1,1.91,3.36,24,24,0,0,1,1.35,3.18c.32,1,.59,2,.82,2.79s.25,1.6.35,2.21c.17,1.22.23,1.91.23,1.91l-.66-1.81c-.21-.58-.4-1.28-.73-2.06s-.8-1.6-1.21-2.53-1.09-1.85-1.64-2.87a34.71,34.71,0,0,0-2.06-3c-.68-1.08-1.66-2-2.46-3.06s-1.86-2-2.78-3-2-1.91-3-2.78-2-1.77-3-2.54c-2-1.63-4-3-5.66-4.23C119.76,149.84,117.34,148.41,117.34,148.41Z" style="fill:#453f34"/><path d="M166.84,131.06a6.62,6.62,0,0,1,1,1.37,37.06,37.06,0,0,1,2.07,3.92,56.33,56.33,0,0,1,2.28,5.84,54.51,54.51,0,0,1,1.77,7c.17,1.22.42,2.43.51,3.64s.22,2.39.21,3.55a26,26,0,0,1-.07,3.33c-.11,1.05-.12,2.05-.3,3a25.48,25.48,0,0,1-1,4.33l-.49,1.61s.07-.61.2-1.67c.07-.52.15-1.16.25-1.89s.07-1.57.15-2.46,0-1.88,0-2.91-.1-2.12-.15-3.24-.23-2.27-.34-3.44-.36-2.35-.54-3.54a89.92,89.92,0,0,0-3.35-12.79c-.62-1.69-1.11-3.14-1.54-4.1A9.24,9.24,0,0,0,166.84,131.06Z" style="fill:#453f34"/><path d="M77.35,157s.34.35,1,.91l2.58,2.33c2.12,1.92,4.91,4.49,7.76,7s5.73,4.92,7.95,6.72c1.12.89,2,1.69,2.71,2.17s1,.85,1,.85-.47-.15-1.25-.46A34.33,34.33,0,0,1,95.88,175a47,47,0,0,1-8.73-6.11,51.55,51.55,0,0,1-7.23-7.8c-.87-1.16-1.5-2.21-2-2.92A8.07,8.07,0,0,1,77.35,157Z" style="fill:#453f34"/><path d="M83.67,147.93s2.24,2.41,5.68,5.92c1.7,1.76,3.77,3.75,6,5.88s4.61,4.33,7.13,6.41c1.2,1.1,2.49,2.1,3.73,3.12s2.54,1.91,3.76,2.83l3.63,2.48c1.18.75,2.33,1.39,3.38,2s2.09,1,3,1.5a17.69,17.69,0,0,0,2.36,1l2.11.81-2.2-.53a15.84,15.84,0,0,1-2.49-.77c-.93-.37-2-.72-3.14-1.26a59.41,59.41,0,0,1-7.38-4.18c-1.25-.91-2.61-1.79-3.88-2.8s-2.61-2-3.85-3.08c-2.5-2.15-4.88-4.44-7.06-6.63s-4.06-4.38-5.68-6.24C85.53,150.65,83.67,147.93,83.67,147.93Z" style="fill:#453f34"/><path d="M49.65,162.61a17,17,0,0,1,4.68.57,32.88,32.88,0,0,1,4.61,1.55,40.35,40.35,0,0,1,4.94,2.59,46.14,46.14,0,0,1,4.51,3.26,45.63,45.63,0,0,1,3.55,3.28c1,1,1.72,1.94,2.28,2.54l.81,1-1-.79-2.64-2.11c-1.08-.9-2.4-1.85-3.8-2.87-.68-.54-1.46-1-2.19-1.52s-1.53-1-2.3-1.5a54.42,54.42,0,0,0-9-4.62A29.22,29.22,0,0,0,49.65,162.61Z" style="fill:#453f34"/><path d="M134.09,288.59c2.7,3,10.9,7.94,11,8.34s3.25,5,5.24,6.3,7.88,2.83,7.88,2.83,1,2.43,2.26,3a16.25,16.25,0,0,0,4,.87s0,1,1.42,1.51,3.13,1.18,3.13,1.18l2.37.1a21,21,0,0,0,4.27,2c1.77.45,6.24,1,6.24,1a35.66,35.66,0,0,0,4.7,1.2c1.8.25,6.66-1.4,8.47-.19s5.92.36,6.33.22,1.57,1.22,4.48,1.11a27.15,27.15,0,0,0,6.17-1.18l3.51.44-13.76,10.78s-44.08,1.72-44.64,1-19-23.84-20-25.19S134.09,288.59,134.09,288.59Z" style="fill:#251f12"/><path d="M242.12,307.23a5.23,5.23,0,0,1-2.64.92s.73.77-.8,1.68-2.09,0-2.09,0-.19,1.31-.76,1.6a4.28,4.28,0,0,1-1.85.11,2.74,2.74,0,0,1-1.32,1.37,3.67,3.67,0,0,1-2.18-.05s.58.57-1.51,1.35-5.62.11-5.62.11.07,1.18-2.89,2.23-4.26-.28-4.26-.28a2.39,2.39,0,0,1-2.39.84c-1.73-.21-1.91,3.12-1.91,3.12s15.84,5,18.17,4.66,14.36-7.77,14.23-9.23S242.12,307.23,242.12,307.23Z" style="fill:#251f12"/><path d="M214.44,304.38c.11-1.28,1.11-8.09,3.83-10.38,1.83-1.55,4-6.14,5.08-6.89s-.07-4.9-.07-4.9l-6.6,4.85s-3.23,9-3.23,9.42S214.44,304.38,214.44,304.38Z" style="fill:#251f12"/><path d="M222.08,273.91a46,46,0,0,0-8.94,9.83c-1.1,1.76-4.4,12.09-1.64,15.67s10.6-19.16,10.6-19.16Z" style="fill:#251f12"/><path d="M130.44,239.05c-4.41,4.9-8.7,22.87-7.15,25.28s-.46,4.15.44,5.22,4.4,11.27,4.4,11.27l-21.48-11.53s2.7-35.8,3.47-36.59S130.44,239.05,130.44,239.05Z" style="fill:#251f12"/><path d="M116.16,291.55c-5.16-5.49-10.57-8.42-13-10.25-7.21-4.54-24.72-10.1-34.51,1.57s6.63,27,17.71,32.52c5.54,2.77,9.15,7.46,14,11.89,9.65,8.76,21.77,2.57,28-4,0,0,.42,2,.43,2a53.07,53.07,0,0,1-1.19-7.12C126.46,305.49,121.44,297.18,116.16,291.55Z" style="fill:#edc4b0"/><path d="M217.81,278.72c-6.15,7-10.56,17.47-3.37,25.66,0,0,.22-11.5,9.94-18s14.29-7.17,14.77-9.6c-.73-2.87-2.85-5-4.7-6.9a15.59,15.59,0,0,1-3.08-4.48C226,269.43,224.67,270.92,217.81,278.72Z" style="fill:#251f12"/><path d="M220.89,292.58c3-.42,16.17-7.28,16.17-7.28l1.3.93S233.75,290,220.89,292.58Z" style="fill:#d9a191;opacity:0.5"/><path d="M195.44,235.52c-.63-4.25.27-3.91,1.6-6.07s-.32-5.38.93-6.65,2.27-5.42-.41-7.48-10.15-3.6-22.3,3.13-9.47,6.57-4.86,4.26c6.7-3.34,2,6.56.35,9-2.52,3.79-4.6,7.69,2.41,6.7S195.44,235.52,195.44,235.52Z" style="fill:#b89584;opacity:0.30000000000000004;mix-blend-mode:multiply"/><path d="M190.91,225.27c-3.66-4-5.07-4-7-2.87-2.47,1.42-17.76,19.36-9.59,15.79S190.91,225.27,190.91,225.27Z" style="fill:#b89584;opacity:0.30000000000000004;mix-blend-mode:multiply"/><path d="M232.71,261.54c-4.09-.14-12.25,3.57-12.65,6.38s3.93-.58,5.61-1.62S234.59,261.4,232.71,261.54Z" style="fill:#b89584;opacity:0.5;mix-blend-mode:multiply"/><path d="M232.71,261.54c-4.09-.14-12.25,3.57-12.65,6.38s3.93-.58,5.61-1.62S234.59,261.4,232.71,261.54Z" style="fill:#b89584;opacity:0.5;mix-blend-mode:multiply"/><path d="M241.89,254.05c-2.42,5.07-9.18,7.49-9.18,7.49,1.88-.14-5.36,3.71-7,4.76-1.42.88-4.69,3.4-5.45,2.47-.74,1.7.11,3.17-2.69,2.08-4-1.54-5.35-9.39-3.75-11-2.95,2.49-3.41,8.75-.15,11.24s6.54,3.12,11-.57c1.29-1,4.23-2.44,7.26-4a4.76,4.76,0,0,1-.54-1.12C239,260.63,241.67,257,241.89,254.05Z" style="fill:#b89584;opacity:0.30000000000000004;mix-blend-mode:multiply"/><path d="M200.44,207.45c1.38,4.61,2.22,7.84-2.23,8.94s-15.07.85-28.32,7.09c-6.7,3.15-16.71,12.8-17.43,11.42s2.85-10.94,12-16.92S199.64,204.76,200.44,207.45Z" style="fill:#251f12"/><path d="M194.82,221.55c.42.58,3.79.59-3.91,3.72s2.32,5.71,2.32,5.71,2.68,3,2.21,4.54-11,5.47-18.78,4.59c-4.92-.56-6.79-1-3.36-4.22s5.35-5.87,12.31-10.56C193,220.36,194.13,220.26,194.82,221.55Z" style="fill:#0a0a0a"/><path d="M174.3,238.19c-1.34-.93,5-8.21,16.61-12.92,0,0,2.31.27,3.47,4.49s.38,5.89-6.43,8.05S177,240,174.3,238.19Z" style="fill:#e8e1d8"/><path d="M190.91,225.27c-.95.39-1.86.8-2.74,1.21a4.77,4.77,0,0,0-2.11,5.29,5.29,5.29,0,0,0,6.21,4.29c2.74-1.53,3-3.25,2.11-6.3C193.22,225.54,190.91,225.27,190.91,225.27Z" style="fill:#1c6691"/><path d="M192.66,235.7a5.08,5.08,0,0,1-6-4.12,4.6,4.6,0,0,1,2-5.09c.82-.39,1.66-.77,2.55-1.13a2.22,2.22,0,0,0-.35-.09c-.95.39-1.86.8-2.74,1.21a4.77,4.77,0,0,0-2.11,5.29,5.29,5.29,0,0,0,6.21,4.29,6.45,6.45,0,0,0,1.64-1.25A6.38,6.38,0,0,1,192.66,235.7Z" style="fill:#1c6691;opacity:0.5;mix-blend-mode:multiply"/><path d="M179,232.12c-3.74,3-6.59,5.79-5.83,6.31,2,1.4,6.16,1.44,10.53.52C175.79,240.41,176.63,234.48,179,232.12Z" style="fill:#5e4e46"/><path d="M183,239.09l-.44.07Z" style="fill:#5e4e46"/><path d="M190.72,230.49a2.68,2.68,0,0,0,3.41,1.64,2.64,2.64,0,0,0,.67-.4,15.51,15.51,0,0,0-.4-1.93,10.92,10.92,0,0,0-1.2-2.85,2.71,2.71,0,0,0-.84.12A2.68,2.68,0,0,0,190.72,230.49Z" style="fill:#0a0a0a"/><path d="M191.59,227.22c.53.42.44,1.43-.22,2.25s-1.61,1.14-2.14.72-.44-1.43.21-2.25S191.06,226.79,191.59,227.22Z" style="fill:#fff"/><path d="M193.54,232.48c0,.37-.41.72-1,.76s-1.08-.22-1.11-.6.42-.72,1-.76S193.51,232.1,193.54,232.48Z" style="fill:#fff"/><path d="M471.61,299.42a27,27,0,0,0-.81-11.18c-1.75-5.83-4.32-22.83-4.32-22.83L463,253.76s-6.42-42.51-13.06-51.94c0,0-5.35-.94-3.61,4.89s1.29,8.5,1.29,8.5-3.15,2.21-3.61,4.89,2.1,19.69,2.1,19.69l-2.68-.47s-2.68-.46-3.61,4.89,3.49,11.65,3.49,11.65L449,270.65l2.22,3.15-.12,16.54.82,11.18-26.44,9.21-.12-46.94s-4.43-6.29-7.57-4.08a101.5,101.5,0,0,0-1.05,21.9c.82,11.18.35,13.86.35,13.86l4.67,36.69s1.28,8.5.81,11.18a18,18,0,0,1-2.62,5.8l30.23,10,21.42-59.76" style="fill:#fcb8a4"/><path d="M450.13,163.54l2.52.43s.22-1.26.82,2.74S455.3,298,455.3,298l-.44,2.51s-.12,2.58-4.27,3.15" style="fill:#e1e1d8"/><path d="M423.78,300.29l.42-121.81s-.61-4,1.09-6.29l23.58-8.87,1.26.22s.22-1.26,1,1.47l1.39,133.8a5.68,5.68,0,0,1-3.61,5.85c-4.21,1.86-19.37,7-19.37,7s-4,.6-4.6-3.39Z" style="fill:#fff"/><polygon points="425.24 179.96 425.26 299.25 450.32 289.34 448.82 171.09 425.24 179.96" style="fill:#465a65"/><path d="M443.06,172.24a1.25,1.25,0,0,0,1,1.48,4.52,4.52,0,0,0,2.74-.83s2.73-.82.43-2.51Z" style="fill:#465a65"/><path d="M471.61,299.42a27,27,0,0,0-.81-11.18c-1.75-5.83-4.32-22.83-4.32-22.83L463,253.76s-6.42-42.51-13.06-51.94c0,0-5.35-.94-3.61,4.89s1.29,8.5,1.29,8.5-3.15,2.21-3.61,4.89,2.1,19.69,2.1,19.69l-2.68-.47s-2.68-.46-3.61,4.89,3.49,11.65,3.49,11.65L449,270.65l2.22,3.15-.12,16.54.82,11.18L424,335.3l-.46,2.68-.94,5.36L419,348.23l31.22,10.95,21.42-59.76" style="fill:#fecbba"/><polygon points="396.85 380.27 452.29 378.86 458.23 360.57 416.76 345.09 396.85 380.27 396.85 380.27" style="fill:#42a5f5"/><path d="M343.22,379.3s2.38-21.74,7.85-37.35S374.24,288,374.24,288a11.88,11.88,0,0,1,9.9-9.32c8.5-1.28,20.61-7.46,20.61-7.46L429,258.89s4.89,3.61,8,1.4a8.38,8.38,0,0,0,3.61-4.89s1.75,5.82-1.39,8-13.05,11.54-22,15.5l-9,4s-5.83,1.75-6.29,4.43,12.93,5,12.93,5,4.89,3.61,7.11,6.76,5.71,14.79,5.71,14.79,5.35.93,4.42,6.29a28.09,28.09,0,0,1-4.54,10.25s-1.86,10.72-6.75,7.11l-8-1.4-4.89-3.61s-16.77,33-20.38,37.86l-2.28,18.53Z" style="fill:#fecbba"/><polygon points="365.52 385.86 405.34 315.5 413.38 316.9 407.91 332.51 387.53 370.37 384.27 389.12 365.52 385.86" style="fill:#fcb8a4"/><path d="M428.62,258.69s.42,3.79,5.65,2.44,5.73-3.71,5.73-3.71l1-4.72Z" style="fill:#e19876"/><line x1="422.38" y1="176.52" x2="422.21" y2="259.31" style="fill:none;stroke:#e1e1d8;stroke-miterlimit:10"/><polygon points="341.87 379 335.93 397.28 391.15 428.95 392.31 390.52 341.87 379" style="fill:#42a5f5"/></g></svg>