<svg xmlns="http://www.w3.org/2000/svg" width="441.12" height="383.01" viewBox="0 0 441.12 383.01"><title>Recurso 10test2</title><g style="isolation:isolate"><path d="M22.69,260.44c9,33.24,7.92,84.65-.89,96.15,0,0,39.88,4.08,110,14.19,0,0-21-30.23-.32-25.87C147.73,348.34,22.69,260.44,22.69,260.44Z" style="fill:#edc4b0"/><path d="M18.47,241.28c.89,4.5,3.69,15.92,5.87,25.67,7,31.44,5.46,76.64,5.46,76.64s.7-48.86,17.88-37.26C73,323.39,92.45,331.47,92.45,331.47l-47-92.91Z" style="fill:#edc4b0"/><path d="M24.41,254.45c12.25,9.48,33.08,45.19,36.53,49.74s15.66-5.93,15-13.41,3.27-26.55-8.67-30.53S24.41,254.45,24.41,254.45Z" style="fill:#edc4b0"/><path d="M39.83,268.08c-2.13,6.17-12.55,17.59-12.55,17.59S26.15,268,8.85,226.57c-6.47-15.5,11,3.15,11,3.15Z" style="fill:#251f12"/><path d="M176.84,291.76a15.52,15.52,0,0,0-.36,5.43c.52,4.71,1.2,10.7-7.28,13.82,0,0,1.86,9-3.46,11.17s-7.52,3.07-6.41,9.09-27.61,1.67-27.61,1.67L80.6,274.43,70,217.65l29.55-22.44,18.27-51.86,53.64,23.84,26.84,8.92s4.06,48.12-.8,56.29-10.95,9.56-11.41,15.82,4.12,25,6.21,31.32S196.25,293.89,176.84,291.76Z" style="fill:#edc4b0"/><path d="M9.91,139c-3.16,8.64-5.12,20-5.27,32.94,4,1.6,8,3.41,11.92,5.16,10.28,4.56,21,8.18,31.4,12.46,11.93,4.91,6.36,1.61,17.63,7.92,4.64,2.59-2.84-20.27,1.68-17.46,1,.61,17.62,8,18.59,8.73,7-6.84,17.75,7.73,25.66,4.76,12.94-4.87,12.52-39,14.17-38.15,2.15,1.06,46.47,36.87,73.23,25.65,0,0,34.15-30.43-2-66S121.31,92.68,89,89.56s-61.32,15.29-61.64,27.66c0,0-11.56,5.62-17.46,21.77" style="fill:#251f12"/><path d="M85.25,239.5a2,2,0,0,1,1,.38C86.8,240.29,86.11,239.86,85.25,239.5Z" style="fill:#251f12"/><path d="M196.76,175.34s.88-1.67,2.21-4.83a97.47,97.47,0,0,0,4.44-13.41,71.15,71.15,0,0,0,2.2-19.77,45.68,45.68,0,0,0-1.68-11.05,37.59,37.59,0,0,0-4.62-10.56,41.09,41.09,0,0,0-7.45-8.85,52.44,52.44,0,0,0-9.29-6.42,70.35,70.35,0,0,0-9.71-4.34,85.75,85.75,0,0,0-9.19-2.66c-2.87-.77-5.55-1.2-7.94-1.6s-4.46-.71-6.19-.87l-5.42-.59,5.44.44c1.73.11,3.83.32,6.22.71s5.11.69,8,1.38a88.54,88.54,0,0,1,9.33,2.43,72.06,72.06,0,0,1,10,4.13,53.94,53.94,0,0,1,9.7,6.33,42.56,42.56,0,0,1,8,9,39.28,39.28,0,0,1,5.13,10.91A47.64,47.64,0,0,1,208,137.2a73.86,73.86,0,0,1-1.72,20.56,101.07,101.07,0,0,1-4.21,14c-1.27,3.28-2.19,5.15-2.19,5.15Z" style="fill:#251f12"/><path d="M171.41,305.75c-16.66-3.34-27.73-2.49-26-1.33s2.59,3.55,5.9,6.25,9.35,11.84,15.5,10.87c2.86-2.11,2.81-6.72,2.57-9.08-.23-.92-.45-1.53-.45-1.53l1-.25c3.38-1.42,5.14-3.34,6-5.44C173.92,305.45,171.41,305.75,171.41,305.75Z" style="fill:#d9a191;opacity:0.5"/><path d="M188.76,176.82l.36-.07c-.09-.05-.34.1-.31.09s.12-.07.23-.24a11.43,11.43,0,0,0,1.72-3.44,63,63,0,0,0,2.91-15.28,92.81,92.81,0,0,0-.83-22.24,66.27,66.27,0,0,0-8.49-23.92,48,48,0,0,0-8.19-10,45.21,45.21,0,0,0-10.31-7.16,57.77,57.77,0,0,0-21.56-5.78,89.75,89.75,0,0,0-15.95.18c-3.85.36-6,.71-6,.71s2.17-.4,6-.86a90.66,90.66,0,0,1,16-.57,58.68,58.68,0,0,1,22,5.34,46.15,46.15,0,0,1,10.77,7.1,48.58,48.58,0,0,1,8.7,10.12,68,68,0,0,1,9.37,24.43,96.11,96.11,0,0,1,1.41,22.86,65.58,65.58,0,0,1-2.7,16.15,14.63,14.63,0,0,1-2.22,4.57,5.75,5.75,0,0,1-.74.74,3.81,3.81,0,0,1-1.15.59l-.44.09Z" style="fill:#251f12"/><path d="M116.45,142.29s.3-.34.66-.89a8.65,8.65,0,0,1,.32-.81,16.44,16.44,0,0,0,.44-1.62,41.09,41.09,0,0,0,.42-11.19,66.82,66.82,0,0,0-3.24-15.84,53.77,53.77,0,0,0-3.6-8.4,41,41,0,0,0-5.31-7.75A31.63,31.63,0,0,0,99,89.74a29.47,29.47,0,0,0-8.43-3.39c-1.45-.27-2.9-.5-4.33-.63s-2.84-.17-4.21,0a51.38,51.38,0,0,0-7.67,1.07,65.53,65.53,0,0,0-6.29,1.92c-1.83.71-3.46,1.24-4.72,1.89l-4,1.86,4-2c1.24-.69,2.85-1.28,4.67-2a65,65,0,0,1,6.27-2.14A51.73,51.73,0,0,1,82,84.88c1.39-.18,2.84-.06,4.31-.1s3,.27,4.5.5a30.58,30.58,0,0,1,8.92,3.25,33,33,0,0,1,7.7,6.1,42.41,42.41,0,0,1,5.82,7.91,54.43,54.43,0,0,1,4,8.61,69.08,69.08,0,0,1,3.92,16.35,44,44,0,0,1-.08,12.12,17.52,17.52,0,0,1-.49,2,12.24,12.24,0,0,1-.75,1.75,10.78,10.78,0,0,1-.68,1Z" style="fill:#251f12"/><path d="M103.6,123.31l1.53-2.43a25.44,25.44,0,0,0,1.33-2.75,31.38,31.38,0,0,0,1.33-3.81,38,38,0,0,0,.91-4.76,30.13,30.13,0,0,0,.16-5.41,14.52,14.52,0,0,0-.3-2.85,16.53,16.53,0,0,0-.6-2.86c-.32-.93-.58-1.9-.94-2.83L105.64,93a17.74,17.74,0,0,0-3.93-4.43l-1.13-1c-.42-.25-.87-.45-1.3-.68a19.31,19.31,0,0,0-2.59-1.26c-1.85-.45-3.59-1.19-5.38-1.17a21.63,21.63,0,0,0-5-.12c-1.54.15-3,.19-4.23.4l-3.2.71-2.81.62,2.77-.77L82,84.44c1.24-.28,2.68-.39,4.24-.63a22.46,22.46,0,0,1,5.1-.14c1.84-.1,3.69.55,5.66.93a22.74,22.74,0,0,1,2.83,1.19c.46.23.95.43,1.42.67l1.27,1A19.36,19.36,0,0,1,107.09,92l1.65,2.82c.45,1,.79,2,1.18,3a19.45,19.45,0,0,1,.81,3.06,15.47,15.47,0,0,1,.48,3,32.08,32.08,0,0,1,.13,5.85,41.2,41.2,0,0,1-.72,5.21,33.86,33.86,0,0,1-1.26,4.32,29.73,29.73,0,0,1-1.39,3.24l-1.4,2.51Z" style="fill:#251f12"/><path d="M162.19,138.59s-.36-1.6-1-4.4c-.16-.69-.33-1.47-.52-2.31l-.81-2.59a55.57,55.57,0,0,0-2.16-6.16,57.89,57.89,0,0,0-3.22-7.08,67.76,67.76,0,0,0-4.42-7.49c-.77-1.3-1.82-2.43-2.74-3.68a30.4,30.4,0,0,0-3-3.6c-1.11-1.13-2.17-2.33-3.33-3.43l-3.7-3.09a42.9,42.9,0,0,0-4-2.71c-.68-.42-1.33-.91-2-1.28l-2.16-1a44.74,44.74,0,0,0-8.75-3.14c-3-.38-5.88-1-8.68-.76a28.23,28.23,0,0,0-4.05.21l-3.74.68-1.76.32-1.62.55-3,1a24.74,24.74,0,0,0-4.7,2.08l-4,2.06,3.93-2.19a25.6,25.6,0,0,1,4.65-2.25l3-1.14,1.62-.61,1.77-.38,3.77-.82a28.6,28.6,0,0,1,4.12-.35c2.84-.35,5.82.19,8.92.49a45.41,45.41,0,0,1,9.12,2.93l2.26,1c.74.36,1.43.83,2.14,1.24a46,46,0,0,1,4.21,2.67l3.93,3.08c1.24,1.09,2.37,2.29,3.56,3.42a33.52,33.52,0,0,1,3.26,3.61c1,1.26,2.11,2.4,2.95,3.72a70.41,70.41,0,0,1,4.82,7.59,60.31,60.31,0,0,1,3.58,7.22,57.26,57.26,0,0,1,2.48,6.4,38.12,38.12,0,0,1,1.53,5l1.13,4.36Z" style="fill:#251f12"/><path d="M78.59,109.83A32.24,32.24,0,0,0,73.08,98a29.37,29.37,0,0,0-2.48-2.83,19.72,19.72,0,0,0-3-2.39c-.56-.34-1.09-.74-1.67-1L64.09,91a18.71,18.71,0,0,0-3.65-1.06,26.62,26.62,0,0,0-3.59-.33,17.8,17.8,0,0,0-3.24.18,14.14,14.14,0,0,0-2.74.41l-2.08.51L47,91.12l1.78-.6,2-.68a14.48,14.48,0,0,1,2.73-.63,17.53,17.53,0,0,1,3.3-.45,28,28,0,0,1,3.76,0,19.48,19.48,0,0,1,4,.82l2,.67c.65.27,1.25.64,1.89,1A22.71,22.71,0,0,1,72,93.61a29.57,29.57,0,0,1,2.94,2.86,33.61,33.61,0,0,1,4.19,5.94,41.25,41.25,0,0,1,2.18,4.66c.23.58.39,1.07.51,1.41l.15.48Z" style="fill:#251f12"/><path d="M83.68,93.59l-2.24-.38c-1.37-.22-3.35-.52-5.73-.78a80.39,80.39,0,0,0-17.52-.12c-6.32.67-12.56,2.85-16,6.21A14,14,0,0,0,40,101a15,15,0,0,0-1.29,2.18c-.57,1.28-.84,2-.84,2s.21-.78.7-2.11a14.66,14.66,0,0,1,1.17-2.29,13.71,13.71,0,0,1,2-2.66c3.35-3.72,9.7-6.42,16.16-7.54a82.23,82.23,0,0,1,18-1.07c2.46.1,4.51.26,6,.4l2.17.22Z" style="fill:#251f12"/><path d="M132.75,105.32l-1.59-2.07-1.9-2c-.86-.72-1.76-1.6-2.86-2.45a59.56,59.56,0,0,0-7.93-5.26c-1.5-.9-3.16-1.63-4.81-2.46-1.71-.68-3.4-1.51-5.19-2.06a47.68,47.68,0,0,0-5.37-1.59c-1.78-.47-3.59-.68-5.33-1a36.31,36.31,0,0,0-5.06-.17l-2.35.12c-.75.1-1.47.27-2.16.39a15.83,15.83,0,0,0-3.71,1,10.67,10.67,0,0,0-2.72,1.21L79.5,90.37,81.7,89a10.68,10.68,0,0,1,2.67-1.37,16.44,16.44,0,0,1,3.71-1.27c.7-.16,1.42-.38,2.19-.52l2.39-.26a37.09,37.09,0,0,1,5.2-.11,51.73,51.73,0,0,1,5.53.67A47.82,47.82,0,0,1,109,87.4c1.88.46,3.66,1.21,5.46,1.82s3.5,1.42,5.11,2.26a61.73,61.73,0,0,1,8.59,5c1.21.83,2.24,1.72,3.2,2.44l2.38,2.23,1.71,2Z" style="fill:#251f12"/><path d="M47.87,108.63a7.25,7.25,0,0,1-1.2-.44c-.51-.22-.73-.38-1.21-.62l-1.35-.73a17.53,17.53,0,0,0-7.52-2.26,11.8,11.8,0,0,0-2.14.16,8.25,8.25,0,0,0-2,.51A12.65,12.65,0,0,0,29,107a13.68,13.68,0,0,0-2.15,1.71c-.51.44-.79.7-.79.7l.68-.81a14.72,14.72,0,0,1,1.93-2,13.68,13.68,0,0,1,3.3-2.3,10,10,0,0,1,2.15-.87,13.13,13.13,0,0,1,2.37-.51,19.78,19.78,0,0,1,8.76,1.31l1.5.55a10.59,10.59,0,0,0,1,.35,4.17,4.17,0,0,0,.8.18Z" style="fill:#251f12"/><path d="M198.92,181a5.13,5.13,0,0,0-2.78,2.56s-.28-1.45-1.14-.78-2.55.61-3,.86a.76.76,0,0,0-.28.82s-2.07-.94-3-.56-.84,1-.84,1,0-.61-1-.76-.52.83-.52.83-1-1.25-1.78-1.28a.83.83,0,0,0-.83.75s-1.21-1.87-2.92-1.29a1.59,1.59,0,0,0-.93.7,5.11,5.11,0,0,0-2.12-1.66c-1-.21,1-2,1.42-2.12s-.63-1.47,3.79-.4S198.92,181,198.92,181Z" style="fill:#251f12"/><path d="M127.43,156.55c10.88,7.66,13,12.62,13,12.62s3-2,4.59.78,5.67,1.5,7.38,3.61,2.74,3.53,2.74,3.53a1.57,1.57,0,0,1,2.57.12s.77-2.32,2.61.75c0,0,2.8-1.17,5.82,1.85s5.35,1.08,6.61,2.73c0,0,2-1.3,3.07,1.67,0,0-1.07-3,2-2.06s1.35-5.38-2.18-6.64-19.41-5.09-21.28-5.18S127.43,156.55,127.43,156.55Z" style="fill:#251f12"/><path d="M125.52,157.33c5.36,6.86,4.06,12.29,5.07,14.31,2.81,5.64.08,8.83.72,14.17s-.54,15.24-5,18.22c-3.43,2.27-13.87-6.41-13.87-6.41l1.12-24.14Z" style="fill:#251f12"/><path d="M62.8,268.88C49.27,290,56.51,304.82,78,321.09s58.3,39.67,71.76,35.62,18.74-15.48,9.59-25.44c0,0-17.24,2.28-42.14-19.58C94.71,292,84.41,267.57,86.26,239.88c-.11,0-1-.1-1-.38-.07-1.95-6.36-.44-7.5-1.31s-2.15,1.21-2.15,1.21-2.09-2.19-5.38,1.48h0C70.87,248.57,69.65,258.21,62.8,268.88Z" style="fill:#251f12"/><path d="M9.91,139c-12,28-12.24,45-5.34,75.31,1.91,8.39,7.55,19.28,11.16,27.26,3.85,8.52,12.14,18,22.06,24.08,0,0-11.79-49.78,2.72-52.21S66.4,224.8,66.4,224.8c.74,2.92,3.17,8.58,3.81,16.08h0c3.29-3.67,5.38-1.48,5.38-1.48s1.91-1.6,5.35-.29c1.34.51,5.2,1.78,5.31.77,3.07-28.82,24.95-29.63,37.89-34.5,12.46-4.69.84-47.44,1.42-49.91-11.26-11.37-29.34-19.13-50.42-26.81-32.47-11.82-47.78-11.44-47.78-11.44s-10.69,6-17.46,21.77" style="fill:#251f12"/><path d="M130.07,163.91s-.09-.27-.26-.66a16.59,16.59,0,0,0-1.07-1.89,37.22,37.22,0,0,0-5.21-6.07,77.09,77.09,0,0,0-9-7.14c-3.47-2.4-7.37-4.69-11.32-6.87s-8-4.13-11.92-5.84-7.55-3.2-10.67-4.54c-6.33-2.44-10.59-4-10.59-4s4.29,1.46,10.69,3.75c3.15,1.27,6.91,2.55,10.79,4.29s8,3.56,12.1,5.58a130.82,130.82,0,0,1,11.58,6.65,77.82,77.82,0,0,1,9.33,7.05,39.08,39.08,0,0,1,5.6,6.23,19,19,0,0,1,1.24,2.08,7.63,7.63,0,0,1,.35.84Z" style="fill:#edc4b0"/><path d="M198.17,177.42l1.79-1.81,1.72-2.11c.61-.89,1.33-1.89,2-3s1.48-2.4,2.15-3.82,1.43-2.87,2.09-4.45,1.26-3.24,1.88-4.92,1.12-3.46,1.5-5.25a54.52,54.52,0,0,0,1.09-5.35c.29-1.77.44-3.55.57-5.26a42.88,42.88,0,0,0,0-4.95c-.05-.79-.1-1.55-.15-2.29s-.24-1.44-.35-2.12a20.09,20.09,0,0,0-.87-3.66,13.58,13.58,0,0,0-1-2.73l-1-2.32,1.16,2.26a15.22,15.22,0,0,1,1.12,2.71A20.76,20.76,0,0,1,213,132c.15.69.31,1.4.47,2.14s.18,1.52.27,2.31a45.18,45.18,0,0,1,.28,5c-.05,1.75-.11,3.56-.31,5.39a55.31,55.31,0,0,1-.83,5.52c-.3,1.85-.83,3.65-1.26,5.44s-1,3.52-1.67,5.16-1.23,3.24-1.93,4.71-1.39,2.83-2,4.1-1.4,2.34-2,3.34-1.34,1.81-1.86,2.51l-1.69,1.89Z" style="fill:#251f12"/><path d="M207.48,152.11l1-2.52c.24-.79.42-1.7.7-2.77s.38-2.42.49-3.84a37.24,37.24,0,0,0,0-4.62,44,44,0,0,0-.55-5.16,46.66,46.66,0,0,0-1.29-5.42L207,125l-1.12-2.67a41.54,41.54,0,0,0-2.69-5.12,37.32,37.32,0,0,0-3.3-4.53,30.62,30.62,0,0,0-3.66-3.78,39.54,39.54,0,0,0-3.72-2.91c-1.2-.85-2.44-1.4-3.46-2a16.86,16.86,0,0,0-2.82-1.27l-2.52-1,2.56.87a17.16,17.16,0,0,1,2.9,1.14c1.06.57,2.34,1.07,3.59,1.87a40.86,40.86,0,0,1,3.93,2.77,32,32,0,0,1,3.91,3.69,36.85,36.85,0,0,1,3.63,4.49,44.39,44.39,0,0,1,3,5.14l1.3,2.71,1,2.79a48.52,48.52,0,0,1,1.61,5.58,43.43,43.43,0,0,1,.84,5.39,40.18,40.18,0,0,1,.22,4.91c-.05,1.53-.2,2.93-.34,4.19s-.46,2.41-.68,3.29c-.55,1.63-.86,2.57-.86,2.57Z" style="fill:#251f12"/><path d="M180.76,154.4l.3-2.24c.28-1.41.4-3.46.71-5.86.07-1.21.15-2.52.23-3.9s.06-2.85-.05-4.35c0-.74-.07-1.5-.11-2.27s-.19-1.54-.28-2.32a33.92,33.92,0,0,0-.9-4.64,32.57,32.57,0,0,0-1.46-4.48,34.51,34.51,0,0,0-2-4.09c-.71-1.3-1.58-2.45-2.34-3.59a34.57,34.57,0,0,0-2.54-2.92,40.47,40.47,0,0,0-4.33-3.95l-1.77-1.39,2,1a22,22,0,0,1,2.23,1.36,18,18,0,0,1,2.73,2,37.44,37.44,0,0,1,2.94,2.79,27.93,27.93,0,0,1,2.77,3.61,27.56,27.56,0,0,1,2.33,4.29,34,34,0,0,1,1.64,4.77,36.82,36.82,0,0,1,.88,4.94A34.4,34.4,0,0,1,184,138a39.8,39.8,0,0,1-.3,4.49l-.62,4a55,55,0,0,1-1.54,5.78C181,153.62,180.76,154.4,180.76,154.4Z" style="fill:#453f34"/><path d="M126.4,98.83l.64.59a9.69,9.69,0,0,1,1.54,1.93,25.65,25.65,0,0,1,3,8.27c.75,3.57,1.38,7.75,1.93,12.22s1.19,9.2,2.19,13.84a70.16,70.16,0,0,0,3.8,13.36c.84,2.05,1.73,4,2.66,5.81a54.45,54.45,0,0,0,3,4.89c1,1.44,2,2.76,3,3.87s1.82,2,2.52,2.8l2.37,2.3s-1-.69-2.67-2c-.78-.72-1.8-1.51-2.84-2.56a37.71,37.71,0,0,1-3.36-3.67,55,55,0,0,1-3.39-4.84,45.54,45.54,0,0,1-3-5.87,73,73,0,0,1-4.21-13.67c-.92-4.77-1.45-9.59-1.92-14.07s-.67-8.68-1.22-12.21a28.29,28.29,0,0,0-2.16-8.28A10.28,10.28,0,0,0,127,99.51Z" style="fill:#453f34"/><path d="M155.08,108.71a51.46,51.46,0,0,1,7,7.21c.89,1.22,1.94,2.48,2.88,3.94a45.87,45.87,0,0,1,2.88,4.64c1,1.63,1.74,3.44,2.61,5.24.68,1.88,1.53,3.73,2.06,5.7a45.8,45.8,0,0,1,1.41,5.89c.17,1,.34,2,.51,2.93s.13,2,.19,2.9.17,1.88.14,2.8-.1,1.81-.15,2.68-.09,1.71-.14,2.53-.26,1.59-.37,2.34c-.26,1.49-.47,2.86-.79,4s-.69,2.19-.95,3l-.87,2.6.44-2.72c.15-.85.34-1.88.55-3.07s.18-2.57.35-4c0-.73.15-1.5.18-2.29s0-1.62,0-2.46a40.34,40.34,0,0,0-.33-5.28c-.1-.91-.2-1.84-.3-2.78s-.37-1.86-.56-2.8a45.84,45.84,0,0,0-1.43-5.65c-.48-1.9-1.29-3.69-1.91-5.51-.84-1.74-1.46-3.55-2.36-5.16s-1.64-3.23-2.51-4.69-1.73-2.8-2.51-4.07-1.59-2.36-2.32-3.32-1.34-1.83-1.89-2.51Z" style="fill:#453f34"/><path d="M166.83,117A29,29,0,0,1,171,122a39.86,39.86,0,0,1,3.34,5.77,43.75,43.75,0,0,1,2.67,7.19c.38,1.25.58,2.55.85,3.81a35.51,35.51,0,0,1,.49,3.74,32.94,32.94,0,0,1,.15,3.52,22.62,22.62,0,0,1-.14,3.15,31.46,31.46,0,0,1-.68,4.65c-.23,1.1-.39,1.73-.39,1.73s0-.65-.06-1.78c0-.56,0-1.23,0-2s-.13-1.65-.16-2.6-.1-2-.26-3.05-.21-2.21-.43-3.37a61.49,61.49,0,0,0-1.56-7.19,64.3,64.3,0,0,0-2.3-7c-.87-2.19-1.77-4.21-2.63-5.91A53.14,53.14,0,0,0,166.83,117Z" style="fill:#453f34"/><path d="M184.73,176.47l.85-.62a15.13,15.13,0,0,0,1.95-2.19,28,28,0,0,0,2.33-3.92c.81-1.57,1.53-3.43,2.32-5.45a64.4,64.4,0,0,0,3.31-14.38,53.75,53.75,0,0,0,.4-8.28,49.41,49.41,0,0,0-1-8.46,42,42,0,0,0-2.49-8.1A34.09,34.09,0,0,0,188.3,118a38.16,38.16,0,0,0-10.77-9.82,23.93,23.93,0,0,0-2.69-1.54c-.88-.46-1.68-.95-2.49-1.31-1.63-.69-3-1.38-4.23-1.79l-3.78-1.36,3.92.94c1.25.31,2.71.88,4.42,1.43a41.91,41.91,0,0,1,5.5,2.53,39.39,39.39,0,0,1,6,4,32.24,32.24,0,0,1,5.69,5.74,36.73,36.73,0,0,1,4.49,7.42,43.68,43.68,0,0,1,2.78,8.51,52.36,52.36,0,0,1,.87,8.87,56,56,0,0,1-.57,8.58,58.79,58.79,0,0,1-4.08,14.59,36.21,36.21,0,0,1-5.48,9.18,13.24,13.24,0,0,1-2.23,2Z" style="fill:#453f34"/><path d="M195.1,122.48s.41.57,1,1.64a25.85,25.85,0,0,1,2.08,4.69,27.36,27.36,0,0,1,.89,3.34,29.54,29.54,0,0,1,.57,3.81,42.5,42.5,0,0,1,0,8.36c-.2,1.4-.3,2.83-.61,4.19s-.51,2.72-.9,4a52.62,52.62,0,0,1-2.3,6.85c-.71,2-1.64,3.51-2.13,4.63s-.89,1.71-.89,1.71.17-.68.48-1.87.84-2.84,1.3-4.87c.26-1,.53-2.1.82-3.25s.5-2.38.77-3.65.41-2.59.69-3.91.34-2.69.51-4a57.16,57.16,0,0,0,.3-8c-.06-1.27-.11-2.51-.25-3.67s-.32-2.26-.47-3.28a35.06,35.06,0,0,0-1.23-4.84Z" style="fill:#453f34"/><path d="M131.9,95.19l3.18,1.41a73.86,73.86,0,0,1,8,4.57c1.54,1.11,3.29,2.23,5,3.61a62.82,62.82,0,0,1,5.24,4.46c1.73,1.64,3.47,3.41,5.14,5.28l2.47,2.89c.79,1,1.53,2,2.3,3a72,72,0,0,1,4.06,6.47,63,63,0,0,1,3.12,6.71c.41,1.13.93,2.2,1.23,3.32s.59,2.21.87,3.28a50.16,50.16,0,0,1,1.11,6.08,37.48,37.48,0,0,1,.28,5.2,25.31,25.31,0,0,1-.18,4c-.24,2.2-.37,3.46-.37,3.46s0-1.26-.08-3.47a23.87,23.87,0,0,0-.21-3.95c-.25-1.5-.29-3.23-.7-5.05a49.67,49.67,0,0,0-1.45-5.84,57.43,57.43,0,0,0-2.32-6.27A61.47,61.47,0,0,0,165.4,128a73.83,73.83,0,0,0-4.05-6.19c-.73-1-1.43-2-2.18-3l-2.35-2.86c-1.58-1.86-3.25-3.62-4.9-5.25s-3.3-3.21-4.93-4.6-3.22-2.67-4.67-3.86l-4.14-3L134.87,97Z" style="fill:#453f34"/><path d="M115,99.18s.66.61,1.7,1.77c.41.66,1,1.47,1.52,2.45a24.89,24.89,0,0,1,1.48,3.4,74.61,74.61,0,0,1,2.49,8.86c.73,3.27,1.36,6.79,2.06,10.26s1.4,6.93,2.2,10.13c.45,1.58.79,3.14,1.28,4.57a31.84,31.84,0,0,0,1.44,4,29.18,29.18,0,0,0,1.48,3.27,13.94,13.94,0,0,0,1.36,2.43c.83,1.32,1.32,2.07,1.32,2.07l-1.68-1.81a15.39,15.39,0,0,1-1.73-2.25,18.71,18.71,0,0,1-1.91-3.17,31.9,31.9,0,0,1-1.84-4,43.3,43.3,0,0,1-1.65-4.59,100.81,100.81,0,0,1-2.5-10.24c-.66-3.52-1.25-7-1.79-10.3-.32-1.63-.51-3.23-.83-4.71s-.57-2.89-.92-4.16-.73-2.4-1-3.44-.8-1.8-1.1-2.51C115.48,99.92,115,99.18,115,99.18Z" style="fill:#453f34"/><path d="M110.75,105.51l.6,5.38c.36,3.22.92,7.49,1.64,11.72.34,2.12.8,4.21,1.24,6.16s1,3.76,1.5,5.27c.26.76.57,1.43.79,2.05a11.55,11.55,0,0,0,.69,1.54l.66,1.34-.91-1.19a10.93,10.93,0,0,1-.94-1.44,18.6,18.6,0,0,1-1.07-2,40.23,40.23,0,0,1-2-5.25c-.25-1-.6-2-.8-3.06s-.47-2.12-.64-3.19a73.3,73.3,0,0,1-1-11.93A52.47,52.47,0,0,1,110.75,105.51Z" style="fill:#453f34"/><path d="M140.05,119.89a11,11,0,0,1,1.39,1.34,42.92,42.92,0,0,1,3.17,4,60.67,60.67,0,0,1,7.16,13.71,54,54,0,0,1,2.22,8,42.94,42.94,0,0,1,.72,7.22c0,1.07-.09,2-.14,2.9s-.23,1.59-.3,2.2c-.2,1.22-.34,1.9-.34,1.9s0-.7-.1-1.93c0-.61,0-1.34-.11-2.18s-.22-1.78-.32-2.8-.35-2.11-.55-3.27-.56-2.35-.81-3.6a80.19,80.19,0,0,0-2.41-7.67c-.91-2.58-2-5.11-3-7.45s-2.12-4.52-3.08-6.36-1.78-3.37-2.41-4.41A19,19,0,0,0,140.05,119.89Z" style="fill:#453f34"/><path d="M149.79,132.39a4.74,4.74,0,0,1,.69.51,10.75,10.75,0,0,1,1.53,1.65,18.45,18.45,0,0,1,2.88,6.09,23.2,23.2,0,0,1,.81,6.62c0,.91-.15,1.68-.18,2.21s-.14.84-.14.84-.13-.29-.3-.8-.39-1.22-.67-2.08c-.5-1.71-1.1-4-1.71-6.19s-1.25-4.43-1.83-6.07A23.59,23.59,0,0,0,149.79,132.39Z" style="fill:#453f34"/><path d="M142.72,112.13a55.13,55.13,0,0,1,4.52,6.06c1.2,1.92,2.64,4.16,3.93,6.7a73.24,73.24,0,0,1,3.64,8.15c.54,1.43,1,2.9,1.44,4.32s.75,2.88,1.07,4.28a52.86,52.86,0,0,1,.91,7.77c0,1.15,0,2.19-.08,3.12a21.09,21.09,0,0,1-.28,2.39c-.22,1.3-.35,2.05-.35,2.05s0-.76-.09-2.08a21.21,21.21,0,0,0-.13-2.35c-.12-.91-.25-1.92-.34-3s-.41-2.28-.64-3.54-.66-2.53-.95-3.88c-.76-2.67-1.62-5.5-2.69-8.27s-2.16-5.53-3.31-8.07-2.22-4.93-3.23-6.93-1.82-3.71-2.46-4.86Z" style="fill:#453f34"/><path d="M72.42,97.89a8,8,0,0,1,1.26.73,33.46,33.46,0,0,1,3,2.37,47,47,0,0,1,7.78,8.7,41.12,41.12,0,0,1,3.14,5.43,35.85,35.85,0,0,1,1.9,5.13,23.07,23.07,0,0,1,.69,3.8c.08.92.12,1.45.12,1.45l-.41-1.4c-.19-.9-.7-2.11-1.21-3.58a49.1,49.1,0,0,0-2.28-4.8,57.12,57.12,0,0,0-3.2-5.17c-1.16-1.72-2.42-3.37-3.65-4.89s-2.4-2.93-3.48-4.06-2-2.11-2.62-2.75S72.42,97.89,72.42,97.89Z" style="fill:#453f34"/><path d="M81.9,105.22a6.41,6.41,0,0,1,2,1.2,14.42,14.42,0,0,1,3.21,3.92A18.44,18.44,0,0,1,89,115a14.2,14.2,0,0,1,.39,2.26s-.52-.77-1.19-2l-2.39-4.23c-.87-1.52-1.76-3-2.53-4.1A16.86,16.86,0,0,0,81.9,105.22Z" style="fill:#453f34"/><path d="M76.85,97.85a32.53,32.53,0,0,1,3.58,2.83c1,.93,2.17,2,3.31,3.29a45.19,45.19,0,0,1,3.35,4.21,37.16,37.16,0,0,1,2.75,4.64,32.25,32.25,0,0,1,1.67,4.41,18.18,18.18,0,0,1,.59,3.27c.06.8.09,1.25.09,1.25l-.38-1.19a28.9,28.9,0,0,0-1.1-3c-.53-1.23-1.24-2.61-2-4.07s-1.78-3-2.81-4.4-2.08-2.89-3.13-4.21-2-2.55-2.9-3.56Z" style="fill:#453f34"/><path d="M94,105.56a32.35,32.35,0,0,1,2.54,3.78c.66,1.2,1.46,2.59,2.15,4.15a44.51,44.51,0,0,1,1.92,5,36.78,36.78,0,0,1,1.2,5.26,31.94,31.94,0,0,1,.26,4.7,19.17,19.17,0,0,1-.44,3.3c-.19.78-.29,1.22-.29,1.22v-1.25a31.89,31.89,0,0,0-.13-3.24,42.77,42.77,0,0,0-.72-4.5c-.36-1.62-.79-3.35-1.33-5.05s-1.1-3.39-1.7-5-1.15-3-1.68-4.28C94.66,107.23,94,105.56,94,105.56Z" style="fill:#453f34"/><path d="M66,102.82a9.33,9.33,0,0,1,2.72,1,15.81,15.81,0,0,1,4.9,4.09,16.08,16.08,0,0,1,2.93,5.65,12.5,12.5,0,0,1,.46,2c.08.49.1.78.1.78s-.15-.25-.38-.69-.56-1.07-1-1.8a33.48,33.48,0,0,0-3.33-5,27.69,27.69,0,0,0-2.12-2.4,24.92,24.92,0,0,0-2.06-1.92A23.63,23.63,0,0,0,66,102.82Z" style="fill:#453f34"/><path d="M52.1,104.45a15.37,15.37,0,0,1,3.67-.44,20.4,20.4,0,0,1,3.8.3,17.82,17.82,0,0,1,4.23,1.28,15.45,15.45,0,0,1,3.77,2.34A8.62,8.62,0,0,1,69,109.36a9,9,0,0,1,1.14,1.42,10.79,10.79,0,0,1,1.31,2.35l.4.93-.65-.78a16.57,16.57,0,0,0-1.72-2A16,16,0,0,0,66.76,109a18.76,18.76,0,0,0-3.57-2,23.8,23.8,0,0,0-3.9-1.36,29.72,29.72,0,0,0-3.58-.76C53.58,104.53,52.1,104.45,52.1,104.45Z" style="fill:#453f34"/><path d="M159.88,129.29a42.94,42.94,0,0,1,3.42,6.15,51.64,51.64,0,0,1,2.53,6.77,52.57,52.57,0,0,1,1.75,8.14c.1,1.42.27,2.84.28,4.25a34.9,34.9,0,0,1-.15,4.12,26.32,26.32,0,0,1-.59,3.82,25,25,0,0,1-.91,3.33c-.38,1-.76,1.9-1.09,2.69s-.8,1.42-1.09,2c-.63,1.06-1,1.64-1,1.64l.61-1.83c.19-.58.47-1.25.7-2.06s.37-1.76.62-2.75.29-2.12.5-3.26.15-2.4.26-3.66-.07-2.59,0-3.93-.23-2.69-.34-4-.35-2.7-.62-4-.47-2.64-.81-3.88c-.55-2.52-1.25-4.83-1.82-6.83C160.89,131.92,159.88,129.29,159.88,129.29Z" style="fill:#453f34"/><path d="M209.48,146.37a6.69,6.69,0,0,1-.08,1.68,36.84,36.84,0,0,1-.8,4.36,55.58,55.58,0,0,1-1.84,6,54.18,54.18,0,0,1-2.94,6.59c-.62,1.06-1.18,2.16-1.86,3.16a33.48,33.48,0,0,1-2,2.92,26.46,26.46,0,0,1-2.12,2.56c-.74.76-1.36,1.55-2.07,2.14a26.09,26.09,0,0,1-3.44,2.81l-1.38,1,1.19-1.18,1.37-1.33c.48-.56,1-1.19,1.64-1.85a28.41,28.41,0,0,0,1.84-2.26c.66-.78,1.23-1.72,1.89-2.63s1.23-1.92,1.87-2.91,1.17-2.07,1.77-3.11a87.9,87.9,0,0,0,5.29-12.11c.57-1.72,1.08-3.15,1.34-4.18A9.44,9.44,0,0,0,209.48,146.37Z" style="fill:#453f34"/><path d="M123.16,111.26s0,.49.19,1.31l.58,3.42c.48,2.83,1.07,6.57,1.77,10.29s1.45,7.41,2.07,10.2c.33,1.39.54,2.57.78,3.38s.28,1.3.28,1.3-.27-.4-.69-1.14a29.06,29.06,0,0,1-1.6-3.13,46,46,0,0,1-3.07-10.21,51.83,51.83,0,0,1-.84-10.6c0-1.45.19-2.66.28-3.51A7.48,7.48,0,0,1,123.16,111.26Z" style="fill:#453f34"/><path d="M133.76,108s.26,3.28.78,8.17c.25,2.44.64,5.28,1.05,8.31s.92,6.27,1.61,9.46c.27,1.6.66,3.19,1,4.75s.81,3.07,1.19,4.55.9,2.87,1.31,4.2,1,2.54,1.41,3.68,1,2.11,1.4,3a16.62,16.62,0,0,0,1.23,2.25l1.15,1.95-1.39-1.79a15.06,15.06,0,0,1-1.48-2.14c-.51-.87-1.15-1.82-1.69-2.94a59,59,0,0,1-3.2-7.85c-.42-1.49-.93-3-1.3-4.6s-.82-3.18-1.12-4.8c-.62-3.25-1.07-6.52-1.42-9.59s-.48-6-.59-8.42C133.53,111.33,133.76,108,133.76,108Z" style="fill:#453f34"/><path d="M98,98.47a17,17,0,0,1,3.32,3.36,31.58,31.58,0,0,1,2.66,4.07A38.62,38.62,0,0,1,106.2,111a42.94,42.94,0,0,1,2.27,10.13,31.15,31.15,0,0,1,.22,3.4c0,.82,0,1.3,0,1.3s-.11-.46-.31-1.26-.45-1.93-.77-3.3-.73-2.93-1.2-4.6c-.2-.84-.53-1.67-.77-2.55s-.59-1.73-.88-2.61a54.24,54.24,0,0,0-4.2-9.19A29.43,29.43,0,0,0,98,98.47Z" style="fill:#453f34"/><path d="M86.12,249.67c.25,4,3.64,13,3.5,13.39s-.55,5.94.2,8.19,4.42,7.11,4.42,7.11-.73,2.51-.1,3.78a16.5,16.5,0,0,0,2.59,3.16s-.59.76.18,2.07,1.72,2.87,1.72,2.87l1.8,1.54a21.25,21.25,0,0,0,2.13,4.19c1.11,1.45,4.25,4.69,4.25,4.69a34.73,34.73,0,0,0,2.94,3.86c1.25,1.31,6.09,3,6.76,5.1s4.43,4,4.83,4.1.48,1.93,2.83,3.64a27.24,27.24,0,0,0,5.57,2.9l2.49,2.52-17.48-.07s-35.66-26-35.65-26.89-.16-30.49,0-32.13S86.12,249.67,86.12,249.67Z" style="fill:#251f12"/><path d="M159.33,331.27a5.32,5.32,0,0,1-2.64-.91s.09,1.05-1.67.82-1.66-1.27-1.66-1.27-1,.91-1.59.78a4.31,4.31,0,0,1-1.52-1.06,2.75,2.75,0,0,1-1.88.26,3.69,3.69,0,0,1-1.68-1.39s.1.81-2,.12-4.48-3.4-4.48-3.4-.69,1-3.65,0-3.17-2.85-3.17-2.85a2.41,2.41,0,0,1-2.4-.83c-1.23-1.24-3.44,1.27-3.44,1.27s9.33,13.74,11.38,14.92,16.08,2.8,16.88,1.57S159.33,331.27,159.33,331.27Z" style="fill:#251f12"/><path d="M139.38,311.88c.88-.94,5.89-5.67,9.44-5.78,2.4-.08,7-2.31,8.26-2.26s3-3.89,3-3.89l-8.19-.28s-8.09,5-8.36,5.39S139.38,311.88,139.38,311.88Z" style="fill:#251f12"/><path d="M164.27,292.7a46.15,46.15,0,0,0-13.11,2.17c-1.95.7-10.95,6.76-11,11.28s20.2-8.46,20.2-8.46Z" style="fill:#251f12"/><path d="M114,208.53c-6.5,1.12-21,12.56-21.29,15.41s-2.93,3-2.88,4.37-3.54,11.57-3.54,11.57l-9.71-22.36S100.87,191.1,102,191,114,208.53,114,208.53Z" style="fill:#251f12"/><path d="M70.21,240.88c-.64-7.5-3.07-13.16-3.81-16.08-2.85-8-13.14-23.25-28.06-20.17s-11.52,25.28-6.26,36.51c2.63,5.6,2.55,11.52,3.64,18,2.15,12.85,15.5,15.5,24.51,14.2,0,0-.92,1.83-.9,1.83a54.29,54.29,0,0,1,3.47-6.32C69.65,258.21,70.87,248.57,70.21,240.88Z" style="fill:#edc4b0"/><path d="M157.93,293.83c-9.17,1.68-19.11,7.16-18.55,18.05,0,0,7.3-8.89,19-8s15.64,3.23,17.53,1.61c1.21-2.69.88-5.7.59-8.32a15.52,15.52,0,0,1,.36-5.43C170.12,291.62,168.15,292,157.93,293.83Z" style="fill:#251f12"/><path d="M151.75,306.61c2.62,1.53,17.21,4.32,17.21,4.32l.45,1.53S163.46,312.54,151.75,306.61Z" style="fill:#d9a191;opacity:0.5"/><path d="M167.16,246.07c2.14-3.74,2.64-2.91,5-3.78s3.08-4.42,4.85-4.65,5.14-2.84,4.32-6.11-5.73-9.12-19.44-11.37-11.51-.72-6.46.33c7.33,1.53-2.51,6.38-5.31,7.29-4.33,1.42-8.38,3.19-2.27,6.75S167.16,246.07,167.16,246.07Z" style="fill:#b89584;opacity:0.30000000000000004;mix-blend-mode:multiply"/><path d="M170,235.21c-.37-5.44-1.5-6.28-3.73-6.61-2.82-.41-25.93,4.19-17.31,6.45S170,235.21,170,235.21Z" style="fill:#b89584;opacity:0.30000000000000004;mix-blend-mode:multiply"/><path d="M180.27,289.58c-3.12-2.65-11.83-4.79-13.87-2.83s3.43,2,5.4,2.2S181.84,290.63,180.27,289.58Z" style="fill:#b89584;opacity:0.5;mix-blend-mode:multiply"/><path d="M180.27,289.58c-3.12-2.65-11.83-4.79-13.87-2.83s3.43,2,5.4,2.2S181.84,290.63,180.27,289.58Z" style="fill:#b89584;opacity:0.5;mix-blend-mode:multiply"/><path d="M192.12,289.4c-5.05,2.47-11.85.18-11.85.18,1.57,1.05-6.5-.41-8.47-.63-1.66-.18-5.79-.24-5.81-1.43-1.63.87-1.88,2.55-3.4,0-2.17-3.69,1.63-10.69,3.88-11-3.86.13-8.1,4.75-7.08,8.73s3.19,6.5,9,6.39c1.67,0,4.83.7,8.19,1.34a5,5,0,0,1,.27-1.22C185.73,292.74,190.13,291.56,192.12,289.4Z" style="fill:#b89584;opacity:0.30000000000000004;mix-blend-mode:multiply"/><path d="M188.48,227.14c-1.77,4.46-3.11,7.52-7.29,5.62s-12.35-8.67-26.61-12c-7.21-1.68-21.05-.31-20.76-1.84s9-6.81,19.94-5.81S189.52,224.53,188.48,227.14Z" style="fill:#251f12"/><path d="M175.34,234.71c0,.73,2.6,2.82-5.38.5s-1.72,5.92-1.72,5.92.25,4-1.08,4.94-12-2.57-17.58-8c-3.51-3.49-4.7-5,0-5.39s7.83-1.29,16.2-.66C174.62,232.64,175.59,233.28,175.34,234.71Z" style="fill:#0a0a0a"/><path d="M148.92,235.05c-.48-1.56,9-3.34,21,.16,0,0,1.65,1.65-.06,5.67s-3.35,4.86-10,2.33S149.87,238.12,148.92,235.05Z" style="fill:#e8e1d8"/><path d="M170,235.21c-1-.29-2-.53-2.91-.75a4.79,4.79,0,0,0-4.93,2.84c-1.27,2.44-.57,5.95,2.21,7.22,3.11.49,4.34-.72,5.57-3.64C171.61,236.86,170,235.21,170,235.21Z" style="fill:#1c6691"/><path d="M164.86,244.48a5.08,5.08,0,0,1-2.13-6.94,4.6,4.6,0,0,1,4.75-2.73c.88.2,1.78.43,2.69.69a1.52,1.52,0,0,0-.21-.29c-1-.29-2-.53-2.91-.75a4.79,4.79,0,0,0-4.93,2.84c-1.27,2.44-.57,5.95,2.21,7.22a6.3,6.3,0,0,0,2.07,0A6.37,6.37,0,0,1,164.86,244.48Z" style="fill:#1c6691;opacity:0.5;mix-blend-mode:multiply"/><path d="M156.36,233.19c-4.78,0-8.76.46-8.49,1.34.74,2.37,3.94,4.95,7.95,6.94C148.71,237.72,153.05,233.59,156.36,233.19Z" style="fill:#5e4e46"/><path d="M155.15,241.13a2.71,2.71,0,0,0-.39-.22Z" style="fill:#5e4e46"/><path d="M166.57,239.18a2.69,2.69,0,0,0,1.67,3.41,2.48,2.48,0,0,0,.76.1,14.38,14.38,0,0,0,.89-1.76,10.71,10.71,0,0,0,.82-3,2.65,2.65,0,0,0-.73-.43A2.69,2.69,0,0,0,166.57,239.18Z" style="fill:#0a0a0a"/><path d="M169.29,237.16c.15.66-.55,1.39-1.57,1.63s-2-.1-2.13-.76.55-1.4,1.57-1.64S169.13,236.5,169.29,237.16Z" style="fill:#fff"/><path d="M167.56,242.5c-.21.31-.77.3-1.26,0s-.7-.84-.49-1.15.77-.31,1.25,0S167.77,242.18,167.56,242.5Z" style="fill:#fff"/><path d="M440.87,253.47a27,27,0,0,0-.81-11.18c-1.75-5.82-4.32-22.83-4.32-22.83l-3.49-11.64s-6.41-42.52-13.06-51.95c0,0-5.35-.93-3.61,4.89s1.29,8.5,1.29,8.5-3.15,2.22-3.61,4.9,2.1,19.68,2.1,19.68l-2.68-.46s-2.68-.47-3.61,4.89,3.49,11.65,3.49,11.65l5.71,14.79,2.22,3.14-.12,16.54.82,11.18-26.44,9.21-.12-46.94s-4.43-6.29-7.57-4.08a101.5,101.5,0,0,0-1.05,21.9c.82,11.18.35,13.86.35,13.86L391,286.21s1.28,8.5.81,11.18a18,18,0,0,1-2.62,5.8l30.23,10,21.42-59.76" style="fill:#fcb8a4"/><path d="M419.39,117.59l2.52.44s.22-1.26.82,2.73S424.56,252,424.56,252l-.44,2.52s-.12,2.57-4.27,3.14" style="fill:#e1e1d8"/><path d="M393,254.34l.42-121.81s-.61-4,1.09-6.29l23.58-8.87,1.26.22s.22-1.26,1,1.48l1.39,133.79a5.69,5.69,0,0,1-3.61,5.86c-4.21,1.86-19.37,7-19.37,7s-4,.61-4.6-3.39Z" style="fill:#fff"/><polygon points="394.5 134.01 394.52 253.3 419.58 243.39 418.08 125.14 394.5 134.01" style="fill:#465a65"/><path d="M402.32,126.29a1.25,1.25,0,0,0,1,1.48,4.47,4.47,0,0,0,2.74-.82s2.73-.82.43-2.52Z" style="fill:#465a65"/><path d="M440.87,253.47a27,27,0,0,0-.81-11.18c-1.75-5.82-4.32-22.83-4.32-22.83l-3.49-11.64s-6.41-42.52-13.06-51.95c0,0-5.35-.93-3.61,4.89s1.29,8.5,1.29,8.5-3.15,2.22-3.61,4.9,2.1,19.68,2.1,19.68l-2.68-.46s-2.68-.47-3.61,4.89,3.49,11.65,3.49,11.65l5.71,14.79,2.22,3.14-.12,16.54.82,11.18-27.95,33.79-.46,2.68-.94,5.35-3.61,4.9,31.22,10.94,21.42-59.76" style="fill:#fecbba"/><polygon points="366.11 334.32 421.55 332.91 427.49 314.63 386.02 299.14 366.11 334.32 366.11 334.32" style="fill:#42a5f5"/><path d="M312.48,333.36s2.38-21.74,7.85-37.35,23.17-53.94,23.17-53.94a11.89,11.89,0,0,1,9.9-9.32c8.5-1.28,20.61-7.45,20.61-7.45L398.24,213s4.89,3.61,8,1.39a8.38,8.38,0,0,0,3.61-4.89s1.75,5.82-1.39,8S395.44,229,386.48,233l-9,4s-5.83,1.75-6.29,4.43,12.93,5,12.93,5,4.89,3.61,7.11,6.75S397,267.92,397,267.92s5.35.93,4.42,6.29a28.09,28.09,0,0,1-4.54,10.25s-1.86,10.72-6.75,7.11l-8-1.4-4.89-3.61s-16.77,33-20.38,37.86L354.51,343Z" style="fill:#fecbba"/><polygon points="334.78 339.92 374.6 269.56 382.64 270.95 377.17 286.56 356.79 324.42 353.53 343.18 334.78 339.92" style="fill:#fcb8a4"/><path d="M397.88,212.74s.43,3.79,5.65,2.44,5.73-3.71,5.73-3.71l1-4.72Z" style="fill:#e19876"/><line x1="391.64" y1="130.58" x2="391.47" y2="213.37" style="fill:none;stroke:#e1e1d8;stroke-miterlimit:10"/><polygon points="311.13 333.05 305.19 351.34 360.41 383.01 361.57 344.57 311.13 333.05" style="fill:#42a5f5"/><path d="M112.69,25.09s119-24.51,150,69l41.39-2S254.8-45.22,86.5,15.49Z" style="fill:#42a5f5"/><polygon points="246.31 106.35 334.71 109.49 294.41 143.6 246.31 106.35" style="fill:#42a5f5"/></g></svg>