<svg width="141" height="149" viewBox="0 0 141 149" fill="none" xmlns="http://www.w3.org/2000/svg">
<path d="M33.5 116V40.5C33.5 37.1863 36.1863 34.5 39.5 34.5H66.5" stroke="#0A6DD7" stroke-width="4"/>
<path d="M65 34.5H92C95.3137 34.5 98 37.1863 98 40.5V114H60" stroke="#0A6DD7" stroke-width="4"/>
<path d="M66 120H104V80.25" stroke="#5C5C5C" stroke-dasharray="3 3"/>
<path d="M66 56.5H91" stroke="#0A6DD7" stroke-width="4"/>
<path d="M66 68H91" stroke="#0A6DD7" stroke-width="4"/>
<path d="M41 101H66" stroke="#0A6DD7" stroke-width="4"/>
<circle cx="100" cy="109" r="18" fill="white"/>
<path d="M100 94.2188C91.9727 94.2188 85.4688 100.723 85.4688 108.75C85.4688 116.777 91.9727 123.281 100 123.281C108.027 123.281 114.531 116.777 114.531 108.75C114.531 100.723 108.027 94.2188 100 94.2188ZM105.391 112.559L104.219 114.023C104.043 114.258 103.809 114.434 103.457 114.434C103.281 114.434 103.047 114.316 102.93 114.199L99.0039 111.27C98.418 110.859 98.125 110.215 98.125 109.453V100.312C98.125 99.8438 98.5352 99.375 99.0625 99.375H100.938C101.406 99.375 101.875 99.8438 101.875 100.312V108.75L105.273 111.27C105.449 111.445 105.625 111.68 105.625 111.973C105.625 112.207 105.508 112.441 105.391 112.559Z" fill="#0A6DD7"/>
<path d="M105.391 112.559L104.684 111.851L104.644 111.891L104.61 111.934L105.391 112.559ZM104.219 114.023L103.438 113.399L103.428 113.411L103.419 113.423L104.219 114.023ZM102.93 114.199L103.637 113.492L103.586 113.441L103.528 113.398L102.93 114.199ZM99.0039 111.27L99.602 110.468L99.5898 110.459L99.5774 110.45L99.0039 111.27ZM101.875 108.75H100.875V109.253L101.279 109.553L101.875 108.75ZM105.273 111.27L105.981 110.562L105.928 110.51L105.869 110.466L105.273 111.27ZM100 93.2188C91.4204 93.2188 84.4688 100.17 84.4688 108.75H86.4688C86.4688 101.275 92.5249 95.2188 100 95.2188V93.2188ZM84.4688 108.75C84.4688 117.33 91.4204 124.281 100 124.281V122.281C92.5249 122.281 86.4688 116.225 86.4688 108.75H84.4688ZM100 124.281C108.58 124.281 115.531 117.33 115.531 108.75H113.531C113.531 116.225 107.475 122.281 100 122.281V124.281ZM115.531 108.75C115.531 100.17 108.58 93.2188 100 93.2188V95.2188C107.475 95.2188 113.531 101.275 113.531 108.75H115.531ZM104.61 111.934L103.438 113.399L105 114.648L106.171 113.183L104.61 111.934ZM103.419 113.423C103.402 113.445 103.392 113.456 103.387 113.46C103.383 113.464 103.386 113.461 103.397 113.454C103.408 113.448 103.422 113.442 103.438 113.437C103.453 113.433 103.461 113.434 103.457 113.434V115.434C104.218 115.434 104.719 115.023 105.019 114.623L103.419 113.423ZM103.457 113.434C103.52 113.434 103.56 113.443 103.572 113.447C103.587 113.451 103.592 113.453 103.59 113.452C103.589 113.452 103.588 113.451 103.592 113.453C103.593 113.454 103.61 113.466 103.637 113.492L102.223 114.906C102.383 115.067 102.577 115.187 102.752 115.268C102.922 115.347 103.173 115.434 103.457 115.434V113.434ZM103.528 113.398L99.602 110.468L98.4058 112.071L102.332 115.001L103.528 113.398ZM99.5774 110.45C99.3011 110.257 99.125 109.944 99.125 109.453H97.125C97.125 110.486 97.5348 111.462 98.4304 112.089L99.5774 110.45ZM99.125 109.453V100.312H97.125V109.453H99.125ZM99.125 100.312C99.125 100.341 99.1191 100.356 99.1177 100.359C99.1163 100.363 99.1163 100.362 99.118 100.36C99.1194 100.358 99.1171 100.361 99.1079 100.366C99.0972 100.371 99.081 100.375 99.0625 100.375V98.375C97.9432 98.375 97.125 99.332 97.125 100.312H99.125ZM99.0625 100.375H100.938V98.375H99.0625V100.375ZM100.938 100.375C100.888 100.375 100.862 100.363 100.859 100.362C100.856 100.36 100.864 100.364 100.875 100.375C100.886 100.386 100.89 100.394 100.888 100.391C100.887 100.388 100.875 100.362 100.875 100.312H102.875C102.875 99.7529 102.605 99.277 102.289 98.9609C101.973 98.6447 101.497 98.375 100.938 98.375V100.375ZM100.875 100.312V108.75H102.875V100.312H100.875ZM101.279 109.553L104.678 112.073L105.869 110.466L102.471 107.947L101.279 109.553ZM104.566 111.977C104.591 112.001 104.61 112.022 104.623 112.039C104.637 112.056 104.642 112.065 104.644 112.067C104.645 112.069 104.64 112.061 104.635 112.044C104.629 112.026 104.625 112.001 104.625 111.973H106.625C106.625 111.267 106.204 110.786 105.981 110.562L104.566 111.977ZM104.625 111.973C104.625 111.949 104.628 111.933 104.629 111.926C104.631 111.92 104.632 111.916 104.633 111.916C104.633 111.915 104.634 111.912 104.639 111.904C104.643 111.898 104.656 111.879 104.684 111.851L106.098 113.266C106.39 112.974 106.625 112.49 106.625 111.973H104.625Z" fill="white"/>
<path d="M41 114H46" stroke="#0A6DD7" stroke-width="4"/>
<path d="M50 114H55" stroke="#0A6DD7" stroke-width="4"/>
<path fill-rule="evenodd" clip-rule="evenodd" d="M51.9706 48L45.9706 55.5C41.9702 60.5 40.3706 71 51.9706 71L52.0001 70.3592V71C63.6001 71 62.0005 60.5 58.0001 55.5L52.0001 48V48.6408L51.9706 48Z" fill="#0A6DD7"/>
<path d="M41 90H76" stroke="#0A6DD7" stroke-width="4"/>
<path d="M41 79H91" stroke="#0A6DD7" stroke-width="4"/>
<path fill-rule="evenodd" clip-rule="evenodd" d="M56.8321 26H48C46.3431 26 45 27.3431 45 29V37C45 38.6569 46.3431 40 48 40H65.5H66H83.5C85.1569 40 86.5 38.6569 86.5 37V29C86.5 27.3431 85.1569 26 83.5 26H75.1679C73.6248 22.4682 70.1006 20 66 20C61.8994 20 58.3752 22.4682 56.8321 26ZM71 27C71 29.7614 68.7614 32 66 32C63.2386 32 61 29.7614 61 27C61 26.6575 61.0344 26.3231 61.1 26C61.5633 23.7178 63.581 22 66 22C68.419 22 70.4367 23.7178 70.9 26C70.9077 26.0381 70.915 26.0765 70.9219 26.1149C70.9732 26.4022 71 26.698 71 27Z" fill="#0A6DD7"/>
<path d="M121.727 143.28L112.2 137.78M119.356 135.863L113.856 145.389" stroke="#5C5C5C"/>
<rect x="117.382" y="142.806" width="4" height="4" transform="rotate(-150 117.382 142.806)" fill="white"/>
<path d="M2.86534 29.3538L13.7406 27.7018M9.34856 33.6671L7.69655 22.7919" stroke="#5C5C5C"/>
<rect x="6.55542" y="27.0111" width="4" height="4" transform="rotate(-8.63748 6.55542 27.0111)" fill="white"/>
<path d="M128.865 36.3485L139.741 34.6965M135.349 40.6619L133.697 29.7866" stroke="#5C5C5C"/>
<rect x="132.555" y="34.0059" width="4" height="4" transform="rotate(-8.63748 132.555 34.0059)" fill="white"/>
<path d="M0.865335 131.349L11.7406 129.697M7.34856 135.662L5.69655 124.787" stroke="#5C5C5C"/>
<rect x="4.55542" y="129.006" width="4" height="4" transform="rotate(-8.63748 4.55542 129.006)" fill="white"/>
<path d="M109.346 141.776C98.3348 143.934 87.4788 141.374 79 135.494" stroke="#008290" stroke-dasharray="3 3"/>
<path d="M13.4754 22.7985C20.729 14.2379 30.8073 9.45932 41.1012 8.75753" stroke="#008290" stroke-dasharray="3 3"/>
</svg>
