<?xml version="1.0" encoding="utf-8"?>
<!-- Generator: Adobe Illustrator 15.1.0, SVG Export Plug-In . SVG Version: 6.00 Build 0)  -->
<!DOCTYPE svg PUBLIC "-//W3C//DTD SVG 1.1//EN" "http://www.w3.org/Graphics/SVG/1.1/DTD/svg11.dtd">
<svg version="1.1" id="Layer_1" xmlns="http://www.w3.org/2000/svg" xmlns:xlink="http://www.w3.org/1999/xlink" x="0px" y="0px"
	 width="154.341px" height="154.341px" viewBox="0 0 154.341 154.341" enable-background="new 0 0 154.341 154.341"
	 xml:space="preserve">
<path fill-rule="evenodd" clip-rule="evenodd" fill="#F8EAD5" d="M14.653,372.218c0.002-0.215,0.018-0.417,0.082-0.571
	C14.732,371.863,14.716,372.064,14.653,372.218z"/>
<path fill-rule="evenodd" clip-rule="evenodd" fill="#F8EAD5" d="M14.734,371.606c0.002-0.243,0.018-0.472,0.082-0.653
	C14.814,371.196,14.798,371.425,14.734,371.606z"/>
<path fill-rule="evenodd" clip-rule="evenodd" fill="#F8EAD5" d="M14.979,369.36c-0.001-0.341,0.015-0.666,0.082-0.939
	C15.057,368.758,15.043,369.084,14.979,369.36z"/>
<circle fill="#C6DBE8" cx="77.17" cy="77.628" r="66.67"/>
<path fill-rule="evenodd" clip-rule="evenodd" fill="#174764" d="M91.761,85.173c-0.128-0.005-0.292,0.025-0.357-0.045
	c-0.354,0.02-1.228-0.403-1.784-0.312c-0.493,0.081-1.319,1.14-1.74,1.562c-1.242,1.242-2.096,2.096-3.302,3.302
	c-0.454,0.455-1.083,1.394-1.74,1.562c-0.833,0.212-2.035,0.044-2.855,0.044c-3.058,0-5.606,0-8.746,0
	c-0.029,1.949,0.059,4.016-0.044,5.89c-1.948,0-3.897,0-5.845,0c-0.029,1.934,0.059,3.986-0.044,5.846c-1.934,0-3.867,0-5.8,0
	c-0.083,1.03-0.045,1.966-0.045,2.855c0,0.892,0.178,2.066,0,2.9c-0.116,0.545-1.055,1.189-1.428,1.562
	c-1.12,1.12-1.824,1.825-2.989,2.99c-0.433,0.433-1.076,1.325-1.606,1.428c-0.785,0.153-1.856,0-2.811,0c-2.041,0-3.711,0-5.711,0
	c-0.895,0-1.972,0.194-2.856,0c-0.384-0.085-1.226-1.048-1.562-1.383c-1.165-1.165-1.908-1.908-2.989-2.99
	c-0.339-0.338-1.324-1.092-1.428-1.562c-0.169-0.769,0-1.924,0-2.811c0-0.86-0.2-2.09,0-2.855c0.064-0.243,0.726-0.814,1.071-1.16
	c10.927-10.927,21.741-21.696,32.662-32.617c0.409-0.409,2.073-1.815,2.141-2.365c0.045-0.359-0.156-0.857-0.223-1.249
	c-0.55-3.25-0.286-6.729,0.401-9.549c0.792-3.25,2.09-5.848,3.837-8.21c3.302-4.464,8.11-8.074,14.903-9.236
	c8.022-1.373,14.519,1.444,18.651,4.818c4.478,3.657,7.637,8.413,8.656,15.483c0,0.015,0,0.03,0,0.045
	c0.035,0.545,0.084,1.076,0.178,1.562c0,0.014,0,0.029,0,0.044c0,0.773,0,1.547,0,2.32c0,0.015,0,0.03,0,0.045
	c-0.137,0.472-0.182,1.038-0.223,1.606c0,0.015,0,0.03,0,0.044c-0.068,0.185-0.082,0.424-0.089,0.67c0,0.015,0,0.029,0,0.044
	c-0.068,0.155-0.081,0.365-0.089,0.58c0,0.015,0,0.03,0,0.044c-2.2,10.101-8.397,16.202-18.116,18.785c-0.015,0-0.029,0-0.044,0
	c-0.381,0.065-0.779,0.114-1.116,0.223c-0.014,0-0.029,0-0.044,0c-0.319,0.022-0.63,0.054-0.893,0.134c-0.014,0-0.029,0-0.044,0
	c-0.286,0.011-0.574,0.021-0.803,0.089c-0.015,0-0.03,0-0.045,0c-0.179,0.029-0.475-0.059-0.58,0.044c-0.015,0-0.03,0-0.044,0
	c-0.893,0-1.785,0-2.677,0c-0.015,0-0.03,0-0.045,0c-0.303-0.069-0.667-0.077-1.026-0.089c-0.015,0-0.03,0-0.045,0
	C92.246,85.194,92.006,85.181,91.761,85.173z M100.15,50.146c-0.366,0.052-0.707,0.126-1.071,0.179
	c-1.854,0.525-3.087,1.672-3.837,3.302c0,0.015,0,0.03,0,0.044c-0.242,0.427-0.391,0.948-0.446,1.562c0,0.149,0,0.298,0,0.447
	c-0.053,0.007-0.049,0.07-0.045,0.134c-0.074,0.048-0.074,0.398,0,0.446c0,0.029,0,0.059,0,0.089
	c0.028,0.136-0.057,0.384,0.045,0.446c0.061,0.058,0.044,0.194,0.044,0.312c0.653,2.753,2.342,4.471,5.399,4.819
	c0.015,0,0.03,0,0.044,0c0.15,0.074,0.609,0.074,0.759,0c0.015,0,0.03,0,0.045,0c3.148-0.376,4.907-2.143,5.443-5.131
	c0-0.015,0-0.03,0-0.045c0.268-3.213-1.274-5.003-3.302-6.068c-0.015,0-0.03,0-0.044,0c-0.126-0.111-0.299-0.177-0.491-0.223
	c-0.139,0.004-0.213-0.054-0.313-0.089c-0.121-0.087-0.296-0.12-0.491-0.134c-0.25-0.002-0.458-0.047-0.669-0.089
	C100.967,50.072,100.403,50.072,100.15,50.146z M70.924,73.929c-8.997,9.062-18.253,18.253-27.352,27.352
	c-0.508,0.508-1.622,1.396-1.74,1.918c-0.183,0.813,0,1.903,0,2.811c0,1.016,0,1.966,0,2.855c0.245,0.111,0.375-0.196,0.491-0.312
	c9.083-9.084,18.117-18.116,27.218-27.218c0.512-0.512,1.66-1.364,1.785-1.918c0.188-0.838,0-2.039,0-3.034c0-0.461,0-1.025,0-1.517
	c0-0.411,0.191-1.112-0.268-1.16C71.032,73.799,70.964,73.85,70.924,73.929z"/>
</svg>
