<?xml version="1.0" encoding="utf-8"?>
<!-- Generator: Adobe Illustrator 15.1.0, SVG Export Plug-In . SVG Version: 6.00 Build 0)  -->
<!DOCTYPE svg PUBLIC "-//W3C//DTD SVG 1.1//EN" "http://www.w3.org/Graphics/SVG/1.1/DTD/svg11.dtd">
<svg version="1.1" id="Layer_1" xmlns="http://www.w3.org/2000/svg" xmlns:xlink="http://www.w3.org/1999/xlink" x="0px" y="0px"
	 width="154.341px" height="154.341px" viewBox="0 0 154.341 154.341" enable-background="new 0 0 154.341 154.341"
	 xml:space="preserve">
<circle fill="#C6DBE8" cx="77.17" cy="77.171" r="66.67"/>
<g id="hand2">
	<g>
		<path fill="#F8BF8E" d="M96.655,81.378c-2.708-1.024-3.98-4.309-2.837-7.338l0,0c1.142-3.032,4.264-4.66,6.977-3.636l25.728,9.09
			c2.708,1.021,3.979,4.304,2.839,7.335l0,0c-1.145,3.03-4.268,4.66-6.979,3.64L96.655,81.378z"/>
		<path fill="#F8BF8E" d="M94.483,93.184c-3.104-1.166-4.691-4.574-3.548-7.603l0,0c1.142-3.033,4.583-4.539,7.686-3.37l27.02,9.577
			c3.102,1.171,4.693,4.575,3.549,7.609l0,0c-1.143,3.03-4.584,4.535-7.687,3.366L94.483,93.184z"/>
		<path fill="#F8BF8E" d="M88.804,103.763c-2.808-1.059-4.158-4.373-3.017-7.403l0,0c1.14-3.03,4.347-4.63,7.155-3.572l26.052,9.216
			c2.809,1.062,4.16,4.373,3.021,7.404l0,0c-1.146,3.033-4.349,4.631-7.158,3.569L88.804,103.763z"/>
		<path fill="#F8BF8E" d="M81.101,112.796c-2.325-0.878-3.357-3.865-2.299-6.672l0,0c1.059-2.8,3.805-4.368,6.131-3.492
			l24.478,8.626c2.326,0.873,3.357,3.86,2.299,6.665l0,0c-1.06,2.808-3.803,4.37-6.128,3.49L81.101,112.796z"/>
	</g>
	<path fill="#F8BF8E" d="M73.244,39.695l23.266,2.19c0,0,3.65-0.126,3.302,2.354c-0.204,1.45-3.02,8.042-11.465,7.378
		c-2.519-0.197-10.636-0.044-10.636-0.044s-7.462,11.289-14.262,14.939L49.255,56.199l6.933-6.832
		C56.188,49.367,71.137,40.855,73.244,39.695z"/>
	<path fill="#F8BF8E" d="M30.748,49.498L14.313,83.901L31.146,87.8c0,0,5.394,7.632,7.891,9.42
		c5.743,4.113,26.348,10.208,26.348,10.208l25.894-38.564L47.2,54.371l-6.251-2.48L30.748,49.498z"/>
	<path opacity="0.3" fill="#FCD8A9" d="M29.23,87.008l-12.577-5.195l14.095-32.314l10.201,2.393l3.235,1.285
		C42.959,55.418,29.746,86.212,29.23,87.008z"/>
	
		<rect x="7.839" y="60.032" transform="matrix(-0.398 0.9174 -0.9174 -0.398 101.819 68.163)" fill="#FFFFFF" width="41.413" height="14.914"/>
	<polygon opacity="0.2" fill="#BDBFC0" points="41.504,50.54 29.945,45.525 13.463,83.518 20.336,86.499 	"/>
	<path fill="#174764" d="M40.857,46.541L28.12,38.779l-3.763-2.278C15.676,47.758,10.5,61.855,10.5,77.171
		c0,3.551,0.283,7.034,0.818,10.435l4.122,1.966L40.857,46.541z"/>
	<circle fill="#39364E" cx="24.35" cy="84.701" r="1.731"/>
	<polygon opacity="0.3" fill="#FCD8A9" points="62.866,110.804 82.266,113.409 89.849,116.075 107.599,72.908 94.766,67.992 
		88.608,53.488 	"/>
</g>
<g>
	<path fill="#39364E" d="M52.063,102.842c-0.959,2.333,0.165,5.021,2.497,5.979l27.499,11.302c2.33,0.958,5.021-0.163,5.979-2.496
		l24.537-59.703c0.957-2.331-0.166-5.021-2.497-5.979L82.579,40.644c-2.33-0.958-5.022,0.165-5.979,2.495L52.063,102.842z"/>
	<path fill="#76CCEF" d="M57.049,95.536c-0.383,0.932,0.065,2.009,0.995,2.391l29.195,11.998c0.933,0.384,2.01-0.067,2.392-0.998
		l19.505-47.463c0.385-0.932-0.064-2.008-0.997-2.392L78.944,47.074c-0.931-0.383-2.008,0.067-2.39,1L57.049,95.536z"/>
	<path fill="#39364E" d="M72.978,113.53c-0.434,0-0.858-0.084-1.264-0.25l-4.987-2.051c-1.695-0.697-2.509-2.644-1.813-4.339
		c0.516-1.253,1.723-2.063,3.077-2.063c0.435,0,0.858,0.084,1.263,0.251l4.988,2.051c0.822,0.337,1.463,0.974,1.806,1.793
		c0.342,0.82,0.346,1.725,0.007,2.546C75.54,112.721,74.333,113.53,72.978,113.53L72.978,113.53z"/>
	<path fill="#F3F2F2" d="M89.826,48.056c-0.213,0.52,0.034,1.114,0.554,1.328l8.007,3.29c0.519,0.214,1.112-0.036,1.326-0.556l0,0
		c0.214-0.52-0.033-1.114-0.553-1.328l-8.006-3.291C90.635,47.286,90.04,47.536,89.826,48.056L89.826,48.056z"/>
	<path fill="#F3F2F2" d="M65.541,107.148c-0.555,1.352,0.092,2.898,1.443,3.454l4.988,2.05c1.352,0.557,2.899-0.09,3.454-1.441l0,0
		c0.558-1.354-0.089-2.899-1.441-3.454l-4.988-2.051C67.645,105.15,66.098,105.795,65.541,107.148L65.541,107.148z"/>
</g>
</svg>
