<svg width="82" height="72" viewBox="0 0 82 72" fill="none" xmlns="http://www.w3.org/2000/svg">
<path d="M51.3173 34.0312L43.3104 50.1027C42.3495 52.0313 39.6272 51.8705 38.6664 49.942L29.5385 29.692L24.7344 41.1027H9.6814L38.9866 71.1562C40.1076 72.2812 41.8691 72.2812 42.9901 71.1562L72.2953 41.1027H54.8403L51.3173 34.0312ZM75.8184 6.70982L75.4981 6.38839C67.1709 -2.12946 53.7193 -2.12946 45.3922 6.38839L41.0684 10.8884L36.5846 6.38839C28.2574 -2.12946 14.8058 -2.12946 6.47865 6.38839L6.15837 6.70982C-1.68839 14.7455 -2.00866 27.442 5.03741 35.9598H21.3715L27.1364 22.1384C27.9371 20.0491 30.8196 20.0491 31.7804 22.1384L41.0684 42.8705L48.9152 27.1205C49.876 25.192 52.5984 25.192 53.5592 27.1205L58.0431 35.9598H77.0995C83.9854 27.442 83.6651 14.7455 75.8184 6.70982Z" fill="#0A6DD7"/>
</svg>
