<svg width="140" height="158" viewBox="0 0 140 158" fill="none" xmlns="http://www.w3.org/2000/svg">
<path fill-rule="evenodd" clip-rule="evenodd" d="M114.259 151.064L113.759 151.93L111.16 150.43L111.66 149.564L114.259 151.064ZM116.633 150.428L117.499 150.928L118.999 148.33L118.133 147.83L116.633 150.428ZM117.723 153.064L117.223 153.93L120.687 155.93L121.187 155.064L117.723 153.064ZM115.499 154.392L114.633 153.892L112.633 157.356L113.499 157.856L115.499 154.392Z" fill="#5C5C5C"/>
<path fill-rule="evenodd" clip-rule="evenodd" d="M8.60212 42.843L7.61346 42.9932L8.06399 45.959L9.05264 45.8088L8.60212 42.843ZM10.0597 40.8634L9.90955 39.8747L12.8752 39.4242L13.0254 40.4129L10.0597 40.8634ZM8.00139 38.8884L7.40064 34.9336L6.41198 35.0838L7.01273 39.0386L8.00139 38.8884ZM5.95491 40.4755L2 41.0762L2.15018 42.0649L6.1051 41.4641L5.95491 40.4755Z" fill="#5C5C5C"/>
<path fill-rule="evenodd" clip-rule="evenodd" d="M134.602 49.8376L133.613 49.9878L134.064 52.9536L135.053 52.8035L134.602 49.8376ZM136.06 47.858L135.91 46.8694L138.875 46.4189L139.025 47.4075L136.06 47.858ZM134.001 45.883L133.401 41.9282L132.412 42.0784L133.013 46.0332L134.001 45.883ZM131.955 47.4701L128 48.0709L128.15 49.0595L132.105 48.4588L131.955 47.4701Z" fill="#5C5C5C"/>
<path fill-rule="evenodd" clip-rule="evenodd" d="M6.60212 144.838L5.61346 144.988L6.06399 147.954L7.05264 147.803L6.60212 144.838ZM8.05973 142.858L7.90955 141.869L10.8752 141.419L11.0254 142.408L8.05973 142.858ZM6.00139 140.883L5.40064 136.928L4.41198 137.078L5.01273 141.033L6.00139 140.883ZM3.95491 142.47L0 143.071L0.150182 144.06L4.1051 143.459L3.95491 142.47Z" fill="#5C5C5C"/>
<path d="M108.556 130.212C97.5446 132.338 86.6886 129.816 78.2097 124.024" stroke="#008290" stroke-dasharray="3 3"/>
<path d="M12.6852 21.8712C19.9387 13.4371 30.017 8.72908 40.3109 8.03767" stroke="#008290" stroke-dasharray="3 3"/>
<path d="M80.3173 82.0312L72.3104 98.1027C71.3495 100.031 68.6272 99.8705 67.6664 97.942L58.5385 77.692L53.7344 89.1027H38.6814L67.9866 119.156C69.1076 120.281 70.8691 120.281 71.9901 119.156L101.295 89.1027H83.8403L80.3173 82.0312ZM104.818 54.7098L104.498 54.3884C96.1709 45.8705 82.7193 45.8705 74.3922 54.3884L70.0684 58.8884L65.5846 54.3884C57.2574 45.8705 43.8058 45.8705 35.4786 54.3884L35.1584 54.7098C27.3116 62.7455 26.9913 75.442 34.0374 83.9598H50.3715L56.1364 70.1384C56.9371 68.0491 59.8196 68.0491 60.7804 70.1384L70.0684 90.8705L77.9152 75.1205C78.876 73.192 81.5984 73.192 82.5592 75.1205L87.0431 83.9598H106.099C112.985 75.442 112.665 62.7455 104.818 54.7098Z" fill="#0A6DD7"/>
</svg>
